<svg width="16" height="15" viewBox="0 0 16 15" fill="none" xmlns="http://www.w3.org/2000/svg">
<path fill-rule="evenodd" clip-rule="evenodd" d="M10.5 9.5C11.4946 9.5 12.4484 9.89509 13.1517 10.5983C13.8549 11.3016 14.25 12.2554 14.25 13.25V14.75C14.25 14.9489 14.171 15.1397 14.0303 15.2803C13.8897 15.421 13.6989 15.5 13.5 15.5C13.3011 15.5 13.1103 15.421 12.9697 15.2803C12.829 15.1397 12.75 14.9489 12.75 14.75V13.25C12.75 12.6533 12.5129 12.081 12.091 11.659C11.669 11.2371 11.0967 11 10.5 11H4.5C3.90326 11 3.33097 11.2371 2.90901 11.659C2.48705 12.081 2.25 12.6533 2.25 13.25V14.75C2.25 14.9489 2.17098 15.1397 2.03033 15.2803C1.88968 15.421 1.69891 15.5 1.5 15.5C1.30109 15.5 1.11032 15.421 0.96967 15.2803C0.829018 15.1397 0.75 14.9489 0.75 14.75V13.25C0.75 12.2554 1.14509 11.3016 1.84835 10.5983C2.55161 9.89509 3.50544 9.5 4.5 9.5H10.5ZM13.5 5C13.6989 5 13.8897 5.07902 14.0303 5.21967C14.171 5.36032 14.25 5.55109 14.25 5.75V6.5H15C15.1989 6.5 15.3897 6.57902 15.5303 6.71967C15.671 6.86032 15.75 7.05109 15.75 7.25C15.75 7.44891 15.671 7.63968 15.5303 7.78033C15.3897 7.92098 15.1989 8 15 8H14.25V8.75C14.25 8.94891 14.171 9.13968 14.0303 9.28033C13.8897 9.42098 13.6989 9.5 13.5 9.5C13.3011 9.5 13.1103 9.42098 12.9697 9.28033C12.829 9.13968 12.75 8.94891 12.75 8.75V8H12C11.8011 8 11.6103 7.92098 11.4697 7.78033C11.329 7.63968 11.25 7.44891 11.25 7.25C11.25 7.05109 11.329 6.86032 11.4697 6.71967C11.6103 6.57902 11.8011 6.5 12 6.5H12.75V5.75C12.75 5.55109 12.829 5.36032 12.9697 5.21967C13.1103 5.07902 13.3011 5 13.5 5ZM7.5 0.5C8.49456 0.5 9.44839 0.895088 10.1517 1.59835C10.8549 2.30161 11.25 3.25544 11.25 4.25C11.25 5.24456 10.8549 6.19839 10.1517 6.90165C9.44839 7.60491 8.49456 8 7.5 8C6.50544 8 5.55161 7.60491 4.84835 6.90165C4.14509 6.19839 3.75 5.24456 3.75 4.25C3.75 3.25544 4.14509 2.30161 4.84835 1.59835C5.55161 0.895088 6.50544 0.5 7.5 0.5ZM7.5 2C7.20453 2 6.91194 2.0582 6.63896 2.17127C6.36598 2.28434 6.11794 2.45008 5.90901 2.65901C5.70008 2.86794 5.53434 3.11598 5.42127 3.38896C5.3082 3.66194 5.25 3.95453 5.25 4.25C5.25 4.54547 5.3082 4.83806 5.42127 5.11104C5.53434 5.38402 5.70008 5.63206 5.90901 5.84099C6.11794 6.04992 6.36598 6.21566 6.63896 6.32873C6.91194 6.4418 7.20453 6.5 7.5 6.5C8.09674 6.5 8.66903 6.26295 9.09099 5.84099C9.51295 5.41903 9.75 4.84674 9.75 4.25C9.75 3.65326 9.51295 3.08097 9.09099 2.65901C8.66903 2.23705 8.09674 2 7.5 2Z" />
</svg>
