<svg width="45" height="50" viewBox="0 0 45 50" fill="none" xmlns="http://www.w3.org/2000/svg">
<path d="M8.88672 20.4167C8.88672 23.9668 9.86904 27.5623 11.5817 30.2808C13.3828 33.1398 15.734 34.7143 18.2021 34.7143C20.6698 34.7143 23.0181 33.1407 24.8145 30.2833C26.5216 27.568 27.5007 23.974 27.5007 20.4228V17.295C28.191 13.381 28.3359 9.99385 28.3347 7.83348C28.3333 5.04415 28.1029 3.11698 27.8877 2.2436C27.7736 1.7796 27.4308 1.49778 27.0765 1.54294C27.018 1.53605 26.9579 1.53682 26.8972 1.54817C25.4554 1.8194 23.6866 1.35171 21.8138 0.856583C18.7795 0.0545104 15.3514 -0.850515 12.7295 1.54256C12.7061 1.53975 12.6826 1.53784 12.6586 1.53784C11.1871 1.53784 9.88067 2.31197 8.97985 3.71762C8.14772 5.01608 7.68945 6.80253 7.68945 8.74795C7.68945 11.9342 8.71897 17.8225 8.88662 18.7603L8.88672 20.4167ZM23.6201 28.982C22.1237 31.3623 20.1995 32.6732 18.2021 32.6732C16.2036 32.6732 14.2763 31.3608 12.7751 28.978C11.2893 26.6195 10.4372 23.499 10.4372 20.4167V19.1927C10.4372 16.6683 11.7248 13.2366 12.2135 12.0252C19.1853 10.9764 23.852 13.511 24.9113 14.1637L25.9502 17.3865V20.423C25.9502 23.5068 25.101 26.6265 23.6201 28.982ZM12.6587 3.57907C12.7149 3.57907 12.7697 3.57077 12.8225 3.55572C13.0355 3.61542 13.2662 3.55813 13.4533 3.37112C15.5436 1.2809 18.5761 2.08247 21.5087 2.85787C23.078 3.27275 24.5794 3.66952 25.9747 3.66952C26.168 3.66952 26.3592 3.66187 26.5483 3.64553C26.7819 5.3738 26.9707 9.09443 26.4452 13.6965L26.2263 13.0175C26.1581 12.806 26.0379 12.6311 25.8847 12.5208C25.6621 12.3604 20.344 8.6196 11.6889 10.05C11.4351 10.0669 11.1927 10.2468 11.056 10.5581C11.0064 10.6711 10.3319 12.222 9.74791 14.2053C9.48288 12.3151 9.23993 10.1894 9.23993 8.74768C9.24003 5.17733 10.957 3.57907 12.6587 3.57907Z" />
<path d="M31.5544 36.974C31.5377 36.9679 31.5208 36.9625 31.5039 36.9579L26.8913 35.6877L25.6721 33.2534C25.6635 33.2362 25.6544 33.2194 25.6452 33.2029C25.4234 32.8137 25.0858 32.557 24.719 32.4982C24.3524 32.4397 23.9779 32.5825 23.6918 32.8907C23.6868 32.896 23.6817 32.9017 23.6769 32.9072L18.1928 39.1222L12.7085 32.9072C12.7036 32.9019 12.6986 32.8964 12.6937 32.8909C12.4076 32.5827 12.0331 32.4397 11.6664 32.4982C11.2996 32.557 10.962 32.8137 10.7403 33.2029C10.731 33.2194 10.7219 33.2362 10.7134 33.2534L9.49406 35.6877L4.88156 36.9579C4.86461 36.9625 4.84776 36.9679 4.83109 36.974C3.48992 37.4687 2.34896 38.5634 1.53147 40.1399C0.785685 41.5779 0.375 43.3139 0.375 45.0282V46.947C0.375 48.6304 1.51363 50 2.91324 50H16.4276L16.4305 50.0002L16.4337 50H19.9516L19.9548 50.0002L19.9578 50H33.4722C34.8718 50 36.0103 48.6305 36.0103 46.947V45.0282C36.0103 43.3139 35.5997 41.5779 34.854 40.1399C34.0366 38.5635 32.8956 37.4687 31.5544 36.974ZM24.5149 34.651L25.4773 36.5724L21.6255 43.5449L19.3316 40.525L24.5149 34.651ZM17.6842 45.926H18.7013L19.0101 47.959H17.3753L17.6842 45.926ZM18.9679 43.3257C18.9679 43.6617 18.8125 43.8847 18.7096 43.8847H17.6758C17.5729 43.8847 17.4174 43.6617 17.4174 43.3257V42.9329L18.1926 41.9122L18.9679 42.9329V43.3257ZM11.8706 34.651L17.0538 40.525L14.76 43.5447L10.9081 36.5722L11.8706 34.651ZM1.92538 46.947V45.0282C1.92538 42.6205 3.05879 39.7654 5.2254 38.9484L9.63321 37.7347L14.0397 45.7112C14.173 45.9527 14.3799 46.105 14.606 46.1285C14.6262 46.1307 14.6465 46.1315 14.6667 46.1315C14.8714 46.1315 15.0688 46.0249 15.2147 45.8327L16.1188 44.6425C16.1598 44.7422 16.2048 44.838 16.2544 44.9285L15.7942 47.9587H2.91324C2.37774 47.9589 1.92538 47.4955 1.92538 46.947ZM34.4602 46.947C34.4602 47.4955 34.0077 47.9589 33.4723 47.9589H20.5913L20.1311 44.9287C20.1807 44.838 20.2257 44.7424 20.2667 44.6427L21.1707 45.8329C21.3167 46.0249 21.514 46.1317 21.7188 46.1317C21.739 46.1317 21.7593 46.1307 21.7795 46.1287C22.0056 46.1054 22.2124 45.9529 22.3457 45.7114L26.7523 37.7347L31.1601 38.9485C33.3266 39.7655 34.4602 42.6207 34.4602 45.0284V46.947Z" />
<path d="M45.0003 28.949H39.3299V34.6633H37.4399V28.949H31.7695V27.0443H37.4399V21.33H39.3299V27.0443H45.0003V28.949Z" />
</svg>
