<svg width="17" height="18" viewBox="0 0 17 18" fill="none" xmlns="http://www.w3.org/2000/svg">
<path d="M9.5 11H5C3.93913 11 2.92172 11.4214 2.17157 12.1716C1.42143 12.9217 1 13.9391 1 15V17"  stroke-linecap="round" stroke-linejoin="round"/>
<path d="M8 9C10.2091 9 12 7.20914 12 5C12 2.79086 10.2091 1 8 1C5.79086 1 4 2.79086 4 5C4 7.20914 5.79086 9 8 9Z"  stroke-linecap="round" stroke-linejoin="round"/>
<path d="M13 10.5C13.7797 11.3037 14.7974 11.7221 15.8374 11.6667C15.9888 12.2667 16.0351 12.8961 15.9736 13.5175C15.9121 14.1388 15.744 14.7394 15.4793 15.2835C15.2147 15.8277 14.8588 16.3043 14.4329 16.6851C14.0069 17.0658 13.5197 17.343 13 17.5C12.4803 17.343 11.9931 17.0658 11.5671 16.6851C11.1412 16.3043 10.7853 15.8277 10.5207 15.2835C10.256 14.7394 10.0879 14.1388 10.0264 13.5175C9.96487 12.8961 10.0112 12.2667 10.1626 11.6667C11.2026 11.7221 12.2203 11.3037 13 10.5Z" stroke-width="0.8" stroke-linecap="round" stroke-linejoin="round"/>
</svg>
