<svg width="17" height="20" viewBox="0 0 17 20" fill="none" xmlns="http://www.w3.org/2000/svg">
<path d="M9.5 13H5C3.93913 13 2.92172 13.4214 2.17157 14.1716C1.42143 14.9217 1 15.9391 1 17V19" stroke-width="2" stroke-linecap="round" stroke-linejoin="round"/>
<path d="M8 9C10.2091 9 12 7.20914 12 5C12 2.79086 10.2091 1 8 1C5.79086 1 4 2.79086 4 5C4 7.20914 5.79086 9 8 9Z" stroke-width="2" stroke-linecap="round" stroke-linejoin="round"/>
<path d="M13.5 13.5C14.1498 14.1889 14.9978 14.5475 15.8645 14.5C15.9907 15.0143 16.0293 15.5538 15.978 16.0864C15.9268 16.619 15.7867 17.1338 15.5661 17.6002C15.3456 18.0666 15.049 18.4751 14.6941 18.8015C14.3391 19.1279 13.9331 19.3654 13.5 19.5C13.0669 19.3654 12.6609 19.1279 12.3059 18.8015C11.951 18.4751 11.6544 18.0666 11.4339 17.6002C11.2133 17.1338 11.0732 16.619 11.022 16.0864C10.9707 15.5538 11.0093 15.0143 11.1355 14.5C12.0022 14.5475 12.8502 14.1889 13.5 13.5Z" stroke-width="0.5625" stroke-linecap="round" stroke-linejoin="round"/>
</svg>
