<svg width="455" height="453" viewBox="0 0 455 453" fill="none" xmlns="http://www.w3.org/2000/svg">
<path d="M206.82 449.109C206.83 449.099 206.84 449.089 206.84 449.079C206.82 449.13 206.81 449.139 206.82 449.109Z" />
<path d="M172.551 452.63C172.801 452.69 172.871 452.7 172.551 452.63V452.63Z" />
<path d="M441.732 299.248C441.831 299.021 441.847 298.754 441.705 298.474C435.522 286.215 429.33 273.96 423.14 261.705C423.887 261.439 423.787 260.119 422.831 260.087C422.659 260.081 422.487 260.076 422.315 260.071C421.081 257.629 419.849 255.186 418.615 252.744C412.174 239.993 406.059 226.98 399.313 214.362C399.341 214.248 399.32 214.124 399.204 214.019C399.158 213.977 399.111 213.936 399.065 213.895C397.846 211.623 396.614 209.359 395.347 207.118C395.02 206.539 394.33 206.794 394.175 207.285C393.919 206.775 393.096 206.543 392.689 207.18C391.979 208.29 391.275 209.407 390.57 210.523C390.561 210.512 390.552 210.502 390.543 210.491C390.308 210.213 389.812 210.587 390.033 210.885C390.088 210.959 390.146 211.031 390.202 211.105C374.007 236.78 358.973 264.029 347.441 292.157C346.159 293.933 345.128 295.963 344.554 298.019C343.864 298.239 343.936 299.36 344.771 299.402C360.788 300.211 376.891 300.046 392.925 300.257C408.971 300.468 425.032 300.904 441.079 300.859C442.014 300.856 442.226 299.775 441.732 299.248ZM394.132 208.023C394.178 207.948 394.192 207.876 394.214 207.803C394.667 208.817 395.15 209.82 395.614 210.83C394.927 210.227 394.24 209.625 393.554 209.022C393.546 209.015 393.537 209.019 393.529 209.013C393.731 208.684 393.928 208.351 394.132 208.023ZM393.279 209.423C394.295 210.406 395.31 211.391 396.328 212.373C397.998 215.957 399.706 219.527 401.469 223.074C398.193 219.388 394.956 215.674 391.762 211.913C392.266 211.081 392.773 210.253 393.279 209.423ZM391.344 212.599C394.991 217.386 398.892 222.043 402.998 226.423C403.065 226.494 403.137 226.536 403.211 226.561C404.49 229.097 405.778 231.628 407.078 234.154C406.734 234.131 406.388 234.108 406.043 234.084C406.092 233.936 406.085 233.765 405.966 233.613C400.824 227.061 395.477 220.698 390.467 214.039C390.758 213.558 391.054 213.08 391.344 212.599ZM390.059 214.708C394.811 221.304 399.68 227.94 405.071 234.018C404.166 233.957 403.263 233.896 402.358 233.835C402.64 233.685 402.802 233.3 402.506 233.008C397.526 228.102 392.995 222.931 388.864 217.284C388.788 217.18 388.682 217.14 388.577 217.139C389.066 216.326 389.568 215.52 390.059 214.708ZM388.276 217.641C392.153 223.476 396.677 228.929 401.762 233.752C401.786 233.775 401.813 233.782 401.838 233.8C400.551 233.713 399.27 233.625 397.981 233.54C398.032 233.392 398.022 233.223 397.891 233.075C394.155 228.851 390.366 224.667 386.554 220.511C387.125 219.552 387.702 218.598 388.276 217.641ZM386.271 220.983C389.811 225.175 393.381 229.347 396.994 233.476C396.057 233.415 395.121 233.35 394.184 233.294C394.284 233.149 394.299 232.957 394.124 232.8C390.692 229.738 387.873 226.446 385.243 222.703C385.582 222.128 385.929 221.557 386.271 220.983ZM383.611 225.438C385.519 227.932 387.464 230.469 389.597 232.732C389.841 232.991 390.318 232.643 390.101 232.343C388.236 229.761 386.057 227.317 383.919 224.919C384.24 224.375 384.568 223.835 384.889 223.292C387.089 227.016 390.073 230.459 393.351 233.243C391.233 233.119 389.115 233.005 386.998 232.92C386.227 232.109 385.438 231.35 384.787 230.407C384.022 229.298 383.437 228.089 382.932 226.842C382.911 226.791 382.873 226.765 382.835 226.739C383.093 226.304 383.355 225.873 383.611 225.438ZM380.887 230.043C381.63 231.108 382.545 232.134 383.627 232.745C383.894 232.896 384.191 232.533 383.96 232.314C383.381 231.763 382.727 231.303 382.163 230.733C381.802 230.369 381.474 229.977 381.162 229.573C381.623 228.78 382.099 227.997 382.563 227.206C383.155 229.214 384.299 231.354 385.861 232.878C383.677 232.8 381.497 232.748 379.323 232.739C379.839 231.836 380.366 230.941 380.887 230.043ZM368.475 252.392C371.765 246.148 375.176 239.977 378.677 233.859C388.289 235.14 398.203 235.47 407.897 235.746C410.973 241.713 414.071 247.666 417.08 253.642C418.148 255.764 419.218 257.886 420.287 260.008C410.926 259.702 401.564 259.416 392.2 259.177C383.376 258.952 373.954 257.902 365.122 258.899C366.222 256.723 367.337 254.553 368.475 252.392ZM364.672 259.79C373.59 261.25 383.21 260.606 392.199 260.85C401.848 261.113 411.496 261.398 421.143 261.709C424.172 267.722 427.201 273.734 430.23 279.746C405.565 280.152 380.894 279.808 356.234 280.174C356.084 280.075 355.925 280.093 355.801 280.179C355.474 280.184 355.147 280.186 354.82 280.191C358.026 273.355 361.273 266.54 364.672 259.79ZM346.513 297.94C347.35 296.165 348.18 294.388 349.011 292.612C350.324 294.492 351.89 296.261 353.553 297.854C351.205 297.867 348.858 297.891 346.513 297.94ZM354.825 297.85C352.898 295.926 351.127 293.919 349.373 291.839C350.254 289.954 351.135 288.071 352.015 286.187C354.862 290.389 358.091 294.502 361.883 297.877C359.53 297.86 357.177 297.842 354.825 297.85ZM362.978 297.881C362.997 297.758 362.967 297.625 362.85 297.505C359.099 293.618 355.511 289.788 352.405 285.354C353.051 283.972 353.696 282.588 354.343 281.207C354.927 281.229 355.511 281.24 356.095 281.26C360.803 286.609 364.913 292.298 369.22 297.956C367.139 297.927 365.058 297.899 362.978 297.881ZM370.539 297.972C370.54 297.873 370.523 297.768 370.457 297.655C366.964 291.715 362.223 286.225 357.37 281.298C359.982 281.384 362.596 281.447 365.21 281.504C368.7 287.376 372.836 292.883 377.259 298.088C375.019 298.048 372.779 298.006 370.539 297.972ZM378.975 298.117C378.968 298.109 378.968 298.1 378.961 298.092C374.379 292.822 370.269 287.258 366.289 281.532C368.618 281.58 370.948 281.612 373.278 281.64C377.43 287.348 381.774 292.993 386.499 298.237C383.991 298.197 381.484 298.162 378.975 298.117ZM392.926 298.341C391.243 298.32 389.556 298.286 387.872 298.26C387.859 298.156 387.828 298.05 387.746 297.952C383.265 292.55 378.755 287.205 374.456 281.658C376.947 281.685 379.439 281.678 381.931 281.685C386.896 287.095 391.463 292.761 396.178 298.373C395.094 298.362 394.009 298.354 392.926 298.341ZM397.603 298.387C393.416 292.426 388.351 286.866 383.209 281.69C386.147 281.696 389.087 281.68 392.025 281.666C392.034 281.714 392.054 281.762 392.089 281.808C396.382 287.558 400.884 293.203 405.777 298.459C403.052 298.436 400.328 298.415 397.603 298.387ZM407.33 298.472C407.304 298.403 407.268 298.334 407.211 298.269C402.371 292.818 397.57 287.374 393.038 281.662C395.825 281.646 398.612 281.621 401.399 281.592C401.415 281.633 401.434 281.673 401.467 281.712C406.219 287.29 410.837 293.034 415.665 298.544C412.886 298.518 410.108 298.495 407.33 298.472ZM417.22 298.561C412.858 292.549 407.662 286.864 402.426 281.584C405.225 281.554 408.021 281.509 410.819 281.469C415.038 287.461 419.774 293.311 424.82 298.655C422.287 298.621 419.754 298.585 417.22 298.561ZM426.608 298.677C421.69 292.972 416.827 287.258 412.029 281.453C415.057 281.409 418.078 281.355 421.104 281.306C420.829 281.372 420.629 281.751 420.861 282.05C425.296 287.778 430.051 293.275 434.717 298.821C432.014 298.765 429.311 298.716 426.608 298.677ZM436.602 298.864C431.602 293.027 426.7 287.07 421.479 281.432C421.405 281.352 421.326 281.318 421.247 281.304C424.477 281.252 427.71 281.203 430.936 281.147C433.924 287.078 436.909 293.01 439.9 298.939C438.8 298.909 437.701 298.888 436.602 298.864Z" />
<path d="M430.494 208.111C430.42 208.049 430.338 207.996 430.262 207.936C430.199 207.763 430.066 207.613 429.843 207.517C429.659 207.438 429.474 207.36 429.29 207.281C427.787 206.411 426.01 205.879 424.451 205.221C423.318 204.743 422.33 206.406 423.474 206.892C423.539 206.919 423.63 206.95 423.709 206.98C423.708 206.983 423.706 206.987 423.705 206.99C424.424 207.283 425.145 207.571 425.865 207.862C418.884 209.189 412.622 212.899 408.419 218.834C407.937 219.515 409.054 220.39 409.585 219.734C414.446 213.727 420.947 209.872 428.677 209.273C428.544 209.486 428.142 209.755 427.448 210.086C426.625 210.809 425.824 211.556 425.047 212.328C424.172 213.171 425.464 214.417 426.365 213.646C427.764 212.45 430.353 211.032 430.745 209.06C430.809 208.735 430.767 208.341 430.494 208.111Z" />
<path d="M454.165 257.987C452.577 256.833 450.989 255.679 449.401 254.525C448.455 253.838 447.541 255.27 448.22 256.056C448.624 256.524 449.033 256.926 449.453 257.306C442.521 257.504 435.901 260.35 431.229 265.662C430.647 266.323 431.557 267.255 432.202 266.636C437.555 261.494 444.08 258.81 451.442 259.221C450.348 260.067 449.349 260.993 448.395 262.087C447.571 263.033 448.95 264.422 449.779 263.471C451.081 261.975 452.486 260.746 454.166 259.674C454.824 259.253 454.76 258.419 454.165 257.987Z" />
<path d="M366.933 240.815C364.467 234.559 358.788 230.437 352.308 229.711C352.899 229.535 353.493 229.365 354.092 229.199C355.258 228.877 354.764 227.164 353.596 227.402C351.361 227.856 349.252 228.564 347.142 229.417C346.424 229.707 346.211 230.449 346.709 231.058C348.008 232.65 349.438 233.976 351.086 235.196C351.977 235.855 352.774 234.629 352.434 233.848C352.055 232.98 351.634 232.252 351.132 231.576C357.387 231.899 362.766 235.637 365.556 241.396C365.922 242.154 367.248 241.614 366.933 240.815Z" />
<path d="M345.266 285.719C340.189 280.295 332.641 280.875 325.88 282.051C327.767 281.146 329.651 280.233 331.509 279.271C332.6 278.706 331.643 277.162 330.56 277.648C327.515 279.017 324.525 280.512 321.519 281.964C320.708 282.356 321.007 283.523 321.755 283.766C324.147 284.545 326.331 285.559 328.473 286.864C329.408 287.434 330.538 286.052 329.668 285.315C328.946 284.704 328.223 284.199 327.469 283.759C333.397 282.804 339.151 282.708 344.26 286.725C344.963 287.278 345.909 286.406 345.266 285.719Z" />
<path d="M375.189 253.831C373.67 253.784 372.146 253.838 370.627 253.858C370.124 253.865 370.124 254.633 370.627 254.639C372.146 254.659 373.67 254.713 375.189 254.666C375.726 254.65 375.727 253.847 375.189 253.831Z" />
<path d="M385.829 254.401C383.653 254.175 381.438 253.987 379.251 253.937C378.954 253.93 378.872 254.417 379.179 254.469C381.371 254.835 383.616 255.071 385.829 255.259C386.383 255.306 386.371 254.457 385.829 254.401Z" />
<path d="M394.45 254.33C392.766 254.359 391.06 254.314 389.381 254.454C388.993 254.486 388.993 255.025 389.381 255.057C391.06 255.197 392.765 255.152 394.45 255.181C394.997 255.19 394.998 254.32 394.45 254.33Z" />
<path d="M404.588 254.33C402.733 254.289 400.866 254.313 399.012 254.403C398.559 254.425 398.559 255.085 399.012 255.107C400.866 255.197 402.732 255.221 404.588 255.18C405.135 255.169 405.136 254.342 404.588 254.33Z" />
<path d="M414.219 254.744C412.396 254.588 410.472 254.702 408.643 254.779C408.021 254.805 408.02 255.72 408.643 255.746C410.471 255.823 412.396 255.937 414.219 255.781C414.884 255.724 414.886 254.801 414.219 254.744Z" />
<path d="M380.758 248.736C378.725 248.915 376.754 248.86 374.755 248.417C374.257 248.306 374.043 249.061 374.543 249.185C376.624 249.702 378.742 249.856 380.866 249.534C381.315 249.466 381.214 248.696 380.758 248.736Z" />
<path d="M391.408 249.312C389.045 249.243 386.675 249.31 384.312 249.328C383.849 249.331 383.848 250.044 384.312 250.047C386.676 250.064 389.045 250.132 391.408 250.062C391.89 250.048 391.891 249.326 391.408 249.312Z" />
<path d="M400.025 250.233C398.338 250.198 396.643 250.293 394.956 250.333C394.483 250.344 394.483 251.057 394.956 251.068C396.642 251.108 398.338 251.204 400.025 251.169C400.627 251.156 400.628 250.245 400.025 250.233Z" />
<path d="M407.629 250.159C406.935 250.146 406.179 250.173 405.501 250.335C405.14 250.421 405.14 250.98 405.501 251.066C406.179 251.228 406.935 251.255 407.629 251.242C408.326 251.229 408.327 250.172 407.629 250.159Z" />
<path d="M383.903 243.808C381.696 243.494 379.447 243.365 377.222 243.243C376.876 243.224 376.786 243.811 377.139 243.858C379.345 244.156 381.576 244.461 383.8 244.568C384.227 244.588 384.339 243.87 383.903 243.808Z" />
<path d="M394.447 244.769C392.085 244.575 389.725 244.38 387.361 244.212C386.91 244.18 386.923 244.862 387.361 244.908C389.721 245.156 392.084 245.375 394.447 245.596C394.975 245.645 394.976 244.812 394.447 244.769Z" />
<path d="M404.727 244.618C403.229 244.328 401.54 244.545 400.025 244.619C399.373 244.65 399.372 245.6 400.025 245.632C401.541 245.705 403.229 245.923 404.727 245.633C405.229 245.535 405.229 244.715 404.727 244.618Z" />
<path d="M410.672 245.102C409.66 245.076 408.643 245.126 407.631 245.144C407.004 245.156 407.003 246.107 407.631 246.119C408.643 246.137 409.66 246.187 410.672 246.162C411.353 246.144 411.354 245.119 410.672 245.102Z" />
<path d="M385.834 237.584C384.151 237.539 382.443 237.528 380.765 237.685C380.323 237.726 380.322 238.332 380.765 238.373C382.442 238.529 384.151 238.519 385.834 238.474C386.406 238.458 386.407 237.599 385.834 237.584Z" />
<path d="M397.493 238.555C395.325 238.418 393.072 238.536 390.904 238.656C390.407 238.683 390.406 239.402 390.904 239.429C393.072 239.548 395.326 239.667 397.493 239.53C398.119 239.49 398.121 238.595 397.493 238.555Z" />
<path d="M407.312 239.382C405.577 238.773 403.713 238.748 401.918 239.074C401.333 239.18 401.46 240.191 402.06 240.122C403.759 239.926 405.34 240.133 406.983 240.575C407.761 240.785 408.057 239.644 407.312 239.382Z" />
<path d="M206.046 149.037C205.981 148.952 205.905 148.891 205.826 148.843C205.789 148.682 205.665 148.549 205.441 148.552C203.095 148.594 200.612 149.837 199.595 152.027C198.716 153.92 199.394 156.335 201.122 157.521C203.039 158.836 205.273 157.8 206.415 155.979C207.756 153.842 207.559 151.022 206.046 149.037ZM205.671 153.945C205.185 155.733 203.209 157.599 201.595 155.788C199.212 153.114 202.34 150.828 204.732 149.721C204.746 149.743 204.746 149.764 204.763 149.786C205.666 150.979 206.071 152.471 205.671 153.945Z" />
<path d="M225.564 131.258C215.768 123.185 199.72 123.516 189.614 130.807C178.996 138.468 174.918 154.879 179.471 166.956C184.157 179.384 200.074 186.557 210.386 175.905C211.252 175.011 209.888 173.643 209.019 174.538C203.844 179.866 195.866 180.524 189.591 176.682C183.38 172.879 180.144 165.644 179.719 158.584C178.911 145.155 186.106 131.854 199.586 128.311C212.815 124.834 230.128 130.433 230.509 146.18C230.652 152.075 228.954 159.319 225.457 164.163C219.956 171.783 208.296 169.114 207.482 159.416C207.468 159.252 207.4 159.129 207.312 159.029C207.467 158.31 206.505 157.735 205.895 158.289C204.173 159.853 202.149 161.573 199.63 161.352C195.107 160.955 195.029 155.812 195.458 152.45C195.785 149.887 196.46 147.315 198.187 145.323C201.058 142.011 207.477 141.292 208.185 147.213C208.298 148.16 209.633 148.204 209.693 147.213C209.937 143.227 206.385 140.329 202.487 140.754C197.363 141.314 194.553 146.269 193.694 150.859C192.93 154.938 192.772 160.835 197.312 162.801C200.313 164.101 204.035 162.877 206.242 160.542C207.228 171.111 220.693 173.549 226.818 165.213C233.709 155.833 235.21 139.206 225.564 131.258Z" />
<path d="M223.093 137.664C216.737 130.278 204.212 130.594 196.404 135.136C187.732 140.18 183.698 150.821 186.039 160.476C188.288 169.752 197.523 177.178 206.831 171.603C207.256 171.348 207.338 170.948 207.227 170.599C207.916 170.778 208.522 171.17 208.918 171.785C209.387 172.514 209.373 173.261 209.3 174.085C209.225 174.928 210.414 174.953 210.675 174.271C211.551 171.983 209.222 169.501 207.015 169.425C206.705 169.415 206.512 169.674 206.479 169.943C206.301 169.914 206.109 169.922 205.907 170.02C195.668 174.981 187.766 165.7 187.358 155.899C187.039 148.23 190.682 140.729 197.393 136.826C203.64 133.192 212.011 132.691 218.366 136.379C225.865 140.73 227.19 156.33 219.387 161.381C219.193 161.507 219.157 161.696 219.209 161.859C218.844 162.098 218.468 162.283 218.105 162.356C214.376 163.107 212.984 159.29 213.652 156.667C214.018 155.229 215.136 153.962 215.961 152.764C217.165 151.015 219.06 148.428 218.427 146.118C217.297 141.992 211.925 143.429 209.861 145.75C209.606 146.036 209.841 146.559 210.247 146.444C210.425 146.37 212.68 145.557 212.35 145.61C214.012 144.48 215.453 145.252 216.671 147.925C216.409 148.488 216.147 149.051 215.885 149.614C215.021 151.176 213.798 152.513 212.88 154.041C211.709 155.99 210.913 158.294 211.793 160.523C213.583 165.058 219.709 165.153 221.963 161.067C222.045 160.919 222.054 160.764 222.019 160.62C227.874 155.386 227.952 143.311 223.093 137.664Z" />
<path d="M210.26 146.441C210.254 146.443 210.249 146.442 210.244 146.443C210.224 146.451 210.223 146.453 210.26 146.441Z" />
<path d="M51.4955 175.497C51.4175 171.65 51.2905 167.803 51.1885 163.957C51.0995 160.604 52.4495 154.059 48.7705 152.055C46.4315 150.781 42.5585 151.199 40.0425 151.062C36.5555 150.873 33.0665 150.731 29.5755 150.634C23.8715 150.476 18.2055 150.231 13.0535 153.024C12.6105 153.264 12.5115 153.672 12.6125 154.041C12.5175 154.124 12.4395 154.23 12.4125 154.382C11.1795 161.293 10.8765 168.351 11.0905 175.361C11.2535 180.696 11.5935 182.289 16.9215 183.507C23.3565 184.979 30.4375 184.555 36.9875 184.45C40.7125 184.391 48.0915 185.552 50.6755 181.834C51.9045 180.066 51.5355 177.475 51.4955 175.497ZM47.4825 154.198C48.0865 154.649 48.6195 155.299 49.0455 156.264C49.8425 158.07 49.2035 161.958 49.2595 163.957L49.4195 169.727C49.4805 171.918 50.2225 175.326 49.6335 177.421C49.4855 177.949 49.2725 178.408 49.0325 178.838C45.7345 174.598 42.3055 170.438 38.7855 166.39C38.7035 166.296 38.6055 166.253 38.5035 166.23C41.4515 162.315 44.3965 158.398 47.3385 154.479C47.4085 154.384 47.4525 154.29 47.4825 154.198ZM41.9445 153.118C43.2435 153.194 44.5455 153.146 45.7195 153.413C45.6955 153.439 45.6705 153.461 45.6485 153.49C43.4415 156.419 41.2335 159.347 39.0305 162.279C37.2935 164.591 34.4345 170.869 30.9785 169.73C29.6685 169.298 27.8945 166.671 26.9595 165.748C25.6175 164.424 24.2765 163.097 22.9245 161.783C20.3135 159.245 17.6815 156.727 15.0035 154.26C22.8335 150.766 33.7475 152.639 41.9445 153.118ZM13.0265 175.36C12.7445 173.542 12.9435 171.525 12.9655 169.678C13.0215 164.785 13.4305 159.922 13.7975 155.046C17.4235 158.927 21.1605 162.704 24.9185 166.456C25.4895 167.026 26.3155 168.072 27.2585 169.169C23.2325 172.994 19.2195 176.549 14.7975 179.899C13.9145 178.903 13.3535 177.471 13.0265 175.36ZM33.1305 182.553C28.9295 182.549 24.6265 182.612 20.4455 182.116C18.4885 181.884 16.9955 181.524 15.8625 180.805C20.4235 177.995 24.8725 174.426 28.4295 170.475C29.7885 171.913 31.2585 173.144 32.5115 173.149C34.6065 173.157 36.4295 168.984 37.4215 167.667C37.5535 167.492 37.6845 167.317 37.8165 167.142C41.0415 171.617 44.4025 176.034 47.8775 180.328C44.3715 183.546 37.2515 182.556 33.1305 182.553Z" />
<path d="M128.241 156.092C128.261 155.448 127.762 155.144 127.263 155.159C127.253 155.152 127.244 155.144 127.234 155.137C127.11 154.793 126.775 154.525 126.415 154.523C125.241 153.608 124.143 152.609 123.063 151.579C122.823 151.351 122.539 151.35 122.313 151.468C122.731 145.295 123.55 139.178 124.921 133.081C125.048 132.517 124.651 131.834 124.004 131.878C112.387 132.655 100.808 132.478 89.2272 131.264C88.7002 131.209 88.2642 131.753 88.2582 132.233C88.1722 138.685 88.1122 145.167 88.3772 151.624C87.1112 152.421 86.0832 153.73 85.3922 155.002C85.1542 155.053 84.9582 155.236 84.9692 155.578C85.1322 160.576 85.4702 165.557 85.8492 170.542C86.0882 173.688 85.4572 178.694 87.3062 181.457C88.3312 182.989 89.9822 183.325 91.6482 183.621C96.4832 184.479 101.951 183.992 106.85 183.988C111.72 183.984 117.25 184.512 122.045 183.612C123.766 183.289 125.187 182.891 126.287 181.39C128.106 178.909 127.607 174.834 127.703 172.016C127.886 166.708 128.081 161.401 128.241 156.092ZM125.534 155.086C124.377 156.261 123.196 157.407 122 158.534C122.04 156.56 122.121 154.594 122.238 152.633C123.228 153.595 124.342 154.403 125.534 155.086ZM91.1532 133.407C92.4372 133.537 93.7222 133.653 95.0082 133.755C104.272 134.495 113.561 134.501 122.829 133.856C121.031 142.559 120.009 151.372 120.13 160.272C117.669 162.524 115.155 164.718 112.62 166.905C112.51 167 112.462 167.117 112.443 167.237C111.2 165.641 109.544 163.459 107.844 163.524C105.92 163.598 103.272 166.463 101.282 168.62C97.7222 164.835 93.9062 161.101 89.9832 157.627C89.9832 157.623 89.9852 157.62 89.9852 157.616C90.0272 155.621 90.0352 153.625 90.0362 151.629C90.0662 151.528 90.0662 151.421 90.0362 151.325C90.0362 148.215 90.0142 145.105 90.0372 141.997C90.0502 140.201 89.8112 137.91 90.1112 136.139C89.6312 134.811 89.9792 133.901 91.1532 133.407ZM86.0812 155.266C86.5222 154.63 87.0122 154.036 87.5862 153.511C87.8532 153.267 88.1392 153.058 88.4302 152.857C88.4882 154.059 88.5532 155.26 88.6372 156.459C88.1202 156.012 87.6072 155.549 87.0872 155.113C86.7052 154.793 86.2542 155.034 86.1632 155.394C86.1432 155.345 86.1112 155.306 86.0812 155.266ZM88.0022 174.283C87.5032 168.124 87.0102 161.969 86.2522 155.836C86.2682 155.86 86.2742 155.884 86.2942 155.907C90.5252 160.793 95.2702 165.55 100.065 169.912C99.8482 170.134 99.6442 170.337 99.4652 170.498C96.2772 173.359 92.8372 176.123 89.8662 179.239C88.0432 177.628 88.2182 176.944 88.0022 174.283ZM120.667 181.758C119.511 182.209 117.051 181.888 115.734 181.923C112.444 182.011 109.154 182.052 105.864 182.047C102.903 182.042 99.9412 182.001 96.9812 181.922C93.9642 181.842 93.4422 182.048 91.1512 180.288C95.9742 176.475 99.9672 171.507 105.035 168.095C107.444 166.473 108.275 166.599 110.701 168.356C112.137 169.396 113.356 171.214 114.539 172.509C117.079 175.288 119.532 178.152 122.123 180.882C121.636 181.261 121.142 181.573 120.667 181.758ZM125.615 175.996C125.353 177.089 124.489 178.479 123.43 179.648C123.42 179.635 123.419 179.62 123.408 179.607C120.242 175.71 116.778 172.036 113.361 168.358C113.269 168.259 113.172 168.146 113.071 168.025C113.183 168.029 113.298 168.01 113.41 167.93C116.165 165.964 118.769 163.79 121.282 161.514C121.567 161.448 121.807 161.259 121.904 160.945C123.386 159.582 124.845 158.194 126.261 156.769C126.148 159.86 126.048 162.951 125.945 166.042C125.844 169.095 126.328 173.019 125.615 175.996Z" />
<path d="M115.03 156.215C108.963 156.648 102.661 157.277 96.6753 158.364C96.3033 158.432 96.3943 159.025 96.7643 159.017C102.798 158.897 109.045 158.264 115.031 157.491C115.82 157.389 115.867 156.155 115.03 156.215Z" />
<path d="M114.899 150.802C108.668 151.806 102.56 152.202 96.2562 152.095C95.7792 152.087 95.8002 152.775 96.2562 152.822C102.583 153.471 109.002 153.215 115.271 152.152C116.16 152.001 115.78 150.66 114.899 150.802Z" />
<path d="M115.688 145.249C115.574 145.168 115.46 145.087 115.346 145.006C114.699 144.546 113.968 145.548 114.512 146.087C113.397 144.98 107.254 145.809 105.774 145.791C102.434 145.751 99.0776 145.622 95.7396 145.745C95.2266 145.764 95.2386 146.491 95.7396 146.534C100.862 146.97 106.04 146.975 111.177 147.166C112.636 147.22 115.591 148.074 116.021 146.065C116.093 145.725 115.964 145.445 115.688 145.249Z" />
<path d="M116.021 139.635C109.309 139.624 102.435 139.384 95.7459 139.941C95.1899 139.987 95.1879 140.761 95.7459 140.807C102.435 141.363 109.308 141.123 116.021 141.112C116.971 141.111 116.973 139.637 116.021 139.635Z" />
<path d="M80.636 166.739C78.657 165.35 76.678 163.961 74.7 162.572C73.651 161.835 72.71 163.528 73.706 164.272C75.073 165.293 76.44 166.314 77.807 167.335C71.662 167.37 65.205 166.863 59.123 167.779C58.671 167.847 58.674 168.618 59.123 168.689C64.475 169.531 70.135 169.269 75.61 169.246C74.812 169.972 73.966 170.638 73.029 171.246C71.972 171.931 72.889 173.466 74.009 172.923C76.426 171.752 78.49 170.338 80.467 168.55C81.077 168.278 81.376 167.258 80.636 166.739Z" />
<path d="M249.84 339.707C249.835 339.704 249.831 339.705 249.827 339.702C245.15 335.639 238.323 334.119 231.021 334.439C224.733 334.715 220.674 336.555 216.99 341.749C212.908 347.503 210.444 353.068 213.156 360.047C213.823 361.763 214.719 363.347 215.788 364.789C218.156 368.91 221.427 372.474 225.729 374.607C232.344 377.886 242.396 378.135 249.029 374.839C263.477 367.66 263.305 347.7 249.84 339.707ZM216.997 345.287C220.743 339.367 224.567 336.601 231.728 336.382C241.932 336.069 251.806 339.371 253.682 350.627C254.538 355.758 254.674 361.827 251.364 366.108C248.244 370.144 243.778 371.477 239.075 371.829C238.932 371.701 238.737 371.623 238.496 371.666C237.733 371.803 236.962 371.883 236.19 371.936C235.685 371.938 235.18 371.936 234.676 371.927C234.56 371.925 234.455 371.947 234.362 371.987C227.021 371.889 219.771 368.176 216.081 361.632C212.95 356.08 213.687 350.52 216.997 345.287ZM245.874 374.633C239.63 376.619 230.82 376.038 225.125 372.775C223.825 372.03 222.654 371.146 221.582 370.165C225.492 372.657 230.162 373.942 234.818 373.625C240.884 374.483 247.543 373.135 251.913 368.562C256.162 364.116 256.508 357.855 255.872 352.02C255.576 349.306 254.876 346.967 253.871 344.939C261.988 354.394 259.258 370.375 245.874 374.633Z" />
<path d="M296.992 399.967C296.987 399.964 296.983 399.965 296.979 399.962C292.302 395.899 285.475 394.379 278.173 394.699C271.885 394.975 267.827 396.815 264.142 402.009C260.06 407.763 257.596 413.328 260.308 420.307C260.975 422.023 261.871 423.607 262.94 425.049C265.308 429.17 268.579 432.734 272.881 434.867C279.496 438.147 289.548 438.395 296.181 435.099C310.629 427.921 310.457 407.961 296.992 399.967ZM264.149 405.548C267.895 399.628 271.719 396.862 278.88 396.643C289.084 396.33 298.958 399.632 300.834 410.888C301.689 416.019 301.825 422.088 298.516 426.369C295.396 430.405 290.93 431.738 286.227 432.09C286.084 431.962 285.889 431.884 285.648 431.927C284.885 432.064 284.114 432.144 283.342 432.197C282.837 432.2 282.332 432.198 281.828 432.188C281.712 432.186 281.607 432.208 281.514 432.248C274.173 432.15 266.923 428.437 263.233 421.893C260.101 416.341 260.838 410.78 264.149 405.548ZM293.026 434.893C286.782 436.88 277.972 436.298 272.277 433.035C270.977 432.29 269.806 431.406 268.734 430.425C272.644 432.917 277.314 434.202 281.97 433.885C288.036 434.743 294.696 433.395 299.065 428.822C303.313 424.375 303.66 418.115 303.024 412.28C302.728 409.566 302.028 407.227 301.023 405.2C309.139 414.654 306.41 430.635 293.026 434.893Z" />
<path d="M196.415 406.127C196.41 406.124 196.406 406.125 196.401 406.122C191.724 402.059 184.897 400.539 177.595 400.859C171.307 401.135 167.248 402.975 163.564 408.169C159.482 413.923 157.018 419.488 159.73 426.467C160.397 428.183 161.293 429.767 162.362 431.209C164.73 435.33 168.001 438.894 172.303 441.027C178.918 444.307 188.97 444.555 195.603 441.259C210.052 434.08 209.88 414.121 196.415 406.127ZM163.572 411.708C167.318 405.788 171.142 403.023 178.303 402.803C188.507 402.49 198.381 405.792 200.257 417.048C201.112 422.179 201.249 428.248 197.939 432.529C194.819 436.565 190.353 437.898 185.65 438.25C185.507 438.122 185.312 438.044 185.071 438.087C184.307 438.224 183.537 438.303 182.765 438.357C182.26 438.359 181.755 438.357 181.251 438.348C181.135 438.346 181.03 438.368 180.937 438.409C173.596 438.311 166.346 434.598 162.656 428.054C159.524 422.5 160.261 416.94 163.572 411.708ZM192.449 441.053C186.205 443.04 177.395 442.458 171.7 439.195C170.4 438.45 169.229 437.566 168.157 436.585C172.067 439.077 176.737 440.362 181.393 440.045C187.459 440.903 194.118 439.555 198.488 434.982C202.737 430.535 203.083 424.274 202.447 418.44C202.151 415.726 201.451 413.387 200.446 411.36C208.562 420.814 205.833 436.795 192.449 441.053Z" />
<path d="M198.912 371.36C198.475 371.434 198.038 371.508 197.601 371.581C197.487 371.573 197.366 371.585 197.236 371.629C197.201 371.641 197.168 371.648 197.133 371.66C195.323 371.964 193.513 372.268 191.704 372.576C190.6 372.764 190.876 374.525 191.965 374.507C192.887 374.492 193.773 374.411 194.648 374.273C191.089 378.215 187.52 382.157 184.133 386.244C183.509 386.997 184.517 388.062 185.227 387.338C189.538 382.936 193.626 378.307 197.754 373.733C197.528 374.542 197.303 375.351 197.077 376.16C196.737 377.38 198.631 377.9 198.971 376.682C199.354 375.311 199.738 373.941 200.121 372.57C200.34 371.791 199.625 371.24 198.912 371.36Z" />
<path d="M279.201 378.009C279.08 376.757 277.106 376.744 277.229 378.009C277.35 379.265 277.644 381.924 277.054 383.435C272.32 378.323 267.631 373.147 262.683 368.245C261.945 367.513 260.897 368.601 261.556 369.371C265.881 374.431 270.473 379.275 275.018 384.143C273.551 383.852 272.143 383.408 270.721 382.746L270.72 382.748C270.643 382.715 270.553 382.673 270.486 382.647C269.454 382.25 268.718 383.975 269.728 384.445C269.806 384.481 269.885 384.507 269.964 384.542L269.963 384.544C271.836 385.265 275.499 387.665 277.567 386.458C277.581 386.459 277.594 386.462 277.608 386.463C278.241 386.504 278.592 385.936 278.552 385.394C279.654 383.387 279.365 379.718 279.201 378.009Z" />
<path d="M249.367 425.312C242.058 424.989 234.755 425.179 227.461 425.679C229.087 424.934 230.727 424.221 232.397 423.561C233.563 423.099 233.055 421.191 231.873 421.659C228.709 422.911 225.632 424.291 222.598 425.833C221.919 426.178 221.996 427.171 222.598 427.536C224.969 428.972 227.383 430.252 229.901 431.407C230.825 431.831 232.037 430.614 231.092 429.863C230.137 429.104 229.182 428.346 228.227 427.587C235.27 427.129 242.304 427.006 249.368 427.106C250.526 427.123 250.517 425.363 249.367 425.312Z" />
<path d="M385.652 366.816C386.483 363.849 387.039 360.618 387.044 357.51C387.225 357.441 387.385 357.318 387.481 357.099C387.538 356.969 387.594 356.84 387.651 356.71C387.828 356.304 387.829 355.859 387.498 355.526C386.385 354.405 385.346 354.606 383.762 354.6C380.204 354.585 376.646 354.606 373.089 354.609C365.65 354.615 358.211 354.621 350.772 354.628C350.253 354.628 349.767 355.08 349.786 355.614C350.177 366.588 350.479 377.57 351.006 388.539C351.027 388.979 351.29 389.256 351.611 389.375C351.103 389.903 351.317 391.027 352.269 391.029C355.986 391.037 359.703 391.06 363.42 391.041C364.396 391.036 364.603 389.871 364.059 389.348C364.13 389.212 364.146 389.046 364.068 388.858C362.532 385.137 363.608 380.205 367.531 378.389C374.492 375.165 374.103 386.334 374.116 390.063C374.119 390.863 375.144 391.18 375.636 390.724C377.803 390.9 379.98 390.953 382.153 390.995C383.414 391.019 385.606 391.494 386.637 390.445C387.624 389.441 387.202 387.374 387.203 386.151C387.205 383.908 387.214 381.665 387.204 379.422C387.204 379.367 387.181 379.329 387.174 379.279C392.163 380.307 399.034 378.914 398.959 372.643C398.878 365.873 390.507 365.745 385.652 366.816ZM385.941 377.657C385.206 377.552 384.881 378.464 385.488 378.799C385.348 378.953 385.247 379.153 385.247 379.422C385.244 381.104 385.255 382.787 385.261 384.469C385.265 385.462 385.694 388.241 385.041 388.904C384.354 389.602 381.406 389.17 380.384 389.192C378.929 389.223 377.476 389.278 376.025 389.377C376.695 384.118 375.264 374.33 368.128 376.13C362.718 377.495 359.965 384.307 362.619 389.091C359.312 389.079 356.004 389.094 352.697 389.102C352.81 388.957 352.891 388.779 352.885 388.539C352.758 383.051 352.538 377.563 352.344 372.077C352.241 369.161 350.317 358.267 352.711 356.599C353.937 355.745 358.908 356.594 360.473 356.592C363.06 356.59 365.648 356.588 368.235 356.586C369.628 356.585 382.719 357.389 385.286 356.618C384.962 359.965 384.719 363.272 384.217 366.605C384.17 366.92 384.301 367.169 384.496 367.326C384.104 367.915 384.608 368.914 385.521 368.765C388.99 368.2 396.806 366.929 397 372.643C397.198 378.415 389.691 378.192 385.941 377.657Z" />
<path d="M427.803 355.314C427.195 354.702 426.705 354.787 425.941 354.598C422.762 353.814 418.373 354.603 415.062 354.608C407.48 354.618 399.896 354.583 392.314 354.662C391.704 354.668 391.401 355.142 391.404 355.613C391.313 355.687 391.24 355.789 391.214 355.939C390.793 358.401 390.943 361 391.443 363.441C391.515 363.795 391.744 363.973 392.007 364.035C392.058 364.064 392.111 364.092 392.178 364.104C396.636 364.896 402.524 366.121 404.194 371.038C406.439 377.65 399.087 381.081 393.823 381.082C393.691 381.082 393.579 381.111 393.477 381.15C393.277 380.758 392.615 380.859 392.485 381.288C391.651 384.031 391.749 387.166 391.563 390.013C391.53 390.511 392.016 390.952 392.495 390.945C395.991 390.893 399.541 390.749 403.04 390.472C401.529 395.088 403.975 400.744 408.646 402.511C416.198 405.367 418.137 396.093 417.612 390.391C420.138 390.757 422.711 391.028 425.25 391.109C425.665 391.122 425.919 390.915 426.036 390.64C426.101 390.654 426.167 390.667 426.233 390.668C426.519 390.823 426.736 390.691 426.902 390.421C426.921 390.408 426.941 390.394 426.96 390.381C427.36 390.103 427.589 389.557 427.331 389.098C427.407 388.734 427.461 388.427 427.513 388.329C428.015 387.387 427.62 383.502 427.644 382.42C427.717 379.137 427.789 375.854 427.862 372.572C427.949 368.633 428.036 364.693 428.124 360.754C428.152 359.452 428.893 356.411 427.803 355.314ZM426.129 361.737C425.991 367.974 425.853 374.212 425.715 380.449C425.657 383.067 425.008 386.201 425.22 388.747C425.239 388.976 425.218 389.143 425.201 389.302C422.597 389.017 419.928 388.922 417.302 388.939C416.804 388.342 415.469 388.642 415.578 389.569C416.075 393.774 415.32 404.222 408.389 400.231C404.959 398.256 403.716 393.882 404.847 390.251C405.465 389.94 405.542 389.065 405.057 388.673C404.829 388.346 404.384 388.204 404.043 388.48C400.54 388.524 396.99 388.722 393.492 389.004C393.634 387.001 393.839 384.924 393.712 382.918C393.752 382.925 393.782 382.944 393.825 382.946C399.964 383.282 407.029 379.325 406.365 372.332C405.737 365.718 398.823 363.441 393.136 362.964C392.682 360.81 392.533 358.729 392.476 356.55C399.016 356.608 405.557 356.575 412.097 356.575C415.064 356.575 418.031 356.575 420.998 356.574C421.672 356.574 425.473 356.033 425.943 356.571C426.73 357.472 426.152 360.687 426.129 361.737Z" />
<path d="M385.935 406.132C386.7 406.295 387.135 405.564 386.958 405.002C387.123 402.071 387.119 399.121 387.118 396.187C387.118 395.681 386.692 395.264 386.189 395.258C382.486 395.217 378.783 395.19 375.079 395.166C374.892 395.165 374.742 395.217 374.611 395.291C375.552 391.92 371.69 388.799 368.404 389.265C364.142 389.87 362.186 394.142 363.161 397.946C359.471 397.727 355.756 397.706 352.063 397.718C351.969 397.452 351.892 397.179 351.782 396.92C351.692 396.709 351.359 396.782 351.309 396.982C351.235 397.275 351.171 397.571 351.112 397.87C350.662 398.165 350.586 398.845 350.896 399.277C350.355 403.79 351.207 408.775 351.138 413.231C351.045 419.271 350.594 425.282 349.872 431.279C349.81 431.795 350.373 432.281 350.856 432.263C362.476 431.829 374.102 431.473 385.718 430.946C386.663 430.903 386.892 429.785 386.397 429.267C386.735 426.636 387.697 421.884 385.228 420.718C384.766 420.5 384.144 420.724 383.682 420.609C381.039 419.952 378.969 419.227 377.738 416.793C374.759 410.905 379.607 404.787 385.935 406.132ZM375.032 413.938C375.306 416.738 376.742 419.545 379.113 421.149C380.535 422.111 381.816 421.819 383.227 422.398C384.351 422.859 384.677 423.001 384.983 424.738C385.208 426.017 385.1 427.602 385.081 429.027C379.482 429.197 373.885 429.433 368.288 429.643C365.06 429.764 361.832 429.885 358.604 430.006C356.13 430.099 352.574 431.243 352.171 428.441C351.805 425.895 352.73 422.481 352.873 419.897C353.031 417.043 353.114 414.185 353.119 411.327C353.126 407.595 353.434 403.408 352.614 399.649C356.314 399.659 360.033 399.63 363.725 399.389C364.268 400.044 365.623 399.419 365.282 398.514C364.196 395.628 364.849 392.02 368.25 391.134C371.576 390.268 373.364 393.139 373.325 396.04C373.319 396.492 373.923 396.668 374.177 396.321C374.25 396.732 374.541 397.099 375.08 397.101C378.478 397.112 381.875 397.119 385.273 397.116C385.303 399.493 385.347 401.877 385.487 404.251C379.711 403.13 374.442 407.917 375.032 413.938Z" />
<path d="M428.064 418.228C428.305 411.219 428.464 404.175 428.212 397.165C428.19 396.555 427.714 396.252 427.246 396.256C427.308 395.986 427.123 395.662 426.776 395.624C424.447 395.367 421.769 395.529 419.46 395.922C418.786 396.037 418.701 396.799 419.019 397.268C419.331 402.301 416.293 407.363 410.772 407.63C404.732 407.922 400.772 402.635 401.599 396.917C401.766 395.761 400.04 395.223 399.802 396.422C399.801 396.429 399.8 396.435 399.799 396.442C398.736 396.144 397.627 396.262 396.519 396.266C395.143 396.271 393.77 396.256 392.395 396.217C391.748 396.198 391.32 396.848 391.463 397.44C392.167 400.368 392.778 403.369 393.658 406.252C388.568 405.666 380.948 407.364 381.554 413.881C382.116 419.924 388.526 421.42 393.415 419.827C392.949 423.051 392.771 426.38 392.732 429.618C392.727 430.04 392.948 430.298 393.235 430.409C393.097 430.417 392.959 430.419 392.821 430.427C391.936 430.481 391.935 431.748 392.821 431.804C399.845 432.244 406.918 432.081 413.953 432.105C417.15 432.116 424.021 433.65 426.523 431.082C429.096 428.44 427.95 421.562 428.064 418.228ZM426.249 412.484C426.167 416.5 427.376 426.121 424.607 428.972C421.963 431.695 413.039 430.159 409.15 430.166C404.094 430.175 399.023 430.119 393.971 430.375C394.248 430.25 394.475 430.002 394.51 429.617C394.823 426.215 395.011 422.691 394.824 419.271C394.828 419.269 394.833 419.268 394.837 419.266C395.974 418.711 394.98 417.074 393.853 417.583C390.066 419.293 383.242 418.738 383.462 413.111C383.668 407.815 390.607 408.049 394.221 407.678C394.483 407.651 394.688 407.473 394.799 407.255C395.263 407.163 395.675 406.746 395.562 406.126C395.079 403.458 394.342 400.809 393.652 398.175C395.615 398.241 397.852 398.355 399.62 397.731C399.106 403.927 403.68 409.617 410.238 409.581C416.75 409.545 421.408 403.808 420.515 397.601C422.463 397.514 424.589 397.222 426.444 396.713C426.375 396.84 426.325 396.984 426.323 397.165C426.282 402.272 426.353 407.377 426.249 412.484Z" />
<path d="M178.655 216.679C178.418 216.198 177.6 216.186 177.367 216.679C174.853 222.001 172.504 227.572 171.205 233.328C171.04 234.061 172.068 234.331 172.32 233.635C172.89 232.066 173.449 230.501 174.014 228.942C176.343 229.037 178.676 229.019 181.006 229.092C181.101 229.095 181.183 229.076 181.256 229.047C181.558 230.45 181.827 231.872 182.067 233.328C182.195 234.099 183.486 233.924 183.435 233.143C183.062 227.408 181.18 221.808 178.655 216.679ZM174.369 227.968C175.494 224.891 176.66 221.84 178.014 218.834C179.334 221.785 180.266 224.758 180.987 227.83C178.782 227.899 176.573 227.889 174.369 227.968Z" />
<path d="M182.626 264.057C182.186 260.522 178.692 258.109 175.283 258.452C174.887 258.079 174.125 258.199 174.137 258.902C174.22 264.105 174.289 269.208 173.912 274.407C173.889 274.726 174.148 274.924 174.424 274.962C174.439 275.203 174.57 275.449 174.821 275.547C176.66 276.263 179.999 276.053 180.241 273.502C180.36 272.241 179.538 271.378 178.471 270.884C181.087 269.797 182.984 266.939 182.626 264.057ZM178.997 273.51C178.502 275.2 176.283 274.52 175.057 274.396C175.212 273.362 175.343 272.317 175.455 271.267C175.52 271.303 175.595 271.329 175.693 271.323C175.762 271.319 175.838 271.318 175.919 271.319C175.967 271.332 176.016 271.344 176.07 271.346C176.132 271.348 176.193 271.34 176.255 271.34C177.5 271.456 179.412 272.09 178.997 273.51ZM175.888 270.001C175.746 270.022 175.648 270.086 175.569 270.164C175.89 266.661 175.939 263.108 175.583 259.639C178.129 259.642 180.597 261.186 181.149 263.837C181.853 267.212 178.851 269.572 175.888 270.001Z" />
<path d="M179.316 311.682C175.249 312.79 172.345 311.101 172.392 306.594C172.418 304.088 173.362 297.235 177.49 298.188C177.966 298.298 178.318 297.598 177.838 297.363C172.786 294.893 171.188 302.629 170.925 306.032C170.75 308.297 171.212 310.767 172.96 312.37C174.897 314.146 177.392 313.765 179.717 313.133C180.65 312.88 180.253 311.427 179.316 311.682Z" />
<path d="M306.288 213.523C306.12 212.895 305.542 212.735 305.062 212.889C304.97 212.504 304.678 212.191 304.157 212.232C284.934 213.739 265.673 214.684 246.394 215.007C227.102 215.33 207.846 214.28 188.571 214.38C188.405 214.381 188.278 214.431 188.169 214.498C184.508 211.344 179.524 209.856 174.632 211.349C166.109 209.872 160 218.194 160.685 226.396C161.568 236.974 170.759 243.071 180.846 242.825C183.903 242.75 186.452 241.717 188.462 240.062C188.505 240.068 188.54 240.086 188.588 240.085C226.786 239.603 264.902 238.192 303.119 238.667C303.636 238.673 303.932 238.347 304.027 237.96C304.397 237.986 304.794 237.823 304.971 237.393C308.103 229.755 308.408 221.462 306.288 213.523ZM180.845 240.859C173.259 241.097 165.737 237.451 163.358 229.835C160.828 221.735 165.745 211.023 175.53 213.52C176.161 213.681 176.588 213.254 176.686 212.764C182.882 212.289 188.877 215.645 191.042 221.857C193.771 229.688 190.134 240.568 180.845 240.859ZM303.361 236.745C303.282 236.725 303.211 236.694 303.119 236.693C265.52 236.226 227.588 235.936 190.049 238.496C193.329 234.664 194.56 228.865 193.495 223.502C192.931 220.665 191.562 218.086 189.689 215.994C208.432 217.686 227.606 217.275 246.394 216.965C265.673 216.646 284.934 215.706 304.157 214.204C304.258 214.196 304.337 214.159 304.422 214.129C306.384 221.829 305.892 229.256 303.361 236.745Z" />
<path d="M300.545 217.874C300.397 217.543 300.106 217.423 299.812 217.449C299.69 217.173 299.44 216.963 299.041 216.976C264.953 218.173 230.852 218.849 196.763 219.957C196.192 219.976 195.919 220.451 195.992 220.97C196.562 225.058 196.55 229.034 196.303 233.143C196.292 233.319 196.375 233.45 196.493 233.54C195.89 233.721 195.946 234.721 196.673 234.74C230.435 235.621 264.301 234.638 298.04 233.274C298.551 233.253 298.814 232.868 298.847 232.47C302.125 228.575 302.579 222.414 300.545 217.874ZM197.26 233.495C197.306 233.439 197.342 233.372 197.357 233.286C197.831 230.597 196.796 222.84 198.729 221.536C199.404 221.081 203.783 221.457 204.631 221.439C207.254 221.385 209.877 221.33 212.5 221.273C222.008 221.068 231.515 220.818 241.022 220.56C260.361 220.035 279.698 219.433 299.032 218.762C300.37 223.476 299.873 227.202 298.029 231.571C264.441 232.936 230.866 233.093 197.26 233.495Z" />
<path d="M306.288 253.802C306.12 253.174 305.542 253.014 305.062 253.168C304.97 252.783 304.678 252.47 304.157 252.511C284.934 254.018 265.673 254.963 246.394 255.286C227.102 255.609 207.846 254.559 188.571 254.659C188.405 254.66 188.278 254.71 188.169 254.777C184.508 251.623 179.524 250.135 174.632 251.628C166.109 250.151 160 258.473 160.685 266.675C161.568 277.253 170.759 283.35 180.846 283.104C183.903 283.029 186.452 281.996 188.462 280.341C188.505 280.347 188.54 280.365 188.588 280.364C226.786 279.882 264.902 278.471 303.119 278.946C303.636 278.952 303.932 278.626 304.027 278.239C304.397 278.265 304.794 278.102 304.971 277.672C308.103 270.034 308.408 261.742 306.288 253.802ZM180.845 281.139C173.259 281.377 165.737 277.731 163.358 270.115C160.828 262.015 165.745 251.303 175.53 253.8C176.161 253.961 176.588 253.534 176.686 253.044C182.882 252.57 188.877 255.925 191.042 262.138C193.771 269.967 190.134 280.847 180.845 281.139ZM303.361 277.024C303.282 277.004 303.211 276.973 303.119 276.972C265.52 276.505 227.588 276.215 190.049 278.775C193.329 274.943 194.56 269.144 193.495 263.781C192.931 260.944 191.562 258.366 189.689 256.273C208.432 257.965 227.606 257.554 246.394 257.244C265.673 256.925 284.934 255.985 304.157 254.483C304.258 254.475 304.337 254.438 304.422 254.408C306.384 262.108 305.892 269.536 303.361 277.024Z" />
<path d="M300.545 258.153C300.397 257.821 300.106 257.702 299.812 257.728C299.69 257.452 299.44 257.241 299.041 257.255C264.953 258.452 230.852 259.128 196.763 260.236C196.192 260.255 195.919 260.73 195.992 261.249C196.562 265.337 196.55 269.313 196.303 273.422C196.292 273.598 196.375 273.729 196.493 273.819C195.89 274 195.946 274.999 196.673 275.018C230.435 275.899 264.301 274.916 298.04 273.552C298.551 273.531 298.814 273.146 298.847 272.748C302.125 268.855 302.579 262.693 300.545 258.153ZM197.26 273.774C197.306 273.718 197.342 273.651 197.357 273.565C197.831 270.876 196.796 263.119 198.729 261.815C199.404 261.36 203.783 261.736 204.631 261.718C207.254 261.664 209.877 261.609 212.5 261.552C222.008 261.347 231.515 261.097 241.022 260.839C260.361 260.314 279.698 259.712 299.032 259.041C300.37 263.755 299.873 267.481 298.029 271.85C264.441 273.216 230.866 273.372 197.26 273.774Z" />
<path d="M306.288 293.046C306.12 292.418 305.542 292.258 305.062 292.411C304.97 292.026 304.678 291.713 304.157 291.754C284.934 293.261 265.673 294.206 246.394 294.529C227.102 294.852 207.846 293.802 188.571 293.902C188.405 293.903 188.278 293.953 188.169 294.02C184.508 290.866 179.524 289.378 174.632 290.871C166.109 289.394 160 297.716 160.685 305.918C161.568 316.496 170.759 322.593 180.846 322.347C183.903 322.272 186.452 321.239 188.462 319.583C188.505 319.589 188.54 319.607 188.588 319.606C226.786 319.124 264.902 317.713 303.119 318.188C303.636 318.194 303.932 317.868 304.027 317.481C304.397 317.507 304.794 317.344 304.971 316.914C308.103 309.278 308.408 300.985 306.288 293.046ZM180.845 320.382C173.259 320.62 165.737 316.974 163.358 309.358C160.828 301.258 165.745 290.546 175.53 293.043C176.161 293.204 176.588 292.777 176.686 292.287C182.882 291.813 188.877 295.168 191.042 301.381C193.771 309.211 190.134 320.091 180.845 320.382ZM303.361 316.268C303.282 316.248 303.211 316.217 303.119 316.216C265.52 315.749 227.588 315.459 190.049 318.019C193.329 314.187 194.56 308.388 193.495 303.025C192.931 300.187 191.562 297.609 189.689 295.517C208.432 297.209 227.606 296.798 246.394 296.488C265.673 296.169 284.934 295.229 304.157 293.727C304.258 293.719 304.337 293.682 304.422 293.652C306.384 301.352 305.892 308.779 303.361 316.268Z" />
<path d="M300.545 297.397C300.397 297.066 300.106 296.946 299.812 296.972C299.69 296.696 299.44 296.485 299.041 296.499C264.953 297.696 230.852 298.372 196.763 299.48C196.192 299.499 195.919 299.974 195.992 300.493C196.562 304.581 196.55 308.557 196.303 312.666C196.292 312.842 196.375 312.973 196.493 313.063C195.89 313.244 195.946 314.243 196.673 314.262C230.435 315.143 264.301 314.16 298.04 312.796C298.551 312.775 298.814 312.39 298.847 311.992C302.125 308.099 302.579 301.937 300.545 297.397ZM197.26 313.018C197.306 312.962 197.342 312.895 197.357 312.809C197.831 310.12 196.796 302.363 198.729 301.059C199.404 300.604 203.783 300.98 204.631 300.962C207.254 300.908 209.877 300.853 212.5 300.796C222.008 300.591 231.515 300.341 241.022 300.083C260.361 299.558 279.698 298.956 299.032 298.285C300.37 302.999 299.873 306.725 298.029 311.094C264.441 312.459 230.866 312.616 197.26 313.018Z" />
<path d="M447.178 134.187C447.325 133.998 447.409 133.755 447.364 133.515C447.091 132.066 445.752 130.658 444.654 129.749C443.659 128.926 442.485 128.271 441.231 127.93C439.372 126.541 435.305 127.277 433.267 127.25C428.666 127.188 424.065 127.157 419.464 127.157C410.262 127.157 401.06 127.277 391.861 127.518C387.47 127.633 381.479 126.53 380.522 132.105C379.891 135.785 380.689 140.018 380.965 143.721C381.335 148.691 381.865 153.644 382.503 158.586C382.522 158.733 382.57 158.86 382.633 158.972C382.398 159.137 382.288 159.414 382.293 159.687C382.283 159.808 382.291 159.935 382.351 160.068C383.181 161.924 383.982 163.944 385.018 165.733C384.8 166.125 384.98 166.736 385.574 166.762C385.614 166.764 385.654 166.764 385.694 166.766C386.012 167.029 386.48 167.014 386.794 166.802C399.301 167.314 411.836 167.293 424.35 167.206C429.531 167.17 435.804 168.046 440.855 166.772C443.647 166.068 445.569 164.345 445.557 161.403C445.557 161.305 445.531 161.219 445.5 161.136C447.523 152.499 447.915 142.942 447.178 134.187ZM386.935 129.631C389.932 128.946 393.717 129.438 396.791 129.372C403.362 129.23 409.935 129.151 416.508 129.133C420.123 129.123 423.738 129.132 427.353 129.159C429.966 129.179 434.904 128.211 437.211 129.279C442.988 131.954 441.043 145.12 440.95 150.425C440.898 153.367 441.077 154.154 438.826 156.504C436.56 158.87 436.478 158.627 433.662 158.641C430.421 158.657 427.179 158.646 423.937 158.649C410.79 158.66 397.606 158.408 384.462 158.778C384.466 158.713 384.486 158.659 384.477 158.586C383.68 152.408 383.062 146.211 382.689 139.992C382.429 135.659 381.089 130.966 386.935 129.631ZM444.156 160.668C443.999 160.769 443.879 160.93 443.842 161.169C442.961 166.818 431.23 165.188 427.335 165.226C422.695 165.271 418.055 165.289 413.415 165.305C404.554 165.334 395.689 165.278 386.829 165.394C386.136 163.718 385.19 162.099 384.259 160.52C393.587 160.766 402.939 160.615 412.268 160.61C416.806 160.607 421.344 160.605 425.883 160.602C429.769 160.6 434.198 161.168 438.017 160.442C443.225 159.451 442.835 154.802 442.913 150.424C442.996 145.787 442.926 141.148 442.709 136.516C442.639 135.03 442.952 132.225 442.468 130.128C442.873 130.398 443.267 130.687 443.635 131.031C444.414 131.758 444.907 132.632 445.478 133.473C445.441 133.57 445.413 133.675 445.411 133.799C445.267 142.821 444.631 151.688 444.156 160.668Z" />
<path d="M347.608 134.187C347.755 133.998 347.84 133.755 347.794 133.515C347.521 132.066 346.182 130.658 345.084 129.749C344.089 128.926 342.915 128.271 341.661 127.93C339.802 126.541 335.735 127.277 333.697 127.25C329.097 127.188 324.495 127.157 319.894 127.157C310.692 127.157 301.49 127.277 292.291 127.518C287.9 127.633 281.909 126.53 280.952 132.105C280.321 135.785 281.119 140.018 281.395 143.721C281.765 148.691 282.295 153.644 282.933 158.586C282.952 158.733 283 158.86 283.063 158.972C282.828 159.137 282.718 159.414 282.723 159.687C282.713 159.808 282.721 159.935 282.781 160.068C283.611 161.924 284.412 163.944 285.448 165.733C285.23 166.125 285.41 166.736 286.004 166.762C286.044 166.764 286.084 166.764 286.124 166.766C286.443 167.029 286.91 167.014 287.225 166.802C299.732 167.314 312.267 167.293 324.781 167.206C329.962 167.17 336.235 168.046 341.286 166.772C344.078 166.068 346 164.345 345.988 161.403C345.988 161.305 345.962 161.219 345.931 161.136C347.952 152.499 348.345 142.942 347.608 134.187ZM287.364 129.631C290.361 128.946 294.146 129.438 297.22 129.372C303.792 129.23 310.364 129.151 316.937 129.133C320.552 129.123 324.167 129.132 327.782 129.159C330.395 129.179 335.333 128.211 337.64 129.279C343.417 131.954 341.472 145.12 341.379 150.425C341.327 153.367 341.506 154.154 339.255 156.504C336.989 158.87 336.907 158.627 334.091 158.641C330.85 158.657 327.608 158.646 324.366 158.649C311.219 158.66 298.035 158.408 284.891 158.778C284.895 158.713 284.915 158.659 284.906 158.586C284.109 152.408 283.49 146.211 283.118 139.992C282.858 135.659 281.519 130.966 287.364 129.631ZM344.585 160.668C344.428 160.769 344.308 160.93 344.271 161.169C343.39 166.818 331.659 165.188 327.764 165.226C323.124 165.271 318.484 165.289 313.844 165.305C304.983 165.334 296.118 165.278 287.258 165.394C286.565 163.718 285.619 162.099 284.688 160.52C294.016 160.766 303.368 160.615 312.697 160.61C317.235 160.607 321.773 160.605 326.311 160.602C330.197 160.6 334.626 161.168 338.445 160.442C343.653 159.451 343.263 154.802 343.341 150.424C343.424 145.787 343.354 141.148 343.137 136.516C343.067 135.03 343.38 132.225 342.896 130.128C343.301 130.398 343.694 130.687 344.063 131.031C344.842 131.758 345.335 132.632 345.906 133.473C345.869 133.57 345.841 133.675 345.839 133.799C345.697 142.821 345.06 151.688 344.585 160.668Z" />
<path d="M401.108 27.4301C401.255 27.2411 401.339 26.9981 401.294 26.7581C401.021 25.3091 399.682 23.9001 398.584 22.9921C397.589 22.1691 396.415 21.5141 395.161 21.1731C393.302 19.7841 389.235 20.5201 387.197 20.4931C382.596 20.4311 377.995 20.4001 373.394 20.4001C364.192 20.4001 354.99 20.5201 345.791 20.7611C341.4 20.8761 335.409 19.7731 334.452 25.3481C333.821 29.0281 334.619 33.2611 334.895 36.9641C335.265 41.9341 335.795 46.8871 336.433 51.8291C336.452 51.9761 336.5 52.1031 336.563 52.2151C336.328 52.3801 336.218 52.6571 336.223 52.9301C336.213 53.0511 336.221 53.1781 336.281 53.3101C337.111 55.1661 337.912 57.1861 338.948 58.9751C338.73 59.3671 338.91 59.9781 339.504 60.0041C339.544 60.0061 339.584 60.0061 339.624 60.0081C339.942 60.2711 340.41 60.2561 340.724 60.0441C353.231 60.5561 365.766 60.5351 378.28 60.4471C383.46 60.4111 389.734 61.2871 394.785 60.0131C397.577 59.3091 399.499 57.5861 399.487 54.6441C399.487 54.5461 399.461 54.4601 399.43 54.3771C401.453 45.7421 401.845 36.1861 401.108 27.4301ZM340.865 22.8741C343.862 22.1891 347.647 22.6811 350.721 22.6151C357.292 22.4731 363.865 22.3941 370.438 22.3761C374.053 22.3661 377.668 22.3751 381.283 22.4021C383.896 22.4221 388.834 21.4541 391.142 22.5221C396.919 25.1981 394.974 38.3631 394.881 43.6681C394.829 46.6101 395.008 47.3971 392.757 49.7471C390.491 52.1131 390.409 51.8701 387.593 51.8841C384.352 51.9001 381.11 51.8901 377.868 51.8921C364.721 51.9031 351.537 51.6521 338.393 52.0211C338.397 51.9561 338.417 51.9021 338.408 51.8291C337.611 45.6511 336.993 39.4541 336.62 33.2351C336.359 28.9021 335.019 24.2091 340.865 22.8741ZM398.086 53.9121C397.929 54.0131 397.809 54.1741 397.772 54.4131C396.891 60.0621 385.16 58.4321 381.265 58.4701C376.625 58.5151 371.985 58.5331 367.345 58.5491C358.484 58.5791 349.619 58.5221 340.759 58.6381C340.066 56.9621 339.12 55.3431 338.189 53.7641C347.517 54.0101 356.869 53.8591 366.198 53.8541C370.736 53.8511 375.274 53.8491 379.813 53.8461C383.699 53.8441 388.128 54.4121 391.947 53.6861C397.155 52.6951 396.765 48.0461 396.843 43.6671C396.926 39.0301 396.856 34.3911 396.639 29.7591C396.569 28.2731 396.882 25.4681 396.398 23.3711C396.802 23.6411 397.196 23.9311 397.565 24.2741C398.344 25.0011 398.837 25.8751 399.408 26.7161C399.372 26.8131 399.343 26.9181 399.341 27.0421C399.198 36.0641 398.561 44.9321 398.086 53.9121Z" />
<path d="M301.538 27.4301C301.685 27.2411 301.769 26.9981 301.724 26.7581C301.451 25.3091 300.112 23.9001 299.014 22.9921C298.019 22.1691 296.845 21.5141 295.591 21.1731C293.732 19.7841 289.665 20.5201 287.627 20.4931C283.026 20.4311 278.425 20.4001 273.824 20.4001C264.622 20.4001 255.42 20.5201 246.221 20.7611C241.83 20.8761 235.839 19.7731 234.882 25.3481C234.251 29.0281 235.049 33.2611 235.325 36.9641C235.695 41.9341 236.225 46.8871 236.863 51.8291C236.882 51.9761 236.93 52.1031 236.993 52.2151C236.758 52.3801 236.648 52.6571 236.653 52.9301C236.643 53.0511 236.651 53.1781 236.711 53.3101C237.541 55.1661 238.342 57.1861 239.378 58.9751C239.16 59.3671 239.34 59.9781 239.934 60.0041C239.974 60.0061 240.014 60.0061 240.054 60.0081C240.372 60.2711 240.84 60.2561 241.154 60.0441C253.661 60.5561 266.196 60.5351 278.71 60.4471C283.891 60.4111 290.164 61.2871 295.215 60.0131C298.007 59.3091 299.929 57.5861 299.917 54.6441C299.917 54.5461 299.891 54.4601 299.86 54.3771C301.882 45.7421 302.275 36.1861 301.538 27.4301ZM241.294 22.8741C244.291 22.1891 248.076 22.6811 251.15 22.6151C257.721 22.4731 264.294 22.3941 270.867 22.3761C274.482 22.3661 278.097 22.3751 281.712 22.4021C284.325 22.4221 289.263 21.4541 291.571 22.5221C297.348 25.1981 295.403 38.3631 295.31 43.6681C295.258 46.6101 295.437 47.3971 293.186 49.7471C290.92 52.1131 290.838 51.8701 288.022 51.8841C284.781 51.9001 281.539 51.8901 278.297 51.8921C265.15 51.9031 251.966 51.6521 238.822 52.0211C238.826 51.9561 238.846 51.9021 238.837 51.8291C238.04 45.6511 237.422 39.4541 237.049 33.2351C236.789 28.9021 235.449 24.2091 241.294 22.8741ZM298.516 53.9121C298.359 54.0131 298.239 54.1741 298.202 54.4131C297.321 60.0621 285.59 58.4321 281.695 58.4701C277.055 58.5151 272.415 58.5331 267.775 58.5491C258.914 58.5791 250.049 58.5221 241.189 58.6381C240.496 56.9621 239.55 55.3431 238.619 53.7641C247.947 54.0101 257.299 53.8591 266.628 53.8541C271.166 53.8511 275.704 53.8491 280.242 53.8461C284.128 53.8441 288.557 54.4121 292.376 53.6861C297.584 52.6951 297.194 48.0461 297.272 43.6671C297.355 39.0301 297.285 34.3911 297.068 29.7591C296.998 28.2731 297.311 25.4681 296.827 23.3711C297.232 23.6411 297.626 23.9311 297.994 24.2741C298.773 25.0011 299.266 25.8751 299.837 26.7161C299.8 26.8131 299.772 26.9181 299.77 27.0421C299.627 36.0641 298.99 44.9321 298.516 53.9121Z" />
<path d="M425.722 91.833C417.946 91.642 410.164 91.474 402.379 91.32C402.355 91.098 402.303 90.883 402.247 90.668C402.268 89.962 402.016 89.235 401.36 88.561C400.415 87.59 398.948 87.265 397.649 87.527C397.122 87.45 396.6 87.434 396.118 87.483C394.182 87.682 392.388 89.246 392.181 91.126C381.806 90.946 371.425 90.806 361.042 90.721C360.648 89.256 359.541 88.029 357.871 87.642C357.333 87.517 356.802 87.505 356.296 87.578C354.941 87.468 353.53 88.044 352.639 89.206C352.3 89.648 352.068 90.143 351.927 90.66C339.493 90.599 327.058 90.626 314.627 90.76C314.254 88.469 312.432 86.463 310.002 86.319C308.298 86.218 306.745 87.073 305.81 88.389C305.033 89.053 304.441 89.932 304.148 90.908C294.424 91.063 284.702 91.279 274.988 91.587C274.537 88.902 272.098 86.656 269.238 87.04C266.973 87.343 264.764 89.588 264.874 91.931C258.005 92.193 251.138 92.493 244.277 92.848C243.398 92.893 243.385 94.237 244.277 94.225C251.243 94.132 258.207 94.036 265.17 93.939C265.319 96.278 267.221 98.135 269.724 97.88C270.752 97.775 271.735 97.32 272.491 96.646C273.115 96.728 273.569 96.093 273.391 95.545C273.692 95.021 273.871 94.437 273.888 93.818C283.952 93.68 294.014 93.552 304.075 93.437C304.733 96.076 307.804 97.449 310.308 96.615C311.888 96.089 312.798 94.789 313.014 93.336C325.982 93.203 338.949 93.11 351.917 93.079C352.224 94.293 352.983 95.395 354.109 96.02C356.535 97.367 359.718 96.358 360.819 93.805C360.923 93.563 360.986 93.316 361.049 93.07C371.405 93.07 381.762 93.118 392.121 93.222C392.324 94.282 392.932 95.288 393.815 95.907C395.948 97.403 399.319 97.163 401.111 95.232C401.599 94.707 401.944 94.051 402.16 93.352C410.012 93.462 417.866 93.597 425.721 93.789C426.981 93.821 426.981 91.864 425.722 91.833ZM308.698 87.983C308.977 87.909 309.269 87.88 309.571 87.886C309.528 88.013 309.507 88.143 309.528 88.275C309.24 88.229 308.948 88.206 308.657 88.225C308.687 88.146 308.697 88.064 308.698 87.983ZM355.535 93.117C355.514 93.103 355.501 93.082 355.482 93.067C356.196 93.066 356.909 93.068 357.622 93.068C356.998 93.458 356.113 93.517 355.535 93.117Z" />
<path d="M271.637 71.472C270.109 69.785 268.429 68.4041 266.489 67.2171C265.984 66.9081 265.161 67.18 265.046 67.804C264.589 70.287 264.257 72.775 264.047 75.292C263.953 76.417 265.668 76.5811 265.968 75.5521C266.255 74.5661 266.54 73.5791 266.827 72.5931C268.106 75.9431 268.539 79.4261 268.36 83.1001C268.325 83.8281 269.521 84.012 269.651 83.275C270.41 78.972 269.818 74.8261 268.186 70.8711C268.907 71.4861 269.592 72.1451 270.243 72.8661C271.094 73.8101 272.487 72.411 271.637 71.472Z" />
<path d="M312.628 107.847C312.02 108.799 311.197 111.073 310.335 112.013C309.11 107.788 309.686 103.853 311.283 99.758C311.59 98.971 310.378 98.531 309.961 99.201C308.232 101.976 307.595 105.207 307.779 108.414C307.11 107.837 305.897 108.377 306.184 109.377C306.627 110.92 307.675 114.695 309.716 114.872C310.295 114.922 310.738 114.583 311.13 114.214C312.418 113.003 313.423 110.352 314.216 108.776C314.749 107.721 313.269 106.843 312.628 107.847Z" />
<path d="M361.95 73.3941C360.287 72.0121 358.914 70.5911 357.831 68.6971C357.478 68.0801 356.485 68.0421 356.142 68.6971C355.413 70.0891 354.684 71.4801 353.954 72.8721C353.651 73.3351 353.385 73.8351 353.161 74.3851C353.147 74.4111 353.134 74.4371 353.12 74.4631C353.122 74.4641 353.123 74.4641 353.125 74.4651C353.093 74.5451 353.052 74.6131 353.022 74.6951C352.639 75.7301 354.291 76.4131 354.8 75.4451C355.14 74.7991 355.479 74.1541 355.818 73.5091C355.941 73.3481 356.085 73.2001 356.226 73.0511C357.227 76.5071 357.076 79.8591 356.061 83.4201C355.783 84.3961 357.172 84.7101 357.538 83.8271C359.073 80.1211 359.1 76.1011 357.982 72.3081C358.802 73.2701 359.729 74.1311 360.82 74.8571C361.69 75.4361 362.77 74.0751 361.95 73.3941Z" />
<path d="M405.051 110.228C404.806 111.569 404.499 112.882 404.141 114.184C402.881 112.191 401.94 110.068 401.466 107.734C400.99 105.393 401.411 103.046 400.964 100.744C400.884 100.332 400.272 100.279 400.08 100.629C398.498 103.509 399.028 107.345 400.297 110.757C399.515 110.606 398.792 111.631 399.423 112.42C400.824 114.172 402.225 115.924 403.626 117.677C404.123 118.298 405.059 117.872 405.271 117.243C405.992 115.11 406.547 112.968 406.953 110.753C407.18 109.511 405.279 108.979 405.051 110.228Z" />
<path d="M132.886 272.782C131.004 271.506 129.167 270.16 127.313 268.844C126.615 268.349 125.711 269.501 126.39 270.041C127.932 271.267 129.487 272.481 131.014 273.726C130.989 273.754 130.965 273.782 130.94 273.809C130.818 273.752 130.678 273.717 130.514 273.717C127.674 273.718 124.834 273.728 121.994 273.738C119.554 259.18 116.985 244.643 114.524 230.088C114.413 229.429 113.509 229.288 113.085 229.708C103.779 238.951 95.2556 248.884 87.4856 259.444C82.5716 251.95 77.6596 244.455 72.7496 236.958C72.3726 236.382 71.5206 236.488 71.3076 237.147C67.3956 249.243 62.6346 261.017 57.0746 272.445C52.0386 253.095 45.1356 234.33 36.3906 216.343C36.1576 215.864 35.3216 215.841 35.0956 216.343C26.1306 236.329 17.1376 256.304 8.35461 276.371C6.43661 274.675 7.34061 268.366 7.29161 265.912C7.21461 262.021 7.13661 258.129 7.05861 254.238C6.73961 238.211 6.91661 222.074 5.95261 206.071C6.79761 208.36 7.79961 210.638 9.10061 212.649C9.75661 213.664 11.2086 212.785 10.7036 211.712C9.36761 208.874 7.97861 206.147 6.97061 203.163C6.69161 202.337 5.69961 202.26 5.21261 202.933C4.15061 204.402 3.08361 205.867 2.03361 207.346C1.21361 208.501 0.17561 209.537 0.0026102 210.97C-0.0343898 211.278 0.330609 211.377 0.549609 211.284C1.87961 210.718 2.71261 209.206 3.59461 208.093C3.81761 207.812 4.03661 207.527 4.25861 207.245C3.82961 230.646 5.08561 254.193 5.55161 277.587C5.56161 278.101 5.99561 278.598 6.53761 278.573C47.4516 276.68 88.4026 275.722 129.362 275.694C128.376 276.941 127.45 278.233 126.597 279.587C125.921 280.659 127.625 281.65 128.293 280.578C129.696 278.329 131.284 276.244 133.081 274.295C133.522 273.817 133.411 273.139 132.886 272.782ZM72.3076 239.179C77.1016 246.587 81.8946 253.996 86.6836 261.407C87.0626 261.994 87.8036 261.941 88.1926 261.407C95.7606 251.009 104.093 241.256 113.132 232.117C115.531 245.982 117.802 259.869 120.144 273.744C99.3786 273.827 78.6156 274.144 57.8576 274.707C63.5956 263.235 68.4026 251.392 72.3076 239.179ZM21.2876 275.954C19.3206 276.035 17.3536 276.118 15.3866 276.203C14.3056 276.25 11.0706 276.893 9.37261 276.744C18.2906 257.389 27.0136 237.945 35.7546 218.51C44.3736 236.548 51.1296 255.354 55.9366 274.762C48.3196 274.974 40.7036 275.217 33.0886 275.496C29.1556 275.639 25.2216 275.792 21.2876 275.954Z" />
<path d="M118.426 214.363C116.386 213.937 114.413 213.39 112.465 212.735C111.367 212.33 110.27 211.926 109.173 211.52C108.057 211.107 107.635 212.836 108.689 213.275C109.953 213.802 111.223 214.263 112.504 214.685C104.709 219.481 96.7132 223.929 88.4742 227.921C86.2742 228.987 84.0622 230.034 81.8282 231.028C77.2572 233.062 73.9842 231.186 70.4732 228.275C67.3922 225.72 64.2492 223.239 61.0532 220.828C57.4322 218.096 53.7392 215.46 49.9782 212.924C46.3032 210.447 42.0002 206.732 37.7692 205.332C35.7622 204.668 34.7042 205.056 33.0162 206.189C29.2812 208.695 25.9802 212.779 22.7442 215.905C22.2422 216.389 22.9902 217.122 23.5042 216.665C27.2372 213.345 32.7702 205.798 38.4712 207.463C40.4992 208.056 42.8322 210.188 44.6082 211.34C46.6382 212.656 48.6542 213.995 50.6482 215.365C58.5102 220.767 65.4872 227.389 73.2762 232.81C78.3972 236.374 84.5762 231.757 89.3652 229.444C98.1042 225.225 106.58 220.505 114.823 215.388C115.362 215.538 115.906 215.678 116.453 215.811C115.374 216.98 114.235 218.064 113.039 219.146C112.161 219.94 113.423 221.103 114.308 220.415C116.03 219.077 117.449 217.6 118.838 215.922C119.25 215.425 119.173 214.519 118.426 214.363Z" />
<path d="M26.261 416.247C27.657 413.92 28.144 410.778 25.59 409.048C23.618 407.713 20.434 408.19 19.787 410.695C19.623 411.328 20.444 411.618 20.798 411.121C21.672 409.891 24.295 409.31 25.172 411.086C26.079 412.924 25.067 415.027 23.813 416.336C23.234 416.941 23.651 417.97 24.495 417.982C26.756 418.014 29.501 419.105 30.14 421.569C30.864 424.367 27.987 426.653 25.404 425.843C24.414 425.532 23.722 427.086 24.686 427.547C27.936 429.102 31.843 426.59 32.205 423.033C32.573 419.409 29.504 416.924 26.261 416.247Z" />
<path d="M43.8765 415.539C42.9425 405.521 33.5635 398.085 23.5765 399.535C14.3645 400.873 3.82452 410.099 4.59452 420.042C5.45552 431.167 16.4155 436.889 26.5595 436.323C26.6995 436.315 26.8085 436.268 26.9035 436.207C26.9545 436.221 26.9955 436.249 27.0525 436.256C37.0865 437.467 44.6995 424.368 43.8765 415.539ZM27.0525 434.284C26.5185 434.219 26.2275 434.543 26.1485 434.943C17.5945 434.483 8.51852 430.657 6.79952 421.326C5.22952 412.806 13.3735 404.504 21.0805 402.128C29.6105 399.498 39.0255 404.151 41.4245 412.959C43.6725 421.212 37.1015 435.497 27.0525 434.284Z" />
<path d="M127.395 429.7C114.504 429.349 101.519 429.963 88.6227 430.147C75.6997 430.332 62.7677 430.433 49.8507 430.898C49.1517 430.923 49.1457 431.982 49.8507 431.988C62.7737 432.102 75.7007 431.851 88.6227 431.684C101.519 431.518 114.517 431.777 127.395 431.076C128.276 431.029 128.287 429.725 127.395 429.7Z" />
<path d="M125.876 423.073C100.916 421.32 75.3732 421.112 50.3592 421.579C49.6652 421.592 49.6682 422.627 50.3592 422.654C75.4452 423.647 100.774 424.606 125.876 424.619C126.881 424.621 126.86 423.142 125.876 423.073Z" />
<path d="M128.347 411.858C126.964 411.016 125.332 411.343 123.745 411.335C120.132 411.316 116.518 411.297 112.904 411.279C106.005 411.243 99.1068 411.207 92.2078 411.185C78.1638 411.14 63.8408 410.322 49.8298 411.314C49.2058 411.358 49.2098 412.229 49.8298 412.281C62.8568 413.36 76.1828 412.777 89.2508 412.892C95.4928 412.947 101.734 412.996 107.976 413.038C113.614 413.076 122.188 414.524 127.156 412.568C126.14 412.968 126.515 414.56 127.619 414.246C127.782 414.2 127.945 414.153 128.107 414.107C128.503 413.994 128.743 413.643 128.764 413.244C128.775 413.043 128.785 412.843 128.796 412.642C128.814 412.323 128.61 412.018 128.347 411.858Z" />
<path d="M29.2055 378.362C26.6525 378.625 24.1005 378.821 21.5415 378.973C25.2255 374.601 29.4045 368.609 27.0695 362.987C24.9165 357.803 19.5175 363.504 18.6225 366.637C18.4145 367.365 19.5545 367.895 19.8805 367.167C20.4475 365.905 23.2145 360.919 25.3945 363.953C26.4065 365.362 25.3825 368.761 24.8375 370.276C23.5715 373.793 21.0165 376.639 18.5875 379.397C18.0585 379.997 18.3805 381.112 19.2815 381.073C22.6005 380.93 25.9045 380.692 29.2055 380.318C30.4385 380.179 30.4635 378.233 29.2055 378.362Z" />
<path d="M43.8765 368.183C42.9425 358.165 33.5635 350.729 23.5765 352.18C14.3645 353.518 3.82452 362.744 4.59452 372.687C5.45552 383.812 16.4155 389.534 26.5595 388.968C26.6995 388.96 26.8085 388.913 26.9035 388.852C26.9545 388.866 26.9955 388.894 27.0525 388.901C37.0865 390.111 44.6995 377.012 43.8765 368.183ZM27.0525 386.928C26.5185 386.864 26.2275 387.187 26.1485 387.587C17.5945 387.127 8.51852 383.301 6.79952 373.969C5.22952 365.449 13.3735 357.147 21.0805 354.771C29.6105 352.141 39.0255 356.794 41.4245 365.602C43.6725 373.856 37.1015 388.142 27.0525 386.928Z" />
<path d="M127.395 382.344C114.504 381.993 101.519 382.606 88.6227 382.791C75.6997 382.976 62.7677 383.077 49.8507 383.542C49.1517 383.567 49.1457 384.626 49.8507 384.633C62.7737 384.747 75.7007 384.496 88.6227 384.329C101.519 384.163 114.517 384.422 127.395 383.721C128.276 383.673 128.287 382.369 127.395 382.344Z" />
<path d="M125.876 375.717C100.916 373.964 75.3732 373.756 50.3592 374.223C49.6652 374.236 49.6682 375.271 50.3592 375.298C75.4452 376.291 100.774 377.25 125.876 377.263C126.881 377.265 126.86 375.786 125.876 375.717Z" />
<path d="M128.347 364.502C126.964 363.66 125.332 363.987 123.745 363.979C120.132 363.96 116.518 363.941 112.904 363.923C106.005 363.887 99.1068 363.851 92.2078 363.829C78.1638 363.784 63.8408 362.966 49.8298 363.958C49.2058 364.002 49.2098 364.873 49.8298 364.925C62.8568 366.004 76.1828 365.422 89.2508 365.536C95.4928 365.591 101.734 365.64 107.976 365.682C113.614 365.72 122.188 367.168 127.156 365.212C126.14 365.612 126.515 367.204 127.619 366.89C127.782 366.844 127.945 366.797 128.107 366.751C128.503 366.638 128.743 366.287 128.764 365.888C128.775 365.687 128.785 365.487 128.796 365.286C128.814 364.967 128.61 364.663 128.347 364.502Z" />
<path d="M25.4753 314.579C22.9063 318.315 19.8313 321.403 16.7123 324.655C16.2973 325.088 16.8463 325.884 17.3783 325.517C20.0713 323.657 22.3903 321.339 24.5013 318.845C23.6143 323.654 23.3153 328.623 24.0413 333.436C24.1953 334.454 25.8583 334.205 25.8263 333.194C25.6323 327.07 25.7703 321.315 27.2273 315.317C27.4893 314.233 26.0833 313.694 25.4753 314.579Z" />
<path d="M43.8765 321.793C42.9425 311.775 33.5635 304.339 23.5765 305.789C14.3645 307.127 3.82452 316.353 4.59452 326.296C5.45552 337.421 16.4155 343.143 26.5595 342.577C26.6995 342.569 26.8085 342.522 26.9035 342.461C26.9545 342.475 26.9955 342.503 27.0525 342.51C37.0865 343.72 44.6995 330.621 43.8765 321.793ZM27.0525 340.537C26.5185 340.473 26.2275 340.796 26.1485 341.196C17.5945 340.736 8.51852 336.91 6.79952 327.578C5.22952 319.058 13.3735 310.756 21.0805 308.38C29.6105 305.75 39.0255 310.403 41.4245 319.211C43.6725 327.465 37.1015 341.751 27.0525 340.537Z" />
<path d="M127.395 335.954C114.504 335.603 101.519 336.216 88.6227 336.401C75.6997 336.586 62.7677 336.687 49.8507 337.152C49.1517 337.177 49.1457 338.236 49.8507 338.242C62.7737 338.356 75.7007 338.105 88.6227 337.938C101.519 337.772 114.517 338.031 127.395 337.33C128.276 337.282 128.287 335.978 127.395 335.954Z" />
<path d="M125.876 329.326C100.916 327.573 75.3732 327.365 50.3592 327.832C49.6652 327.845 49.6682 328.88 50.3592 328.907C75.4452 329.9 100.774 330.859 125.876 330.872C126.881 330.874 126.86 329.395 125.876 329.326Z" />
<path d="M128.347 318.111C126.964 317.269 125.332 317.596 123.745 317.588C120.132 317.569 116.518 317.55 112.904 317.532C106.005 317.496 99.1068 317.46 92.2078 317.438C78.1638 317.393 63.8408 316.575 49.8298 317.567C49.2058 317.611 49.2098 318.482 49.8298 318.534C62.8568 319.613 76.1828 319.03 89.2508 319.145C95.4928 319.2 101.734 319.249 107.976 319.291C113.614 319.329 122.188 320.777 127.156 318.821C126.14 319.221 126.515 320.813 127.619 320.499C127.782 320.453 127.945 320.406 128.107 320.36C128.503 320.247 128.743 319.896 128.764 319.497C128.775 319.296 128.785 319.096 128.796 318.895C128.814 318.577 128.61 318.272 128.347 318.111Z" />
<path d="M128.612 33.3011C114.887 15.4541 89.7441 10.7031 68.7471 16.4421C58.6721 19.1961 49.8541 24.8741 44.2581 33.8191C38.0801 43.6951 35.3361 55.8751 36.2091 67.4501C38.0261 91.5461 58.2341 113.203 83.4381 111.028C83.5001 111.023 83.5491 110.999 83.6011 110.982C102.659 113.628 122.369 104.36 132.566 87.9721C143.073 71.0881 140.525 48.7931 128.612 33.3011ZM135.86 75.4281C117.893 70.4351 99.3081 66.3581 80.9841 62.7641C99.7111 63.6121 118.507 63.3561 137.235 62.7311C137.382 67.0001 136.942 71.2811 135.86 75.4281ZM121.89 28.8301C122.443 29.3401 122.987 29.8611 123.514 30.4041C131.35 38.4731 136.237 49.4531 137.119 60.6801C136.791 60.6561 136.462 60.6321 136.134 60.6081C135.895 60.5901 135.702 60.6771 135.555 60.8151C117.514 61.4151 99.4861 61.3781 81.4381 61.3651C94.8561 50.3971 107.976 39.2401 121.878 28.8451C121.883 28.8401 121.885 28.8341 121.89 28.8301ZM64.8101 19.7771C82.5451 13.1281 105.584 15.0981 120.411 27.5301C106.085 37.8191 91.7161 48.9251 79.1361 61.3031C73.3141 57.4691 67.2941 53.9471 61.4941 50.0741C55.6681 46.1831 50.1491 41.8261 44.3041 37.9781C44.2931 37.9711 44.2821 37.9721 44.2721 37.9651C48.7641 29.8471 55.6291 23.2191 64.8101 19.7771ZM39.9401 76.5301C39.9071 76.6851 39.8751 76.8391 39.8421 76.9941C39.6771 76.4061 39.5221 75.8141 39.3811 75.2161C36.5871 63.4271 38.0081 50.2981 43.4541 39.5131C53.7291 48.2911 66.0571 56.2581 78.0501 62.4871C65.9071 66.8561 53.9391 71.6621 41.7451 75.9101C41.6291 75.8501 41.5001 75.8101 41.3461 75.8171C41.1791 75.8251 41.0131 75.8331 40.8461 75.8411C40.4521 75.8591 40.0271 76.1161 39.9401 76.5301ZM82.0181 109.734C62.6451 109.482 45.7701 96.3781 40.1471 78.0041C40.3691 78.2181 40.6811 78.3271 41.0301 78.2131C53.8671 74.0241 66.9101 69.4931 79.1311 63.7011C79.1051 63.8021 79.0831 63.9061 79.0941 64.0331C80.4761 79.0701 81.2001 94.0991 82.1421 109.164C82.1471 109.246 82.1751 109.31 82.1981 109.379C82.1191 109.488 82.0561 109.607 82.0181 109.734ZM83.7351 109.025C83.8341 94.0441 82.6401 78.9191 81.0361 64.0331C81.0291 63.9701 80.9991 63.9231 80.9831 63.8661C98.8551 68.8841 117.17 73.5841 135.347 77.2051C135.079 78.0731 134.791 78.9371 134.464 79.7891C126.82 99.6821 104.634 112.088 83.7351 109.025Z" />
<path d="M60.4163 10.3531C57.3653 5.64314 52.2433 3.43314 46.9603 2.20814C47.9693 2.11114 48.9773 2.00914 49.9833 1.88914C51.1573 1.75014 51.2203 -0.0708635 49.9833 0.00213653C46.6523 0.198137 43.3263 0.550138 40.0023 0.844137C39.1963 0.916137 38.6443 1.89414 39.3053 2.52814C41.2813 4.42414 43.2593 6.31814 45.2363 8.21214C46.0253 8.96814 47.3633 7.99914 46.7743 7.02514C46.1193 5.94114 45.4863 4.84714 44.8633 3.74614C50.3803 4.82414 55.4493 6.74814 59.1163 11.3561C59.7023 12.0911 60.9233 11.1351 60.4163 10.3531Z" />
<path d="M28.869 57.2342C21.553 55.9492 14.083 57.3982 7.30196 60.2422C7.22096 60.2762 7.15396 60.3312 7.08696 60.3842C6.85096 60.3602 6.61396 60.3362 6.37796 60.3122C9.07196 58.5092 12.658 56.1982 14.772 56.8822C15.962 57.2672 16.419 55.4592 15.282 55.0322C11.345 53.5542 6.17697 58.3292 3.00797 60.1552C2.09897 60.6792 2.58597 61.8962 3.50497 61.9892C6.93396 62.3352 10.364 62.6812 13.793 63.0272C14.987 63.1482 14.992 61.4732 14.054 61.0972C13.448 60.8542 12.877 60.6622 12.319 60.5112C17.628 58.9452 22.964 58.5522 28.683 58.6082C29.45 58.6162 29.665 57.3732 28.869 57.2342Z" />
<path d="M45.0123 104.012C38.8493 108.104 32.9533 110.815 25.6203 110.877C27.6893 110.133 29.7773 109.451 31.9033 108.829C33.1003 108.479 32.5973 106.627 31.3873 106.957C27.7463 107.949 24.2283 109.204 20.7503 110.666C20.0553 110.958 19.6753 112.039 20.5163 112.458C23.0963 113.745 25.5853 114.464 28.4503 114.776C29.3903 114.878 29.8153 113.337 28.9433 112.957C28.7523 112.874 28.5613 112.791 28.3703 112.708C34.8323 112.161 41.3103 109.755 45.7993 105.034C46.2903 104.516 45.6483 103.59 45.0123 104.012Z" />
<path d="M146.76 107.376C146.509 106.167 144.764 106.705 144.94 107.878C145.152 109.288 145.291 110.65 145.361 112.02C140.969 105.622 134.403 100.881 126.684 99.4021C125.885 99.2491 125.549 100.393 126.345 100.633C133.556 102.806 139.602 106.868 143.761 113.078C142.921 113.054 142.085 113.003 141.249 112.933C140.439 112.813 139.62 112.716 138.777 112.66C137.696 112.589 137.421 114.428 138.518 114.577C138.605 114.589 138.691 114.597 138.778 114.608L138.777 114.612C138.855 114.617 138.93 114.63 139.008 114.636C139.617 114.713 140.224 114.779 140.831 114.834C142.631 115.096 144.36 115.535 146.111 116.166C146.739 116.392 147.33 115.811 147.354 115.219C147.461 112.554 147.302 109.987 146.76 107.376Z" />
<path d="M168.185 71.7011C166.671 71.3131 165.266 70.6931 163.971 69.8411C162.927 69.2381 162.047 70.7851 163.034 71.4441C163.174 71.5371 163.309 71.6111 163.446 71.6981C157.156 70.3571 150.833 69.1671 144.472 68.2181C143.533 68.0781 143.104 69.4891 144.071 69.6721C150.018 70.7991 155.941 71.9941 161.847 73.3091C161.02 73.8341 160.191 74.3581 159.363 74.8831C158.45 75.4611 159.021 76.9741 160.114 76.6641C163.006 75.8431 165.713 74.8051 168.42 73.5001C169.22 73.1141 168.941 71.9321 168.185 71.7011Z" />
<path d="M163.673 27.1192C161.628 26.9102 159.584 26.7002 157.539 26.4912C156.351 26.3692 156.332 28.0512 157.278 28.4212C158.275 28.8112 159.274 29.1992 160.272 29.5872C154.774 35.0872 147.989 38.1482 140.195 39.0722C139.238 39.1852 139.184 40.6642 140.195 40.6112C148.577 40.1742 156.215 36.4582 162.046 30.5162C161.658 32.1032 161.303 33.6962 161.022 35.3082C160.818 36.4792 162.551 37.0032 162.834 35.8082C163.423 33.3232 163.973 30.8352 164.622 28.3652C164.798 27.6952 164.304 27.1832 163.673 27.1192Z" />
</svg>
