<svg width="42" height="25" viewBox="0 0 42 25" fill="none" xmlns="http://www.w3.org/2000/svg">
<path d="M7.08464 1.1665H24.0846C25.5875 1.1665 27.0289 1.76353 28.0916 2.82623C29.1543 3.88894 29.7513 5.33028 29.7513 6.83317V18.1665C29.7513 19.6694 29.1543 21.1107 28.0916 22.1734C27.0289 23.2361 25.5875 23.8332 24.0846 23.8332H7.08464C5.58174 23.8332 4.1404 23.2361 3.0777 22.1734C2.01499 21.1107 1.41797 19.6694 1.41797 18.1665V6.83317C1.41797 5.33028 2.01499 3.88894 3.0777 2.82623C4.1404 1.76353 5.58174 1.1665 7.08464 1.1665ZM29.7513 9.6665L36.5513 4.5665C36.9723 4.25079 37.4728 4.05854 37.9969 4.01129C38.5209 3.96403 39.0478 4.06364 39.5184 4.29896C39.989 4.53428 40.3849 4.896 40.6615 5.3436C40.9381 5.7912 41.0846 6.30699 41.0846 6.83317V18.1665C41.0846 18.6927 40.9381 19.2085 40.6615 19.6561C40.3849 20.1037 39.989 20.4654 39.5184 20.7007C39.0478 20.936 38.5209 21.0356 37.9969 20.9884C37.4728 20.9411 36.9723 20.7489 36.5513 20.4332L29.7513 15.3332V9.6665Z" stroke-width="1.5" stroke-linecap="round" stroke-linejoin="round"/>
</svg>
