<svg width="25" height="25" viewBox="0 0 25 25" fill="none" xmlns="http://www.w3.org/2000/svg">
<g clip-path="url(#clip0_663_954)">
<path d="M10.4167 24.6472C8.90741 24.3731 7.51435 23.8662 6.2375 23.1264C4.9625 22.3856 3.86157 21.4722 2.93472 20.3861C2.00787 19.3 1.28704 18.069 0.772222 16.6931C0.257407 15.319 0 13.8625 0 12.3236C0 10.3236 0.431481 8.46389 1.29444 6.74444C2.15741 5.025 3.45139 3.51898 5.17639 2.22639H1.04167V0.8375H7.63889V7.43472H6.25V3.17083C4.62037 4.29583 3.40278 5.6537 2.59722 7.24445C1.79167 8.83519 1.38889 10.5282 1.38889 12.3236C1.38889 14.9755 2.21806 17.3194 3.87639 19.3556C5.53565 21.3917 7.71574 22.681 10.4167 23.2236V24.6472ZM10.5208 17.7514L5.61389 12.8361L6.59722 11.8542L10.5208 15.7764L18.4028 7.89444L19.3861 8.88611L10.5208 17.7514ZM17.3611 23.8347V17.2375H18.75V21.5028C20.3611 20.3546 21.5741 18.9866 22.3889 17.3986C23.2037 15.8106 23.6111 14.119 23.6111 12.3236C23.6111 9.67269 22.7819 7.32917 21.1236 5.29306C19.4643 3.25602 17.2843 1.9662 14.5833 1.42361V0C17.6204 0.543519 20.1157 1.95833 22.0694 4.24444C24.0231 6.53056 25 9.22361 25 12.3236C25 14.3236 24.5685 16.188 23.7056 17.9167C22.8426 19.6454 21.5486 21.1556 19.8236 22.4472H23.9583V23.8361L17.3611 23.8347Z"/>
</g>
</svg>
