<svg width="25" height="25" viewBox="0 0 25 25" fill="none" xmlns="http://www.w3.org/2000/svg">
<path d="M12.5 0C19.4036 0 25 5.59644 25 12.5C25 19.4036 19.4036 25 12.5 25C5.59644 25 0 19.4036 0 12.5C0 5.59644 5.59644 0 12.5 0ZM12.5 1.74419C6.55973 1.74419 1.74419 6.55973 1.74419 12.5C1.74419 18.4403 6.55973 23.2558 12.5 23.2558C18.4403 23.2558 23.2558 18.4403 23.2558 12.5C23.2558 6.55973 18.4403 1.74419 12.5 1.74419ZM11.3372 6.97674C11.8189 6.97674 12.2093 7.36719 12.2093 7.84884V13.9535H18.314C18.7956 13.9535 19.186 14.3439 19.186 14.8256C19.186 15.3072 18.7956 15.6977 18.314 15.6977H11.3372C10.8556 15.6977 10.4651 15.3072 10.4651 14.8256V7.84884C10.4651 7.36719 10.8556 6.97674 11.3372 6.97674Z" />
</svg>
