<svg width="25" height="25" viewBox="0 0 25 25" fill="none" xmlns="http://www.w3.org/2000/svg">
<path d="M12.5 0C19.1775 0 25 5.5125 25 11.875C25 18.13 19.3088 23.0525 12.5 23.0525C11.0437 23.0535 9.59651 22.8231 8.2125 22.37C7.6325 22.9325 7.43375 23.1237 6.2025 24.3112C5.315 24.9812 4.48 25.2087 3.73375 24.7863C2.98125 24.3612 2.755 23.5338 2.90875 22.4438L3.40875 19.545C1.2375 17.5025 0 14.8025 0 11.875C0 5.5125 5.82125 0 12.5 0ZM12.5 1.75C6.7675 1.75 1.75 6.5 1.75 11.875C1.75 14.4312 2.89 16.785 4.9 18.5375L4.925 18.5588L5.29625 18.8812L5.2125 19.3687L5.04 20.3737L4.99375 20.6413L4.6375 22.7137C4.61709 22.8533 4.60457 22.994 4.6 23.135V23.2537C4.6 23.2596 4.59917 23.2629 4.5975 23.2638C4.60625 23.2512 4.77625 23.1975 5.0675 22.985L7.78 20.3525L8.2975 20.5475C9.64186 21.0488 11.0652 21.3049 12.5 21.3037C18.395 21.3037 23.25 17.1038 23.25 11.875C23.25 6.50125 18.2325 1.75 12.5 1.75ZM6.53375 9.76625C6.78557 9.75705 7.03667 9.79871 7.27203 9.88873C7.50739 9.97875 7.72219 10.1153 7.9036 10.2902C8.08501 10.4651 8.2293 10.6748 8.32786 10.9067C8.42641 11.1386 8.4772 11.388 8.4772 11.64C8.4772 11.892 8.42641 12.1414 8.32786 12.3733C8.2293 12.6052 8.08501 12.8149 7.9036 12.9898C7.72219 13.1647 7.50739 13.3013 7.27203 13.3913C7.03667 13.4813 6.78557 13.523 6.53375 13.5138C6.04865 13.496 5.58932 13.2909 5.25239 12.9414C4.91547 12.5919 4.7272 12.1254 4.7272 11.64C4.7272 11.1546 4.91547 10.6881 5.25239 10.3386C5.58932 9.98914 6.04865 9.78397 6.53375 9.76625ZM12.7812 9.76625C13.0331 9.75705 13.2842 9.79871 13.5195 9.88873C13.7549 9.97875 13.9697 10.1153 14.1511 10.2902C14.3325 10.4651 14.4768 10.6748 14.5754 10.9067C14.6739 11.1386 14.7247 11.388 14.7247 11.64C14.7247 11.892 14.6739 12.1414 14.5754 12.3733C14.4768 12.6052 14.3325 12.8149 14.1511 12.9898C13.9697 13.1647 13.7549 13.3013 13.5195 13.3913C13.2842 13.4813 13.0331 13.523 12.7812 13.5138C12.2961 13.496 11.8368 13.2909 11.4999 12.9414C11.163 12.5919 10.9747 12.1254 10.9747 11.64C10.9747 11.1546 11.163 10.6881 11.4999 10.3386C11.8368 9.98914 12.2961 9.78397 12.7812 9.76625ZM19.0275 9.76625C19.2793 9.75705 19.5304 9.79871 19.7658 9.88873C20.0011 9.97875 20.2159 10.1153 20.3974 10.2902C20.5788 10.4651 20.7231 10.6748 20.8216 10.9067C20.9202 11.1386 20.971 11.388 20.971 11.64C20.971 11.892 20.9202 12.1414 20.8216 12.3733C20.7231 12.6052 20.5788 12.8149 20.3974 12.9898C20.2159 13.1647 20.0011 13.3013 19.7658 13.3913C19.5304 13.4813 19.2793 13.523 19.0275 13.5138C18.5424 13.496 18.0831 13.2909 17.7461 12.9414C17.4092 12.5919 17.221 12.1254 17.221 11.64C17.221 11.1546 17.4092 10.6881 17.7461 10.3386C18.0831 9.98914 18.5424 9.78397 19.0275 9.76625Z" />
</svg>
