<svg width="27" height="23" viewBox="0 0 27 23" fill="none" xmlns="http://www.w3.org/2000/svg">
<path d="M14.9108 11.1756C12.8246 11.1755 10.8993 11.7479 9.46949 12.8944C8.0397 14.0409 7.14059 15.7824 7.14063 17.9212V17.9229V17.9246C7.14083 17.9565 7.1441 19.8423 7.1441 19.8423L7.14063 22.4071H22.4772L22.49 19.8423C22.49 19.8423 22.4926 18.9156 22.4935 18.5599C22.4944 18.2042 22.4978 17.9086 22.4969 17.9348V17.9279V17.9209C22.4969 15.5679 21.4136 13.813 19.9288 12.7273C18.444 11.6416 16.5887 11.1753 14.9121 11.1753L14.9108 11.1756ZM14.9108 12.4697C16.341 12.4698 17.9556 12.8899 19.1624 13.7724C20.3692 14.6548 21.2014 15.9503 21.2014 17.9212C21.1997 18.0146 21.1988 18.2062 21.1979 18.5548C21.1971 18.9108 21.1962 19.3754 21.1945 19.8389C21.1928 20.2999 21.1902 20.7588 21.1876 21.1128H8.44292C8.4412 20.7588 8.43857 20.2993 8.43771 19.8389C8.43512 18.9144 8.43515 18.0224 8.43428 17.9212C8.43425 16.1328 9.12938 14.8247 10.2778 13.9038C11.4263 12.9829 13.0627 12.4697 14.9108 12.4697Z" />
<path d="M14.9095 0.114258C12.1845 0.114258 9.96191 2.33304 9.96191 5.05508C9.96191 7.77713 12.1845 9.99759 14.9095 9.99759C17.6345 9.99759 19.8587 7.77713 19.8587 5.05508C19.8587 2.33304 17.6345 0.114258 14.9095 0.114258ZM14.9095 1.40844C16.9363 1.40844 18.5645 3.03372 18.5645 5.05508C18.5645 7.07645 16.9363 8.70341 14.9095 8.70341C12.8826 8.70341 11.2561 7.07645 11.2561 5.05508C11.2561 3.03372 12.8826 1.40844 14.9095 1.40844Z" />
<path d="M6.79432 11.6914C4.84984 11.6913 3.15101 12.2314 1.9327 13.3209C0.714387 14.4104 0.0231874 16.0357 0.0234376 18.0056V18.0074V18.0091C0.0236101 18.0434 0.0269132 19.8847 0.0269132 19.8847L0.0399203 22.409H5.33699H6.05481V21.1148H5.33699H1.32468C1.32295 20.7699 1.32212 20.3287 1.32126 19.883C1.31953 18.9744 1.31864 18.088 1.31778 18.0024C1.31839 16.327 1.86534 15.1186 2.79565 14.2866C3.72599 13.4547 5.08716 12.9863 6.79111 12.9857C6.98366 12.9874 7.55437 13.0433 7.55437 13.0433C7.55437 13.0433 8.21304 12.257 8.51164 11.8768L7.87297 11.7774C7.51754 11.7221 7.15772 11.6935 6.79785 11.6915H6.79611L6.79432 11.6914Z" />
<path d="M6.72892 1.78429C4.27084 1.76704 2.24804 3.75613 2.23155 6.21115C2.21481 8.66616 4.21053 10.6824 6.66862 10.6985C7.732 10.7045 8.75783 10.3307 9.56574 9.65304C9.66391 9.57082 9.75794 9.48452 9.84895 9.39374L10.1776 9.06356L9.39312 8.02062L9.04614 8.38034C8.98255 8.44626 8.80422 8.60351 8.73492 8.6616C8.16121 9.14281 7.43129 9.40887 6.67568 9.40433C4.91562 9.39285 3.51378 7.97382 3.52574 6.21989C3.53756 4.46596 4.95844 3.06608 6.71849 3.07842C7.2551 3.08188 7.78323 3.22089 8.25092 3.48312L8.81502 3.8004C8.81502 3.8004 9.21964 2.74311 9.27659 2.57973L8.88379 2.35497C8.22542 1.98581 7.48391 1.78971 6.72892 1.78429Z" />
<path d="M23.625 11.25V13.5H24.75V11.25H27V10.125H24.75V7.875H23.625V10.125H21.375V11.25H23.625Z" />
</svg>
