<svg width="17" height="20" viewBox="0 0 17 20" fill="none" xmlns="http://www.w3.org/2000/svg">
<path d="M9.5 13H5C3.93913 13 2.92172 13.4214 2.17157 14.1716C1.42143 14.9217 1 15.9391 1 17V19"  stroke-width="2" stroke-linecap="round" stroke-linejoin="round"/>
<path d="M8 9C10.2091 9 12 7.20914 12 5C12 2.79086 10.2091 1 8 1C5.79086 1 4 2.79086 4 5C4 7.20914 5.79086 9 8 9Z"  stroke-width="2" stroke-linecap="round" stroke-linejoin="round"/>
<path d="M9.57674 17.4716L15.1966 11.9811L16.5692 13.3861L10.9494 18.8765M9.57674 17.4716L8.99857 19.4094L10.9494 18.8765M9.57674 17.4716L10.9494 18.8765ZM14.0727 13.0792L15.4453 14.4842Z" />
</svg>
