<svg width="17" height="18" viewBox="0 0 17 18" fill="none" xmlns="http://www.w3.org/2000/svg">
<path d="M9.5 11H5C3.93913 11 2.92172 11.4214 2.17157 12.1716C1.42143 12.9217 1 13.9391 1 15V17" stroke-linecap="round" stroke-linejoin="round"/>
<path d="M8 9C10.2091 9 12 7.20914 12 5C12 2.79086 10.2091 1 8 1C5.79086 1 4 2.79086 4 5C4 7.20914 5.79086 9 8 9Z" stroke-linecap="round" stroke-linejoin="round"/>
<path d="M15.6426 10.0951C15.7566 9.98117 15.847 9.84588 15.9086 9.69697C15.9703 9.54807 16.0021 9.38848 16.0021 9.2273C16.0021 9.06613 15.9703 8.90654 15.9086 8.75763C15.847 8.60873 15.7566 8.47343 15.6426 8.35947C15.5286 8.2455 15.3933 8.1551 15.2444 8.09342C15.0955 8.03175 14.9359 8 14.7748 8C14.6136 8 14.454 8.03175 14.3051 8.09342C14.1562 8.1551 14.0209 8.2455 13.9069 8.35947L7.76172 14.5047L9.49739 16.2403L15.6426 10.0951Z"  stroke-width="0.5" stroke-linecap="round" stroke-linejoin="round"/>
<path d="M7.75983 14.5045L7 17L9.4955 16.2401M13.2914 8.9729L15.0271 10.7086" stroke-width="0.5" stroke-linecap="round" stroke-linejoin="round"/>
</svg>
