<svg width="25" height="20" viewBox="0 0 25 20" fill="none" xmlns="http://www.w3.org/2000/svg">
<path fill-rule="evenodd" clip-rule="evenodd" d="M23.3594 2.80667L13.4953 11.52C13.215 11.7677 12.8624 11.9033 12.4984 11.9033C12.1344 11.9033 11.7819 11.7677 11.5016 11.52L1.64219 2.80667C1.58929 2.97652 1.56238 3.15435 1.5625 3.33333V16.6667C1.5625 17.1087 1.72712 17.5326 2.02015 17.8452C2.31317 18.1577 2.7106 18.3333 3.125 18.3333H21.875C22.2894 18.3333 22.6868 18.1577 22.9799 17.8452C23.2729 17.5326 23.4375 17.1087 23.4375 16.6667V3.33333C23.4381 3.15444 23.4117 2.97661 23.3594 2.80667ZM3.125 0H21.875C22.7038 0 23.4987 0.351189 24.0847 0.976311C24.6708 1.60143 25 2.44928 25 3.33333V16.6667C25 17.5507 24.6708 18.3986 24.0847 19.0237C23.4987 19.6488 22.7038 20 21.875 20H3.125C2.2962 20 1.50134 19.6488 0.915291 19.0237C0.32924 18.3986 0 17.5507 0 16.6667V3.33333C0 2.44928 0.32924 1.60143 0.915291 0.976311C1.50134 0.351189 2.2962 0 3.125 0ZM2.79687 1.66667L11.5094 9.33833C11.7884 9.58417 12.1388 9.71907 12.5007 9.71998C12.8626 9.72089 13.2136 9.58777 13.4937 9.34333L22.2937 1.66667H2.79687Z" />
</svg>
