<svg width="20" height="15" viewBox="0 0 20 15" fill="none" xmlns="http://www.w3.org/2000/svg">
<path d="M19.6551 15H0.344842C0.154413 15 0 14.8232 0 14.6052V0.394754C0 0.176763 0.154413 0 0.344842 0H19.6551C19.8455 0 20 0.176763 20 0.394754V14.6052C19.9999 14.8232 19.8455 15 19.6551 15Z" fill="#41479B"/>
<path d="M19.9999 0.394754C19.9999 0.176763 19.8455 0 19.6551 0H18.1123L11.7241 4.79121V0H8.27579V4.79121L1.88757 0H0.344842C0.154413 0 0 0.176763 0 0.394754V1.41567L5.4808 5.52629H0V9.47366H5.4808L0 13.5843V14.6052C0 14.8232 0.154413 15 0.344842 15H1.88761L8.27587 10.2088V15H11.7241V10.2088L18.1124 15H19.6552C19.8456 15 20 14.8232 20 14.6052V13.5843L14.5192 9.47371H19.9999V5.52634H14.5191L19.9999 1.41567V0.394754Z" fill="#F5F5F5"/>
<path d="M19.9999 6.3158H11.0344V0H8.96547V6.3158H0V8.6842H8.96547V15H11.0344V8.6842H19.9999V6.3158Z" fill="#FF4B55"/>
<path d="M6.99013 9.47363L0.00976562 14.6606C0.0341796 14.8512 0.171484 15 0.344803 15H0.819762L8.25684 9.47368H6.99013V9.47363Z" fill="#FF4B55"/>
<path d="M13.5306 9.47363H12.2639L19.6902 14.9918C19.8633 14.9707 19.9999 14.8089 19.9999 14.6052V14.2806L13.5306 9.47363Z" fill="#FF4B55"/>
<path d="M0 0.830343L6.31947 5.52617H7.58618L0.200898 0.0383301C0.0829294 0.101067 0 0.235886 0 0.394584V0.830343Z" fill="#FF4B55"/>
<path d="M12.9908 5.52629L19.988 0.326831C19.9589 0.14251 19.8245 0 19.6551 0H19.1611L11.7241 5.52629H12.9908Z" fill="#FF4B55"/>
</svg>
