<svg width="16" height="15" viewBox="0 0 16 15" fill="none" xmlns="http://www.w3.org/2000/svg">
<path d="M10.4379 7.45013C9.04715 7.45011 7.76357 7.8317 6.81039 8.59602C5.8572 9.36034 5.25779 10.5214 5.25781 11.9472V11.9484V11.9495C5.25795 11.9707 5.26013 13.228 5.26013 13.228L5.25781 14.9378H15.4822L15.4907 13.228C15.4907 13.228 15.4925 12.6102 15.4931 12.373C15.4936 12.1359 15.4959 11.9388 15.4953 11.9563V11.9517V11.947C15.4953 10.3784 14.7731 9.20844 13.7832 8.48463C12.7934 7.76081 11.5565 7.44996 10.4388 7.44995L10.4379 7.45013ZM10.4379 8.31292C11.3914 8.31292 12.4678 8.59303 13.2723 9.18133C14.0768 9.76962 14.6317 10.6333 14.6317 11.9472C14.6305 12.0095 14.6299 12.1372 14.6294 12.3696C14.6288 12.6069 14.6282 12.9167 14.6271 13.2257C14.6259 13.533 14.6242 13.8389 14.6225 14.075H6.12601C6.12486 13.8389 6.12311 13.5326 6.12253 13.2257C6.12081 12.6093 6.12083 12.0147 6.12025 11.9472C6.12023 10.7549 6.58365 9.88287 7.34928 9.26895C8.1149 8.65504 9.20587 8.3129 10.4379 8.31292Z"/>
<path d="M10.437 0.0751953C8.62037 0.0751953 7.13867 1.55438 7.13867 3.36908C7.13867 5.18377 8.62037 6.66409 10.437 6.66409C12.2537 6.66409 13.7366 5.18377 13.7366 3.36908C13.7366 1.55438 12.2537 0.0751953 10.437 0.0751953ZM10.437 0.937986C11.7883 0.937986 12.8738 2.0215 12.8738 3.36908C12.8738 4.71666 11.7883 5.80129 10.437 5.80129C9.08583 5.80129 8.00146 4.71666 8.00146 3.36908C8.00146 2.0215 9.08583 0.937986 10.437 0.937986Z" />
<path d="M5.0276 7.79321C3.73128 7.79317 2.59872 8.15323 1.78651 8.87957C0.974305 9.6059 0.513505 10.6894 0.513672 12.0027V12.0038V12.005C0.513787 12.0279 0.515989 13.2554 0.515989 13.2554L0.52466 14.9383H4.05604H4.53459V14.0755H4.05604H1.38117C1.38002 13.8455 1.37946 13.5514 1.37889 13.2543C1.37773 12.6485 1.37714 12.0576 1.37657 12.0005C1.37698 10.8836 1.7416 10.078 2.36181 9.52336C2.98204 8.96871 3.88949 8.65649 5.02545 8.65607C5.15382 8.65722 5.5343 8.69448 5.5343 8.69448C5.5343 8.69448 5.97341 8.17028 6.17247 7.91682L5.74669 7.85054C5.50974 7.81367 5.26986 7.79463 5.02995 7.79325H5.02879L5.0276 7.79321Z" />
<path d="M4.98464 1.18806C3.34592 1.17656 1.99739 2.50262 1.9864 4.1393C1.97524 5.77597 3.30572 7.12016 4.94445 7.13084C5.65337 7.13487 6.33725 6.88565 6.87586 6.4339C6.94131 6.37908 7.00399 6.32155 7.06467 6.26103L7.28373 6.04091L6.76078 5.34561L6.52946 5.58543C6.48707 5.62938 6.36818 5.73421 6.32198 5.77294C5.9395 6.09374 5.45289 6.27111 4.94915 6.26809C3.77578 6.26044 2.84122 5.31441 2.84919 4.14513C2.85707 2.97584 3.80433 2.04259 4.97769 2.05082C5.33543 2.05312 5.68752 2.1458 5.99931 2.32062L6.37537 2.53214C6.37537 2.53214 6.64513 1.82727 6.68309 1.71835L6.42122 1.56852C5.98231 1.32241 5.48797 1.19167 4.98464 1.18806Z" />
</svg>
