<svg width="20" height="20" viewBox="0 0 20 20" fill="none" xmlns="http://www.w3.org/2000/svg">
<path d="M14.375 4.44434C14.2092 4.44434 14.0503 4.5175 13.9331 4.64773C13.8158 4.77797 13.75 4.9546 13.75 5.13878C13.75 5.32296 13.8158 5.49959 13.9331 5.62983C14.0503 5.76006 14.2092 5.83322 14.375 5.83322H16.875C17.0408 5.83322 17.1997 5.76006 17.3169 5.62983C17.4342 5.49959 17.5 5.32296 17.5 5.13878C17.5 4.9546 17.4342 4.77797 17.3169 4.64773C17.1997 4.5175 17.0408 4.44434 16.875 4.44434H14.375ZM13.75 7.91656C13.75 7.73238 13.8158 7.55575 13.9331 7.42551C14.0503 7.29528 14.2092 7.22211 14.375 7.22211H16.875C17.0408 7.22211 17.1997 7.29528 17.3169 7.42551C17.4342 7.55575 17.5 7.73238 17.5 7.91656C17.5 8.10074 17.4342 8.27737 17.3169 8.4076C17.1997 8.53784 17.0408 8.611 16.875 8.611H14.375C14.2092 8.611 14.0503 8.53784 13.9331 8.4076C13.8158 8.27737 13.75 8.10074 13.75 7.91656ZM14.375 9.99989C14.2092 9.99989 14.0503 10.0731 13.9331 10.2033C13.8158 10.3335 13.75 10.5102 13.75 10.6943C13.75 10.8785 13.8158 11.0551 13.9331 11.1854C14.0503 11.3156 14.2092 11.3888 14.375 11.3888H16.875C17.0408 11.3888 17.1997 11.3156 17.3169 11.1854C17.4342 11.0551 17.5 10.8785 17.5 10.6943C17.5 10.5102 17.4342 10.3335 17.3169 10.2033C17.1997 10.0731 17.0408 9.99989 16.875 9.99989H14.375Z"/>
<path fill-rule="evenodd" clip-rule="evenodd" d="M3.75 0.277832C1.675 0.277832 0 2.13894 0 4.4445V15.5556C0 17.8612 1.675 19.7223 3.75 19.7223H16.25C18.325 19.7223 20 17.8612 20 15.5556V4.4445C20 2.13894 18.325 0.277832 16.25 0.277832H3.75ZM16.25 1.66672H12.5V18.3334H16.25C17.625 18.3334 18.75 17.0903 18.75 15.5556V4.4445C18.75 2.91672 17.6313 1.66672 16.25 1.66672ZM3.75 1.66672H11.25V18.3334H3.75C2.375 18.3334 1.25 17.0903 1.25 15.5556V4.4445C1.25 2.91672 2.36875 1.66672 3.75 1.66672Z" />
</svg>
