<svg width="25" height="26" viewBox="0 0 25 26" fill="none" xmlns="http://www.w3.org/2000/svg">
<path d="M4.75 5.75V18.25M9.75 5.75V9.5M14.75 5.75V14.5M19.75 5.75V12M1 2.75V23.75C1 23.9489 1.07902 24.1397 1.21967 24.2803C1.36032 24.421 1.55109 24.5 1.75 24.5H22.75C22.9489 24.5 23.1397 24.421 23.2803 24.2803C23.421 24.1397 23.5 23.9489 23.5 23.75V2.75C23.5 2.55109 23.421 2.36032 23.2803 2.21967C23.1397 2.07902 22.9489 2 22.75 2H1.75C1.55109 2 1.36032 2.07902 1.21967 2.21967C1.07902 2.36032 1 2.55109 1 2.75Z" stroke-width="1.5" stroke-linecap="round" stroke-linejoin="round"/>
</svg>
