<svg width="26" height="26" viewBox="0 0 26 26" fill="none" xmlns="http://www.w3.org/2000/svg">
<path fill-rule="evenodd" clip-rule="evenodd" d="M13 0.8125C6.26903 0.8125 0.8125 6.26903 0.8125 13C0.8125 19.731 6.26903 25.1875 13 25.1875C19.731 25.1875 25.1875 19.731 25.1875 13C25.1804 6.27197 19.728 0.819605 13 0.8125ZM9.90977 17.6875H16.0902C15.4609 19.8367 14.4062 21.7738 13 23.2996C11.5938 21.7738 10.5391 19.8367 9.90977 17.6875ZM9.48438 15.8125C9.17344 13.9504 9.17344 12.0496 9.48438 10.1875H16.5156C16.8266 12.0496 16.8266 13.9504 16.5156 15.8125H9.48438ZM2.6875 13C2.68668 12.049 2.81802 11.1024 3.07773 10.1875H7.58477C7.30508 12.0521 7.30508 13.9479 7.58477 15.8125H3.07773C2.81802 14.8976 2.68668 13.951 2.6875 13ZM16.0902 8.3125H9.90977C10.5391 6.16328 11.5938 4.22617 13 2.70039C14.4062 4.22617 15.4609 6.16328 16.0902 8.3125ZM18.4152 10.1875H22.9223C23.4426 12.0264 23.4426 13.9736 22.9223 15.8125H18.4152C18.6949 13.9479 18.6949 12.0521 18.4152 10.1875ZM22.184 8.3125H18.032C17.5536 6.4299 16.7501 4.64529 15.6578 3.03906C18.4798 3.79742 20.85 5.71268 22.184 8.3125ZM10.3422 3.03906C9.24987 4.64529 8.4464 6.4299 7.96797 8.3125H3.81602C5.14999 5.71268 7.52023 3.79742 10.3422 3.03906ZM3.81602 17.6875H7.96797C8.4464 19.5701 9.24987 21.3547 10.3422 22.9609C7.52023 22.2026 5.14999 20.2873 3.81602 17.6875ZM15.6578 22.9609C16.7501 21.3547 17.5536 19.5701 18.032 17.6875H22.184C20.85 20.2873 18.4798 22.2026 15.6578 22.9609Z" />
</svg>
