<svg width="25" height="27" viewBox="0 0 25 27" fill="none" xmlns="http://www.w3.org/2000/svg">
<path d="M13.4375 12.25C13.4375 12.0014 13.3387 11.7629 13.1629 11.5871C12.9871 11.4113 12.7486 11.3125 12.5 11.3125C12.2514 11.3125 12.0129 11.4113 11.8371 11.5871C11.6613 11.7629 11.5625 12.0014 11.5625 12.25V14.75C11.5625 14.9986 11.6613 15.2371 11.8371 15.4129C12.0129 15.5887 12.2514 15.6875 12.5 15.6875C12.7486 15.6875 12.9871 15.5887 13.1629 15.4129C13.3387 15.2371 13.4375 14.9986 13.4375 14.75V12.25Z" />
<path fill-rule="evenodd" clip-rule="evenodd" d="M14.6562 1.03376L17.6987 1.54126C19.1425 1.78126 20.3137 1.97626 21.2288 2.24876C22.1825 2.53376 22.97 2.93126 23.5763 3.64626C24.1825 4.36126 24.4463 5.20501 24.5688 6.19251C24.6875 7.14001 24.6875 8.32751 24.6875 9.79251V17.2088C24.6875 18.6725 24.6875 19.8588 24.5688 20.8075C24.4463 21.795 24.1825 22.6375 23.5763 23.3538C22.97 24.0688 22.1825 24.4663 21.2288 24.75C20.3137 25.0238 19.1425 25.2188 17.6987 25.4588L14.6562 25.9663C13.365 26.1813 12.2962 26.36 11.4437 26.38C10.5487 26.4013 9.72 26.2575 9.0275 25.6713C8.44375 25.1775 8.155 24.5338 8.0025 23.8125H7.4325C6.0175 23.8125 4.86 23.8125 3.945 23.69C2.99125 23.5613 2.16375 23.2838 1.5025 22.6225C0.84125 21.9613 0.56375 21.135 0.435 20.1788C0.3125 19.2663 0.3125 18.1088 0.3125 16.6913V10.3088C0.3125 8.89251 0.3125 7.73626 0.435 6.82126C0.56375 5.86751 0.84125 5.04001 1.5025 4.37876C2.16375 3.71751 2.99 3.44001 3.94625 3.31126C4.85875 3.18876 6.01625 3.18876 7.43375 3.18876H8.00375C8.15375 2.46751 8.44375 1.82376 9.02875 1.33001C9.72 0.74251 10.5487 0.60001 11.4437 0.62126C12.2962 0.64126 13.365 0.82001 14.6562 1.03501M7.8125 20.1688C7.8125 20.8138 7.8125 21.4038 7.82625 21.9375H7.5C6 21.9375 4.97 21.935 4.19625 21.8313C3.44875 21.7313 3.08375 21.5513 2.82875 21.2963C2.57375 21.0413 2.39375 20.6763 2.29375 19.9288C2.19 19.155 2.1875 18.125 2.1875 16.625V10.375C2.1875 8.87501 2.19 7.84501 2.29375 7.07126C2.39375 6.32376 2.57375 5.95876 2.82875 5.70376C3.08375 5.44876 3.44875 5.26876 4.19625 5.16876C4.97 5.06501 6 5.06251 7.5 5.06251H7.82625C7.8125 5.59626 7.8125 6.18626 7.8125 6.83126V20.1688ZM11.3988 2.49376C10.72 2.47751 10.4325 2.59626 10.24 2.75876C10.0475 2.92126 9.88375 3.18626 9.78875 3.85876C9.68875 4.55501 9.6875 5.50376 9.6875 6.90251V20.0975C9.6875 21.4963 9.69 22.445 9.78875 23.1425C9.88375 23.8138 10.0475 24.0788 10.24 24.2413C10.4325 24.4038 10.72 24.5213 11.3988 24.505C12.1025 24.4888 13.0388 24.335 14.4175 24.105L17.33 23.62C18.8488 23.3663 19.9037 23.1888 20.6938 22.9538C21.4587 22.7263 21.8637 22.4738 22.1462 22.1413C22.4287 21.8075 22.6087 21.3675 22.7087 20.575C22.8113 19.7575 22.8125 18.6875 22.8125 17.1463V9.85376C22.8125 8.31251 22.8113 7.24251 22.7087 6.42501C22.6087 5.63251 22.4275 5.19126 22.1462 4.85876C21.8637 4.52626 21.4587 4.27376 20.6938 4.04626C19.9037 3.81126 18.8487 3.63376 17.3288 3.38001L14.4175 2.89501C13.0388 2.66501 12.1025 2.51126 11.3988 2.49501" />
</svg>
