<svg width="25" height="25" viewBox="0 0 25 25" xmlns="http://www.w3.org/2000/svg">
<path d="M22.4207 10.0199C22.4207 9.69097 22.29 9.37555 22.0574 9.14299C21.8249 8.91043 21.5095 8.77978 21.1806 8.77978C20.8517 8.77978 20.5363 8.91043 20.3037 9.14299C20.0711 9.37555 19.9405 9.69097 19.9405 10.0199H22.4207ZM5.05954 10.0199C5.05954 9.69097 4.92889 9.37555 4.69633 9.14299C4.46377 8.91043 4.14835 8.77978 3.81946 8.77978C3.49057 8.77978 3.17515 8.91043 2.94259 9.14299C2.71003 9.37555 2.57938 9.69097 2.57938 10.0199H5.05954ZM22.784 13.3768C23.0179 13.6026 23.3311 13.7276 23.6563 13.7248C23.9814 13.722 24.2924 13.5916 24.5224 13.3616C24.7523 13.1317 24.8827 12.8207 24.8855 12.4956C24.8884 12.1704 24.7634 11.8572 24.5375 11.6233L22.784 13.3768ZM12.5 1.3393L13.3768 0.462566C13.1442 0.230087 12.8288 0.0994873 12.5 0.0994873C12.1712 0.0994873 11.8558 0.230087 11.6233 0.462566L12.5 1.3393ZM0.462566 11.6233C0.344126 11.7377 0.249654 11.8745 0.184663 12.0258C0.119671 12.1771 0.085462 12.3398 0.0840312 12.5045C0.0826004 12.6691 0.113977 12.8324 0.176329 12.9848C0.238681 13.1372 0.330761 13.2757 0.447195 13.3921C0.56363 13.5086 0.702087 13.6006 0.854488 13.663C1.00689 13.7253 1.17018 13.7567 1.33484 13.7553C1.4995 13.7539 1.66222 13.7196 1.81351 13.6547C1.96481 13.5897 2.10164 13.4952 2.21604 13.3768L0.462566 11.6233ZM6.29962 24.9008H18.7004V22.4207H6.29962V24.9008ZM22.4207 21.1806V10.0199H19.9405V21.1806H22.4207ZM5.05954 21.1806V10.0199H2.57938V21.1806H5.05954ZM24.5375 11.6233L13.3768 0.462566L11.6233 2.21604L22.784 13.3768L24.5375 11.6233ZM11.6233 0.462566L0.462566 11.6233L2.21604 13.3768L13.3768 2.21604L11.6233 0.462566ZM18.7004 24.9008C19.6871 24.9008 20.6333 24.5089 21.331 23.8112C22.0287 23.1135 22.4207 22.1672 22.4207 21.1806H19.9405C19.9405 21.5095 19.8098 21.8249 19.5773 22.0574C19.3447 22.29 19.0293 22.4207 18.7004 22.4207V24.9008ZM6.29962 22.4207C5.97073 22.4207 5.65531 22.29 5.42275 22.0574C5.19019 21.8249 5.05954 21.5095 5.05954 21.1806H2.57938C2.57938 22.1672 2.97133 23.1135 3.66901 23.8112C4.36669 24.5089 5.31295 24.9008 6.29962 24.9008V22.4207Z" />
</svg>
