<svg width="26" height="30" viewBox="0 0 26 30" fill="none" xmlns="http://www.w3.org/2000/svg">
<path d="M5.37383 12.25C5.37383 14.3801 5.96779 16.5374 7.00338 18.1685C8.0924 19.8839 9.51406 20.8286 11.0064 20.8286C12.4985 20.8286 13.9184 19.8844 15.0046 18.17C16.0368 16.5408 16.6288 14.3844 16.6288 12.2537V10.377C17.0462 8.0286 17.1338 5.99631 17.1331 4.70009C17.1322 3.02649 16.9929 1.87019 16.8628 1.34616C16.7938 1.06776 16.5865 0.898669 16.3723 0.925767C16.3369 0.921633 16.3006 0.922092 16.2639 0.928905C15.3921 1.09164 14.3226 0.811024 13.1902 0.51395C11.3555 0.0327065 9.28268 -0.510309 7.69736 0.925537C7.68324 0.923852 7.669 0.922705 7.65453 0.922705C6.76478 0.922705 5.97482 1.38718 5.43014 2.23057C4.92699 3.00965 4.6499 4.08152 4.6499 5.24877C4.6499 7.1605 5.2724 10.6935 5.37377 11.2562L5.37383 12.25ZM14.2824 17.3892C13.3776 18.8174 12.2141 19.6039 11.0064 19.6039C9.79801 19.6039 8.63264 18.8165 7.72496 17.3868C6.82654 15.9717 6.31133 14.0994 6.31133 12.25V11.5156C6.31133 10.001 7.08986 7.94195 7.38535 7.21515C11.6009 6.58587 14.4226 8.1066 15.0631 8.49821L15.6913 10.4319V12.2538C15.6913 14.1041 15.1778 15.9759 14.2824 17.3892ZM7.65459 2.14744C7.68857 2.14744 7.72168 2.14246 7.75361 2.13343C7.8824 2.16925 8.02186 2.13488 8.135 2.02267C9.39893 0.768541 11.2325 1.24948 13.0057 1.71472C13.9546 1.96365 14.8624 2.20171 15.7061 2.20171C15.823 2.20171 15.9386 2.19712 16.0529 2.18732C16.1942 3.22428 16.3083 5.45666 15.9906 8.2179L15.8582 7.81052C15.817 7.68361 15.7443 7.57867 15.6517 7.51246C15.5171 7.41624 12.3015 5.17176 7.06818 6.02999C6.91473 6.04017 6.76812 6.1481 6.68551 6.33487C6.65551 6.40269 6.24764 7.33318 5.89455 8.52317C5.7343 7.38906 5.5874 6.11366 5.5874 5.24861C5.58746 3.1064 6.62562 2.14744 7.65459 2.14744Z" />
<path d="M19.0792 22.1844C19.0691 22.1807 19.0589 22.1775 19.0487 22.1747L16.2597 21.4126L15.5225 19.952C15.5173 19.9417 15.5118 19.9316 15.5062 19.9217C15.3721 19.6882 15.168 19.5342 14.9462 19.4989C14.7245 19.4638 14.4981 19.5495 14.3251 19.7344C14.3221 19.7376 14.319 19.741 14.3161 19.7443L11.0001 23.4733L7.68402 19.7443C7.68104 19.7411 7.67805 19.7378 7.67506 19.7345C7.50209 19.5496 7.27562 19.4638 7.05391 19.4989C6.83213 19.5342 6.62799 19.6882 6.49398 19.9217C6.4883 19.9316 6.48285 19.9417 6.47769 19.952L5.74041 21.4126L2.95146 22.1747C2.94121 22.1775 2.93102 22.1807 2.92094 22.1844C2.11 22.4812 1.42012 23.138 0.92582 24.0839C0.474883 24.9467 0.226562 25.9883 0.226562 27.0169V28.1682C0.226562 29.1782 0.915039 30 1.76131 30H9.93279C9.93338 30 9.93396 30.0001 9.93455 30.0001C9.9352 30.0001 9.93584 30 9.93648 30H12.0636C12.0643 30 12.0649 30.0001 12.0655 30.0001C12.0661 30.0001 12.0667 30 12.0673 30H20.2388C21.0851 30 21.7735 29.1783 21.7735 28.1682V27.0169C21.7735 25.9883 21.5252 24.9467 21.0743 24.0839C20.5801 23.1381 19.8902 22.4812 19.0792 22.1844ZM14.8228 20.7906L15.4047 21.9434L13.0757 26.1269L11.6887 24.315L14.8228 20.7906ZM10.6926 27.5556H11.3076L11.4943 28.7754H10.5058L10.6926 27.5556ZM11.4688 25.9954C11.4688 26.197 11.3748 26.3308 11.3126 26.3308H10.6875C10.6253 26.3308 10.5313 26.197 10.5313 25.9954V25.7597L11 25.1473L11.4688 25.7597V25.9954H11.4688ZM7.17736 20.7906L10.3114 24.315L8.92445 26.1268L6.59541 21.9433L7.17736 20.7906ZM1.164 28.1682V27.0169C1.164 25.5723 1.84932 23.8592 3.15936 23.369L5.82455 22.6408L8.48893 27.4267C8.56955 27.5716 8.69465 27.663 8.83135 27.6771C8.84359 27.6784 8.85584 27.6789 8.86803 27.6789C8.99184 27.6789 9.11119 27.6149 9.19943 27.4996L9.74605 26.7855C9.77084 26.8453 9.79809 26.9028 9.82809 26.9571L9.54977 28.7752H1.76131C1.43752 28.7753 1.164 28.4973 1.164 28.1682ZM20.8362 28.1682C20.8362 28.4973 20.5626 28.7753 20.2389 28.7753H12.4504L12.1721 26.9572C12.2021 26.9028 12.2293 26.8454 12.2541 26.7856L12.8007 27.4997C12.889 27.6149 13.0083 27.679 13.1321 27.679C13.1443 27.679 13.1566 27.6784 13.1688 27.6772C13.3055 27.6632 13.4306 27.5717 13.5112 27.4268L16.1756 22.6408L18.8408 23.3691C20.1508 23.8593 20.8362 25.5724 20.8362 27.017V28.1682Z" />
<path d="M26 18.5714H22.5714V22H21.4286V18.5714H18V17.4286H21.4286V14H22.5714V17.4286H26V18.5714Z"/>
</svg>
