<svg width="15" height="8" viewBox="0 0 15 8" fill="none" xmlns="http://www.w3.org/2000/svg">
<path d="M5.41992 4.8125C5.7373 4.96528 6.02295 5.15278 6.27686 5.375C6.53076 5.59722 6.75049 5.84722 6.93604 6.125C7.12158 6.40278 7.26074 6.69907 7.35352 7.01389C7.44629 7.3287 7.49512 7.65741 7.5 8H6.5625C6.5625 7.63426 6.48926 7.28935 6.34277 6.96528C6.19629 6.6412 5.99365 6.3588 5.73486 6.11806C5.47607 5.87731 5.17822 5.6875 4.84131 5.54861C4.50439 5.40972 4.14062 5.33796 3.75 5.33333C3.36426 5.33333 3.00049 5.40278 2.65869 5.54167C2.31689 5.68056 2.01904 5.87269 1.76514 6.11806C1.51123 6.36343 1.31104 6.64583 1.16455 6.96528C1.01807 7.28472 0.942383 7.62963 0.9375 8H0C0 7.66204 0.0488281 7.33565 0.146484 7.02083C0.244141 6.70602 0.383301 6.40972 0.563965 6.13194C0.744629 5.85417 0.961914 5.60417 1.21582 5.38194C1.46973 5.15972 1.75781 4.96991 2.08008 4.8125C1.72363 4.5625 1.44531 4.24769 1.24512 3.86806C1.04492 3.48843 0.942383 3.08796 0.9375 2.66667C0.9375 2.30093 1.01074 1.95602 1.15723 1.63194C1.30371 1.30787 1.50635 1.02546 1.76514 0.784722C2.02393 0.543981 2.32178 0.354167 2.65869 0.215278C2.99561 0.0763889 3.35938 0.00462963 3.75 0C4.13574 0 4.49951 0.0694444 4.84131 0.208333C5.18311 0.347222 5.48096 0.539352 5.73486 0.784722C5.98877 1.03009 6.18896 1.3125 6.33545 1.63194C6.48193 1.95139 6.55762 2.2963 6.5625 2.66667C6.5625 3.08796 6.4624 3.48843 6.26221 3.86806C6.06201 4.24769 5.78125 4.5625 5.41992 4.8125ZM1.875 2.66667C1.875 2.91204 1.92383 3.1412 2.02148 3.35417C2.11914 3.56713 2.25342 3.75463 2.42432 3.91667C2.59521 4.0787 2.79297 4.20602 3.01758 4.29861C3.24219 4.3912 3.48633 4.43981 3.75 4.44444C4.00391 4.44444 4.24561 4.39815 4.4751 4.30556C4.70459 4.21296 4.90234 4.08565 5.06836 3.92361C5.23437 3.76157 5.36865 3.57407 5.47119 3.36111C5.57373 3.14815 5.625 2.91667 5.625 2.66667C5.625 2.42593 5.57617 2.19676 5.47852 1.97917C5.38086 1.76157 5.24658 1.57407 5.07568 1.41667C4.90479 1.25926 4.70459 1.13194 4.4751 1.03472C4.24561 0.9375 4.00391 0.888889 3.75 0.888889C3.49121 0.888889 3.24951 0.935185 3.0249 1.02778C2.80029 1.12037 2.60254 1.24769 2.43164 1.40972C2.26074 1.57176 2.12646 1.76157 2.02881 1.97917C1.93115 2.19676 1.87988 2.42593 1.875 2.66667ZM15 0V0.888889H8.4375V0H15ZM8.4375 3.55556H15V4.44444H8.4375V3.55556ZM8.4375 7.11111H15V8H8.4375V7.11111Z" />
</svg>
