<svg width="30" height="40" viewBox="0 0 30 40" fill="none" xmlns="http://www.w3.org/2000/svg">
<path d="M7.37344 16.3333C7.37344 19.1735 8.16539 22.0498 9.54617 24.2247C10.9982 26.5118 12.8937 27.7715 14.8835 27.7715C16.873 27.7715 18.7662 26.5125 20.2145 24.2267C21.5908 22.0544 22.3801 19.1792 22.3801 16.3383V13.8359C22.9366 10.7048 23.0534 7.99508 23.0525 6.26678C23.0513 4.03532 22.8655 2.49358 22.6921 1.79487C22.6 1.42368 22.3237 1.19823 22.038 1.23436C21.9909 1.22884 21.9425 1.22946 21.8935 1.23854C20.7311 1.45552 19.3051 1.08137 17.7952 0.685267C15.349 0.0436086 12.5852 -0.680413 10.4715 1.23405C10.4527 1.2318 10.4337 1.23027 10.4144 1.23027C9.22805 1.23027 8.17477 1.84958 7.44852 2.97409C6.77766 4.01287 6.4082 5.44203 6.4082 6.99835C6.4082 9.54733 7.2382 14.258 7.37336 15.0082L7.37344 16.3333ZM19.2516 23.1855C18.0452 25.0898 16.4938 26.1386 14.8835 26.1386C13.2723 26.1386 11.7185 25.0887 10.5083 23.1824C9.31039 21.2956 8.62344 18.7992 8.62344 16.3334V15.3541C8.62344 13.3346 9.66148 10.5893 10.0555 9.6202C15.6762 8.78116 19.4384 10.8088 20.2925 11.3309L21.1301 13.9092V16.3384C21.1301 18.8055 20.4454 21.3012 19.2516 23.1855ZM10.4145 2.86325C10.4598 2.86325 10.5039 2.85662 10.5465 2.84457C10.7182 2.89234 10.9041 2.84651 11.055 2.69689C12.7402 1.02472 15.185 1.66597 17.5493 2.2863C18.8145 2.6182 20.0248 2.93561 21.1498 2.93561C21.3056 2.93561 21.4598 2.92949 21.6123 2.91642C21.8006 4.29904 21.9527 7.27555 21.5291 10.9572L21.3527 10.414C21.2977 10.2448 21.2007 10.1049 21.0773 10.0166C20.8977 9.88832 16.6103 6.89568 9.63258 8.03999C9.42797 8.05356 9.2325 8.19747 9.12234 8.4465C9.08234 8.53693 8.53852 9.77758 8.06773 11.3642C7.85406 9.85208 7.6582 8.15154 7.6582 6.99815C7.65828 4.14187 9.0425 2.86325 10.4145 2.86325Z" />
<path d="M25.6466 29.5791C25.6332 29.5742 25.6196 29.5699 25.6059 29.5661L21.8873 28.55L20.9043 26.6026C20.8974 26.5888 20.8901 26.5753 20.8826 26.5621C20.7038 26.2509 20.4317 26.0454 20.136 25.9985C19.8404 25.9516 19.5384 26.0659 19.3078 26.3124C19.3038 26.3167 19.2997 26.3212 19.2958 26.3256L14.8745 31.2977L10.453 26.3257C10.4491 26.3213 10.4451 26.3169 10.4411 26.3125C10.2105 26.066 9.90851 25.9516 9.61289 25.9985C9.31719 26.0454 9.045 26.2509 8.86633 26.5621C8.85875 26.5753 8.85148 26.5888 8.84461 26.6026L7.86156 28.55L4.14297 29.5661C4.1293 29.5699 4.1157 29.5742 4.10227 29.5791C3.02102 29.9748 2.10117 30.8505 1.44211 32.1117C0.840859 33.2621 0.509766 34.651 0.509766 36.0224V37.5575C0.509766 38.9042 1.42773 39.9999 2.55609 39.9999H13.4514C13.4522 39.9999 13.453 40 13.4537 40C13.4546 40 13.4555 39.9999 13.4563 39.9999H16.2925C16.2934 39.9999 16.2942 40 16.2951 40C16.2959 40 16.2966 39.9999 16.2974 39.9999H27.1927C28.3211 39.9999 29.2391 38.9043 29.2391 37.5575V36.0224C29.2391 34.6509 28.908 33.2621 28.3067 32.1117C27.6478 30.8506 26.7279 29.9749 25.6466 29.5791ZM19.9714 27.7206L20.7473 29.2577L17.642 34.8357L15.7927 32.4199L19.9714 27.7206ZM14.4645 36.7407H15.2845L15.5334 38.367H14.2155L14.4645 36.7407ZM15.4995 34.6604C15.4995 34.9292 15.3741 35.1076 15.2911 35.1076H14.4577C14.3748 35.1076 14.2494 34.9292 14.2494 34.6604V34.3461L14.8744 33.5296L15.4994 34.3461V34.6604H15.4995ZM9.7775 27.7206L13.9562 32.4198L12.107 34.8356L9.00156 29.2576L9.7775 27.7206ZM1.75969 37.5575V36.0224C1.75969 34.0963 2.67344 31.8122 4.42016 31.1586L7.97375 30.1876L11.5263 36.5688C11.6338 36.762 11.8005 36.8839 11.9828 36.9027C11.9991 36.9044 12.0155 36.9051 12.0317 36.9051C12.1968 36.9051 12.3559 36.8197 12.4736 36.666L13.2024 35.7139C13.2355 35.7937 13.2718 35.8702 13.3118 35.9427L12.9407 38.3668H2.55609C2.12437 38.3669 1.75969 37.9962 1.75969 37.5575ZM27.9892 37.5575C27.9892 37.9962 27.6245 38.3669 27.1929 38.3669H16.8082L16.4371 35.9428C16.4771 35.8703 16.5134 35.7938 16.5465 35.714L17.2753 36.6661C17.393 36.8198 17.5521 36.9052 17.7172 36.9052C17.7334 36.9052 17.7498 36.9044 17.7661 36.9028C17.9484 36.8841 18.1152 36.7621 18.2227 36.5689L21.7752 30.1877L25.3287 31.1587C27.0755 31.8123 27.9892 34.0964 27.9892 36.0225V37.5575Z" />
</svg>
