<svg width="22" height="12" viewBox="0 0 22 12" fill="none" xmlns="http://www.w3.org/2000/svg">
<path d="M1.22223 12C0.87593 12 0.585856 11.904 0.352004 11.712C0.118152 11.52 0.000819029 11.2827 4.21455e-06 11C-0.0008106 10.7173 0.116523 10.48 0.352004 10.288C0.587486 10.096 0.87756 10 1.22223 10H20.7778C21.1241 10 21.4146 10.096 21.6492 10.288C21.8839 10.48 22.0008 10.7173 22 11C21.9992 11.2827 21.8819 11.5203 21.648 11.713C21.4142 11.9057 21.1241 12.0013 20.7778 12H1.22223ZM1.22223 7C0.87593 7 0.585856 6.904 0.352004 6.712C0.118152 6.52 0.000819029 6.28267 4.21455e-06 6C-0.0008106 5.71733 0.116523 5.48 0.352004 5.288C0.587486 5.096 0.87756 5 1.22223 5H20.7778C21.1241 5 21.4146 5.096 21.6492 5.288C21.8839 5.48 22.0008 5.71733 22 6C21.9992 6.28267 21.8819 6.52033 21.648 6.713C21.4142 6.90567 21.1241 7.00133 20.7778 7H1.22223ZM1.22223 2C0.87593 2 0.585856 1.904 0.352004 1.712C0.118152 1.52 0.000819029 1.28267 4.21455e-06 1C-0.0008106 0.717333 0.116523 0.48 0.352004 0.288C0.587486 0.0960001 0.87756 0 1.22223 0H20.7778C21.1241 0 21.4146 0.0960001 21.6492 0.288C21.8839 0.48 22.0008 0.717333 22 1C21.9992 1.28267 21.8819 1.52033 21.648 1.713C21.4142 1.90567 21.1241 2.00133 20.7778 2H1.22223Z" />
</svg>
