<svg width="30" height="42" viewBox="0 0 30 42" fill="none" xmlns="http://www.w3.org/2000/svg">
<path d="M15 1C17.1217 1 19.1569 1.84248 20.6572 3.34277C22.1575 4.84306 23 6.87827 23 9V21C23 23.1217 22.1575 25.1569 20.6572 26.6572C19.1569 28.1575 17.1217 29 15 29C12.8783 29 10.8431 28.1575 9.34277 26.6572C7.84248 25.1569 7 23.1217 7 21V9C7 6.87827 7.84248 4.84306 9.34277 3.34277C10.8431 1.84248 12.8783 1 15 1ZM15 2C13.1435 2 11.3626 2.73705 10.0498 4.0498C8.73705 5.36256 8 7.14348 8 9V21L8.00879 21.3467C8.09452 23.077 8.819 24.7194 10.0498 25.9502C11.3626 27.2629 13.1435 28 15 28C16.8565 28 18.6374 27.2629 19.9502 25.9502C21.2629 24.6374 22 22.8565 22 21V9C22 7.14348 21.2629 5.36256 19.9502 4.0498C18.6374 2.73705 16.8565 2 15 2ZM14.5 35H13.5C10.1848 35 7.00534 33.6831 4.66113 31.3389C2.31693 28.9947 1 25.8152 1 22.5V21C1 20.8674 1.05272 20.7403 1.14648 20.6465C1.24025 20.5527 1.36739 20.5 1.5 20.5C1.63261 20.5 1.75975 20.5527 1.85352 20.6465C1.94728 20.7403 2 20.8674 2 21V22.5C2 25.55 3.2115 28.4752 5.36816 30.6318C7.52483 32.7885 10.45 34 13.5 34H16.5C19.55 34 22.4752 32.7885 24.6318 30.6318C26.7885 28.4752 28 25.55 28 22.5V21C28 20.8674 28.0527 20.7403 28.1465 20.6465C28.2403 20.5527 28.3674 20.5 28.5 20.5C28.6326 20.5 28.7597 20.5527 28.8535 20.6465C28.9473 20.7403 29 20.8674 29 21V22.5L28.9961 22.8105C28.9166 26.0132 27.6098 29.068 25.3389 31.3389C22.9947 33.6831 19.8152 35 16.5 35H15.5V40H19.5C19.6326 40 19.7597 40.0527 19.8535 40.1465C19.9473 40.2403 20 40.3674 20 40.5C20 40.6326 19.9473 40.7597 19.8535 40.8535C19.7597 40.9473 19.6326 41 19.5 41H10.5C10.3674 41 10.2403 40.9473 10.1465 40.8535C10.0527 40.7597 10 40.6326 10 40.5C10 40.3674 10.0527 40.2403 10.1465 40.1465C10.2403 40.0527 10.3674 40 10.5 40H14.5V35Z" stroke-width="1"/>
</svg>
