<svg width="25" height="25" viewBox="0 0 25 25" fill="none" xmlns="http://www.w3.org/2000/svg">
<path fill-rule="evenodd" clip-rule="evenodd" d="M24.368 14.6676C24.1229 14.422 23.7623 14.3318 23.4305 14.4332C19.7882 15.5343 15.8355 14.5422 13.1449 11.8516C10.4543 9.16101 9.46216 5.20831 10.5633 1.56602C10.6655 1.23407 10.5758 0.872812 10.3302 0.627214C10.0846 0.381617 9.72335 0.291929 9.39141 0.394141C6.91995 1.15122 4.75024 2.66851 3.19102 4.73008C0.409753 8.42267 -0.0429146 13.371 2.0222 17.5069C4.08731 21.6428 8.31466 24.2543 12.9375 24.25C15.5817 24.2581 18.1555 23.3986 20.2641 21.8031C22.3256 20.2439 23.8429 18.0742 24.6 15.6027C24.701 15.2721 24.6118 14.9127 24.368 14.6676ZM19.1367 20.3055C15.0311 23.3978 9.27521 22.9947 5.64063 19.3605C2.00605 15.7262 1.60255 9.97029 4.69453 5.86445C5.66883 4.57781 6.92844 3.53482 8.37422 2.81758C8.29186 3.39558 8.25035 3.97866 8.25 4.5625C8.2571 11.2905 13.7095 16.7429 20.4375 16.75C21.0225 16.7498 21.6068 16.7083 22.1859 16.6258C21.468 18.0718 20.4242 19.3314 19.1367 20.3055Z" fill="black"/>
</svg>
