<svg width="23" height="25" viewBox="0 0 23 25" fill="none" xmlns="http://www.w3.org/2000/svg">
<g clip-path="url(#clip0_487_1250)">
<path d="M22.2961 19.9199C21.5786 19.271 20.9505 18.5271 20.4285 17.7083C19.8582 16.5782 19.5167 15.3437 19.4241 14.0775V10.3487C19.429 8.36015 18.718 6.43825 17.4246 4.94406C16.1313 3.44987 14.3446 2.48625 12.4003 2.23424V1.26051C12.4003 0.993248 12.2956 0.736936 12.1093 0.547956C11.9231 0.358976 11.6704 0.252808 11.407 0.252808C11.1435 0.252808 10.8909 0.358976 10.7046 0.547956C10.5183 0.736936 10.4137 0.993248 10.4137 1.26051V2.24934C8.48677 2.51951 6.72168 3.48896 5.44531 4.97813C4.16894 6.4673 3.46778 8.37527 3.4717 10.3487V14.0775C3.37911 15.3437 3.03758 16.5782 2.46724 17.7083C1.9545 18.5253 1.33643 19.2691 0.629441 19.9199C0.550075 19.9907 0.486466 20.0777 0.442847 20.1753C0.399228 20.273 0.376599 20.3789 0.376465 20.486V21.5126C0.376465 21.7128 0.454855 21.9048 0.594391 22.0464C0.733927 22.1879 0.923179 22.2675 1.12051 22.2675H21.805C22.0024 22.2675 22.1916 22.1879 22.3312 22.0464C22.4707 21.9048 22.5491 21.7128 22.5491 21.5126V20.486C22.5489 20.3789 22.5263 20.273 22.4827 20.1753C22.4391 20.0777 22.3755 19.9907 22.2961 19.9199ZM1.92408 20.7578C2.61619 20.0792 3.22569 19.319 3.73956 18.4933C4.45815 17.1285 4.87697 15.6221 4.96724 14.0775V10.3487C4.93773 9.46404 5.084 8.58242 5.39733 7.75633C5.71067 6.93024 6.18466 6.17656 6.79108 5.54017C7.39751 4.90379 8.12397 4.39771 8.92719 4.05208C9.73042 3.70645 10.594 3.52833 11.4665 3.52833C12.339 3.52833 13.2026 3.70645 14.0058 4.05208C14.809 4.39771 15.5355 4.90379 16.1419 5.54017C16.7483 6.17656 17.2223 6.93024 17.5357 7.75633C17.849 8.58242 17.9953 9.46404 17.9657 10.3487V14.0775C18.056 15.6221 18.4748 17.1285 19.1934 18.4933C19.7073 19.319 20.3168 20.0792 21.0089 20.7578H1.92408Z" />
<path d="M11.4999 24.7886C11.9686 24.7777 12.4184 24.5989 12.7697 24.284C13.121 23.969 13.3512 23.5382 13.4195 23.0676H9.50586C9.57615 23.551 9.81711 23.9919 10.1839 24.3085C10.5507 24.6251 11.0184 24.7957 11.4999 24.7886Z" />
</g>
</svg>
