<svg width="35" height="40" viewBox="0 0 35 40" fill="none" xmlns="http://www.w3.org/2000/svg">
<path d="M17.143 40L5.09158 25.7871C4.92412 25.5737 4.7584 25.359 4.59444 25.1429C2.53687 22.4306 1.42489 19.1187 1.42872 15.7143C1.42872 11.5466 3.08433 7.54961 6.03133 4.60261C8.97833 1.65561 12.9753 0 17.143 0C21.3107 0 25.3077 1.65561 28.2547 4.60261C31.2017 7.54961 32.8573 11.5466 32.8573 15.7143C32.8606 19.1171 31.7492 22.4273 29.693 25.1386L29.6916 25.1429C29.6916 25.1429 29.263 25.7057 29.1987 25.7814L17.143 40ZM6.87586 23.4214C6.87586 23.4214 7.20872 23.8614 7.28443 23.9557L17.143 35.5829L27.0144 23.94C27.0773 23.8614 27.4116 23.4186 27.413 23.4171C29.0947 21.2016 30.0036 18.4958 30.0001 15.7143C30.0001 12.3044 28.6456 9.03409 26.2344 6.62291C23.8232 4.21173 20.5529 2.85714 17.143 2.85714C13.7331 2.85714 10.4628 4.21173 8.05163 6.62291C5.64045 9.03409 4.28586 12.3044 4.28586 15.7143C4.28234 18.4976 5.19222 21.2051 6.87586 23.4214Z" />
<path d="M24.2857 22.857H21.4286V11.4284H12.8571V22.857H10V11.4284C10 10.6707 10.301 9.94395 10.8368 9.40813C11.3727 8.87231 12.0994 8.57129 12.8571 8.57129H21.4286C22.1863 8.57129 22.9131 8.87231 23.4489 9.40813C23.9847 9.94395 24.2857 10.6707 24.2857 11.4284V22.857Z" />
<path d="M15.7144 20.0004H18.5715V22.8576H15.7144V20.0004ZM15.7144 14.2861H18.5715V17.1433H15.7144V14.2861Z" />
</svg>
