<svg width="20" height="22" viewBox="0 0 20 22" fill="none" xmlns="http://www.w3.org/2000/svg">
<path d="M16.3949 2.34066C15.8792 1.82496 15.1798 1.53524 14.4504 1.53524C13.7211 1.53524 13.0217 1.82496 12.5059 2.34066L2.78295 12.0627C1.93903 12.9066 1.46492 14.0512 1.46492 15.2447C1.46492 16.4381 1.93903 17.5827 2.78295 18.4267C3.62687 19.2706 4.77147 19.7447 5.96495 19.7447C7.15843 19.7447 8.30303 19.2706 9.14695 18.4267L17.8089 9.76466C17.9503 9.62797 18.1398 9.55228 18.3364 9.5539C18.5331 9.55551 18.7212 9.6343 18.8603 9.77329C18.9994 9.91228 19.0784 10.1004 19.0802 10.297C19.082 10.4937 19.0065 10.6831 18.8699 10.8247L10.2079 19.4877C9.07964 20.5977 7.55839 21.217 5.97557 21.2106C4.39275 21.2041 2.87659 20.5725 1.75736 19.4532C0.638126 18.334 0.00649491 16.8179 4.98092e-05 15.235C-0.00639529 13.6522 0.612868 12.131 1.72295 11.0027L11.4459 1.27966C11.9712 0.742101 12.6297 0.353465 13.3542 0.153374C14.0786 -0.0467172 14.8432 -0.0511059 15.5699 0.140655C16.2966 0.332397 16.9594 0.71339 17.4908 1.24479C18.0222 1.7762 18.4032 2.43901 18.5949 3.16566C18.7867 3.89238 18.7823 4.65696 18.5822 5.38143C18.3821 6.10591 17.9935 6.76436 17.4559 7.28966L8.26295 16.4827C7.77094 16.9777 7.10291 17.2578 6.40495 17.2617C5.70815 17.2578 5.04135 16.9777 4.55095 16.4827C4.35495 16.2867 4.21295 16.0127 4.12095 15.7567C4.01086 15.4534 3.95402 15.1333 3.95295 14.8107C3.95295 14.1107 4.23695 13.4377 4.72795 12.9467L12.86 4.81566C12.9516 4.71693 13.0682 4.64476 13.1975 4.60675C13.3267 4.56873 13.4638 4.56628 13.5944 4.59966C13.7249 4.63303 13.844 4.70099 13.9391 4.79638C14.0343 4.89176 14.1019 5.01104 14.1349 5.14166C14.1683 5.27204 14.1659 5.40898 14.128 5.53812C14.0902 5.66726 14.0183 5.78385 13.9199 5.87566L5.78895 14.0077C5.57606 14.221 5.45541 14.5093 5.45295 14.8107C5.45595 15.0147 5.50595 15.2157 5.59895 15.3977L5.61895 15.4297C5.83895 15.6447 6.11995 15.7617 6.40495 15.7617C6.69495 15.7617 6.98495 15.6407 7.20295 15.4217L16.3949 6.22966C16.6504 5.97428 16.8531 5.67106 16.9914 5.33733C17.1297 5.0036 17.2009 4.6459 17.2009 4.28466C17.2009 3.92341 17.1297 3.56571 16.9914 3.23198C16.8531 2.89825 16.6504 2.59503 16.3949 2.33966V2.34066Z" />
</svg>
