<svg width="709" height="264" viewBox="0 0 709 264" fill="none" xmlns="http://www.w3.org/2000/svg">
<path d="M1 257.999C5.264 257.999 9.446 257.62 13.684 257.606C18 257.591 22.306 257.999 26.622 257.999C27.999 257.999 29.416 258.231 30.779 257.946C32.578 257.57 33.167 256.609 33.127 254.826C33.064 252.028 32.578 249.247 32.593 246.448C32.607 243.649 33.187 240.724 34.974 238.569C35.472 239.556 35.418 240.739 35.129 241.806C34.84 242.872 34.334 243.866 33.942 244.898C32.937 247.544 32.728 250.472 33.27 253.246C33.617 255.024 34.086 257.134 36.099 257.526C37.348 257.769 38.496 257.37 39.732 257.214C41.326 257.013 42.951 257.061 44.531 257.357C45.514 257.541 46.487 257.821 47.486 257.842C48.486 257.864 49.551 257.583 50.206 256.828C51.045 255.862 50.997 254.437 50.903 253.161C50.596 249.009 50.288 244.856 49.981 240.704C49.868 239.179 49.61 237.411 48.285 236.647C47.127 235.98 45.673 236.396 44.408 236.827C43.202 237.238 41.996 237.649 40.791 238.06C40.236 238.249 39.426 238.322 39.251 237.762C39.096 237.269 39.637 236.859 40.098 236.625C42.411 235.447 44.723 234.269 47.036 233.09C48.618 232.284 47.639 231.233 47.917 229.479C50.112 215.629 52.306 201.779 54.501 187.93C55.997 178.487 59.722 171.614 62.509 162.469C62.84 161.383 63.174 160.237 62.929 159.129C62.684 158.021 61.636 157.002 60.521 157.214C59.216 157.462 58.723 159.039 58.484 160.346C54.323 183.057 50.005 205.739 45.529 228.391C45.258 229.764 44.967 231.181 44.166 232.328C42.713 234.407 39.904 235.104 37.374 234.925C33.152 234.627 32.746 227.412 32.48 224.373C32.199 221.163 32.212 217.928 32.517 214.72C33.228 207.238 35.069 199.724 36.369 192.322C37.74 184.519 39.111 176.716 40.482 168.913C40.847 166.835 41.205 164.65 40.515 162.656C39.88 160.82 38.443 159.399 37.166 157.935C35.201 155.681 33.524 153.176 32.19 150.5C31.606 149.329 31.076 148.02 31.367 146.744C31.631 145.588 32.52 144.688 33.412 143.907C35.8 141.815 38.502 140.081 41.398 138.781C42.525 138.275 43.976 137.88 44.887 138.715C45.344 139.133 45.531 139.762 45.694 140.359C46.876 144.677 47.834 149.056 48.561 153.474C48.699 154.311 48.827 155.176 48.622 155.998C48.417 156.821 47.792 157.598 46.953 157.717C46.022 157.85 45.185 157.176 44.508 156.522C40.987 153.115 37.881 148.853 36.168 144.237C35.468 142.35 34.429 140.609 33.728 138.724C32.935 136.59 33.275 134.914 33.121 132.746C32.812 128.416 30.907 123.894 29.975 119.643C29.03 115.33 28.441 110.946 28.077 106.548C27.635 101.207 26.775 95.8558 26.856 90.4828C26.935 85.2208 27.753 79.8818 28.871 74.8288C30.509 67.4288 30.166 58.7808 36.718 53.6058C39.21 51.6378 43.508 49.7098 45.85 53.0568C47.297 55.1238 46.05 57.6618 45.764 59.9118C45.339 63.2648 44.912 66.6178 44.485 69.9708C42.576 84.9868 43.038 100.582 42.626 115.771C42.515 119.857 42.412 124.01 43.465 127.96C44.519 131.909 46.912 135.698 50.599 137.463C59.894 141.912 71.514 137.957 81.815 138.237C82.908 138.267 84.071 138.278 85.001 137.704C86.852 136.561 86.778 133.89 86.459 131.738C85.127 122.754 83.998 114.023 83.821 104.939C83.643 95.8188 84.039 86.5378 85.075 77.4598C85.575 73.0778 86.281 68.6938 86.159 64.2848C86.038 59.8758 85.021 55.3588 82.398 51.8128C81.457 50.5408 80.073 49.3178 78.503 49.5138C77.172 51.6138 75.948 56.1978 72.571 54.4388C71.646 53.9568 71.03 53.0518 70.453 52.1818C69.921 51.3798 69.388 50.5778 68.856 49.7758C67.504 50.2728 66.773 51.5448 65.812 52.6178C64.493 54.0908 62.636 55.0708 60.676 55.3288C59.63 53.9368 58.139 52.9608 56.701 51.9778C55.263 50.9948 53.81 49.9378 52.901 48.4518C51.991 46.9668 51.748 44.9408 52.761 43.5238C52.678 43.1148 53.234 43.3708 53.476 43.7108C53.718 44.0508 53.511 44.5588 53.161 44.7868C52.811 45.0148 52.372 45.0428 51.956 45.0758C48.53 45.3468 45.173 46.4458 42.252 48.2548C41.706 48.5928 41.142 48.9668 40.502 49.0128C39.861 49.0588 39.134 48.6258 39.123 47.9828C39.11 47.2228 39.987 46.8158 40.703 46.5598C43.47 45.5718 46.02 43.9828 48.126 41.9338C48.608 41.4648 49.104 40.9508 49.758 40.7928C50.12 40.7058 50.499 40.7368 50.87 40.6998C52.153 40.5698 53.286 39.5158 53.508 38.2458C53.743 38.1078 53.91 37.7038 54.145 37.5658C54.953 39.5438 55.769 41.5348 56.935 43.3258C58.101 45.1168 59.652 46.7138 61.597 47.5978C63.665 48.5368 66.006 48.6088 68.277 48.6648C69.71 48.6998 71.2 48.7238 72.502 48.1258C74.1 47.3918 75.211 45.7018 75.251 43.9438C75.383 38.1558 77.057 36.3998 77.045 30.6108C77.045 30.3848 77.035 30.1368 76.885 29.9668C76.494 29.5228 75.818 30.0648 75.447 30.5258C73.911 32.4338 71.382 33.4938 68.945 33.2518C66.508 33.0098 64.237 31.4718 63.107 29.2988C62.447 28.0298 62.158 26.5788 61.378 25.3798C60.598 24.1808 59.03 23.2748 57.746 23.9048C58.126 27.7228 57.829 31.6078 56.875 35.3238C56.069 32.5728 55.255 29.7518 55.44 26.8908C55.535 25.4198 55.937 23.9498 56.665 22.6648C56.969 22.1298 57.32 21.5238 57.681 21.0338C57.801 20.8708 59.036 19.7238 59.234 19.9328C58.791 19.4658 58.014 19.3608 57.463 19.6938C57.183 19.8628 56.912 20.1418 56.59 20.0808C56.365 20.0388 56.201 19.8278 56.145 19.6058C56.089 19.3838 56.12 19.1498 56.156 18.9228C56.605 16.0508 57.732 13.4488 59.19 10.9698C60.686 8.42477 63.303 6.43178 66.246 6.19478C68.969 5.97578 71.601 7.22277 74.328 7.38577C76.559 7.51977 79.212 6.75677 81.329 7.71777C82.861 8.41377 83.431 10.9368 83.392 12.4618C83.354 13.9178 82.88 15.3338 82.225 16.6338C81.699 17.6778 81.201 18.2538 80.038 18.1238C78.782 17.9838 77.618 17.7048 76.526 17.0438C75.357 16.3358 74.332 15.4068 73.153 14.7148C70.756 13.3098 67.751 12.9878 65.111 13.8518C64.601 14.0188 63.03 14.5858 63.131 15.3338C63.273 16.3818 66.154 15.6468 66.805 15.5398C69.035 15.1718 71.362 15.5358 73.405 16.4908C74.534 17.0178 75.167 17.8278 76.117 18.6018C77.123 19.4218 78.218 20.1328 79.378 20.7158C79.561 20.8078 79.755 20.9038 79.868 21.0748C80.039 21.3308 79.979 21.6708 79.909 21.9708C79.52 23.6368 79.013 25.2808 78.791 26.9778C78.52 29.0568 79.268 30.9038 79.16 32.9138C79.034 35.2658 78.778 37.6078 78.647 39.9598C78.556 41.5858 78.491 43.3218 79.317 44.7248C80.337 46.4558 82.402 47.1968 84.108 48.2578C87.448 50.3348 89.631 53.9168 90.797 57.6738C91.963 61.4308 92.218 65.3998 92.465 69.3258C93.208 81.1168 91.498 90.0588 93.833 101.64C94.658 105.732 96.066 109.728 96.346 113.893C96.639 118.249 95.451 122.353 93.908 126.36C92.386 130.314 92.236 134.788 93.525 138.826C94.307 141.274 95.594 143.568 96.067 146.094C96.54 148.62 95.952 151.612 93.774 152.976C92.703 153.647 91.177 153.78 90.248 152.923C89.66 152.381 89.42 151.563 89.287 150.775C88.998 149.062 89.097 147.31 88.983 145.577C88.868 143.844 88.507 142.053 87.439 140.683C86.501 145.217 85.427 149.912 85.056 154.533C84.84 157.234 85.415 159.744 85.227 162.461C85.002 165.696 84.616 168.919 84.071 172.116C83.393 176.093 82.47 180.029 81.308 183.893C80.167 187.687 78.09 191.22 77.192 195.027C76.008 200.05 76.269 205.727 75.975 210.867C75.644 216.661 75.312 222.456 74.981 228.25C74.867 230.242 74.699 232.38 73.438 233.927C72.42 235.176 70.852 235.826 69.325 236.342C67.41 236.99 65.232 237.488 63.43 236.57C60.824 235.242 60.362 231.78 60.229 228.858C59.594 214.892 58.96 200.925 58.325 186.959C58.201 184.224 58.106 181.439 58.602 178.732C58.819 177.549 59.432 174.778 61.295 176.001C62.562 176.833 62.565 180.531 62.783 181.842C63.627 186.926 64.208 192.053 64.527 197.197C65.165 207.485 64.755 217.839 63.307 228.044C62.033 237.024 59.955 245.892 57.08 254.495C56.667 255.73 56.488 257.517 57.723 257.93C58.865 258.312 59.812 257 60.265 255.883C61.999 251.604 63.002 247.03 63.22 242.419C64.702 242.834 66.271 242.086 67.462 241.11C68.652 240.134 69.644 238.909 70.953 238.098C72.261 237.287 74.074 236.986 75.282 237.94C76.528 241.863 79.224 245.062 82.87 246.972C86.516 248.882 90.509 250.058 94.17 251.938C95.367 252.552 96.644 253.403 96.877 254.727C97.2 256.564 95.026 258.803 93.438 259.486C91.02 260.525 87.058 260.098 84.453 260.157C78.238 260.296 72.012 259.888 65.869 258.935C65.305 258.848 64.616 258.636 64.529 258.073C64.418 257.353 65.365 256.994 66.089 256.91C79.001 255.414 92.031 254.934 105.019 255.477C113.809 255.844 117.329 256.056 126.103 255.419C132.613 254.946 139.194 255.468 145.547 256.963C147.426 257.405 149.76 257.79 150.975 256.291C151.67 255.433 151.717 254.236 151.732 253.131C151.912 239.934 152.092 226.737 152.271 213.54C152.436 201.472 152.494 189.402 152.806 177.336C152.962 171.318 153.182 165.301 153.508 159.29C153.804 153.834 153.431 147.338 155.371 142.184C155.566 141.665 155.978 141.053 156.513 141.198C156.998 141.33 157.098 141.962 157.104 142.464C157.231 153.234 156.604 163.995 155.896 174.738C155.562 179.813 155.485 185.001 154.843 190.031C154.164 195.35 153.08 200.634 152.265 205.935C149.945 221.016 148.444 236.222 147.771 251.466C147.708 252.886 146.942 253.288 145.651 253.885C144.361 254.482 142.866 254.35 141.452 254.207C139.1 253.968 136.747 253.729 134.395 253.49C132.646 253.312 130.15 252.586 128.478 253.133C128.745 250.29 133.668 249.849 135.763 249.605C138.758 249.257 141.84 249.595 144.665 250.661C145.231 250.875 145.897 251.317 145.752 251.904C145.604 252.506 144.783 252.57 144.167 252.502C141.235 252.178 138.303 251.854 135.372 251.53C134.544 251.439 133.596 251.273 133.174 250.554C132.843 249.99 132.963 249.282 133.087 248.64C135.545 235.941 134.684 223.216 135.512 210.409C136.356 197.353 136.829 184.203 135.379 171.172C135.177 169.352 134.937 167.535 134.656 165.725C133.473 158.101 131.562 150.6 130.501 142.958C129.44 135.316 129.255 127.401 131.482 120.015C131.679 119.362 132.151 118.687 132.734 118.333C133.316 117.979 133.997 117.83 134.634 117.589C139.252 115.845 140.765 109.84 144.944 107.213C145.727 106.721 146.66 106.352 147.564 106.544C148.164 106.672 148.684 107.032 149.186 107.385C152.737 109.878 156.398 112.488 158.585 116.236C159.24 117.358 159.756 118.723 159.284 119.933C158.622 121.627 156.417 122.095 154.613 121.871C150.156 121.319 146.488 118.229 143.127 115.25C141.942 114.2 140.682 113.006 140.481 111.436C140.243 109.573 141.559 107.925 142.477 106.285C142.873 105.577 143.207 104.709 142.857 103.976C142.62 103.48 142.123 103.171 141.675 102.853C138.861 100.856 137.178 97.5698 136.428 94.2018C135.678 90.8338 135.763 87.3438 135.851 83.8948C135.884 82.6078 135.276 78.4788 137.488 78.5398C139.974 78.6078 138.763 84.3388 138.404 85.6768C137.567 88.7978 136.092 91.7958 135.95 95.0238C135.769 99.1448 137.773 103.009 139.722 106.645C138.837 109.542 137.413 112.052 135.26 114.183C134.708 114.73 134.047 115.271 133.27 115.277C132.495 115.283 131.832 114.756 131.239 114.257C129.579 112.857 127.919 111.458 126.258 110.058C124.527 108.599 122.721 107.034 121.981 104.894C121.274 102.851 121.654 100.612 122.04 98.4848C123.875 88.3938 125.709 78.3038 127.544 68.2128C127.988 65.7708 128.482 63.2158 130.046 61.2878C132.351 58.4448 136.329 57.7058 139.969 57.3158C140.077 61.2468 141.434 65.0588 143.477 68.3908C144.537 70.1208 145.786 71.7328 147.177 73.2088C148.013 74.0958 150.269 76.9328 151.624 76.7508C152.989 76.5678 152.888 72.9168 152.921 71.8958C152.987 69.8248 152.736 67.7438 152.168 65.7508C151.566 63.6408 150.612 61.5948 150.497 59.4038C150.372 57.0228 151.248 54.7208 151.94 52.4378C152.631 50.1558 153.141 47.6578 152.306 45.4238C150.97 41.8488 152.499 39.0988 153.097 35.3298C153.695 31.5608 154.972 27.8278 157.326 24.8248C158.376 23.4858 159.625 22.3118 160.985 21.2928C162.347 20.2718 163.89 19.7518 164.905 18.3048C165.144 17.9648 165.355 17.5788 165.359 17.1638C165.363 16.7488 165.098 16.3048 164.688 16.2338C164.26 16.1598 163.849 16.5238 163.736 16.9438C163.624 17.3638 163.741 17.8108 163.906 18.2128C164.333 19.2578 165.064 20.1428 165.737 21.0488C167.968 24.0508 169.682 27.5228 170.131 31.2358C170.309 32.7058 170.417 34.4658 169.96 35.8818C169.431 37.5218 168.839 39.1608 167.957 40.6488C166.918 42.4028 165.419 43.9568 163.512 44.6758C159.788 46.0788 156.607 43.6618 154.165 41.1188C152.255 44.0718 150.232 47.3788 149.07 50.6978C147.908 54.0168 147.436 57.6548 148.27 61.0708C148.706 62.8558 149.485 64.5408 149.951 66.3188C150.417 68.0968 150.545 70.0658 149.712 71.7038C145.004 67.6008 142.394 61.2058 142.887 54.9798C143.228 50.6798 144.943 46.5828 145.328 42.2858C145.645 38.7568 145.068 35.0998 146.153 31.7278C146.864 29.5198 148.246 27.5858 149.057 25.4138C149.78 23.4798 150.044 21.3748 150.984 19.5358C152.16 17.2368 154.343 15.5348 156.779 14.6798C159.215 13.8248 161.886 13.7708 164.426 14.2348C167.381 14.7748 171.027 15.2148 172.659 17.7368C174.291 20.2588 174.664 23.3808 174.759 26.3828C174.854 29.3848 174.721 32.4388 175.501 35.3398C176.384 38.6228 178.43 41.8518 177.663 45.1638C177.262 46.8928 176.109 48.4418 176.073 50.2168C176.011 53.2428 179.111 55.3748 179.977 58.2748C180.809 61.0588 179.435 64.0348 177.657 66.3328C175.879 68.6308 173.647 70.6158 172.331 73.2058C171.857 74.1388 171.5 75.1528 170.81 75.9408C170.121 76.7288 168.96 77.2388 168.013 76.7938C166.898 76.2698 166.67 74.8088 166.628 73.5788C166.582 72.2068 166.684 70.8448 166.702 69.4868C166.72 68.1608 166.219 66.7698 166.124 65.4228C165.916 62.4928 166.324 59.5168 167.336 56.7578C167.764 55.5928 168.297 54.4618 168.594 53.2568C168.891 52.0518 168.932 50.7318 168.394 49.6138C168.165 49.1388 167.159 47.7478 166.505 47.8498C165.453 48.0138 166.557 49.3388 166.812 49.7278C167.568 50.8818 167.218 52.4198 166.711 53.7028C165.635 56.4288 165.438 59.1468 164.99 62.0218C164.738 63.6348 164.355 65.3538 163.154 66.4598C161.887 67.6268 159.916 67.8218 158.305 67.2138C156.693 66.6058 155.419 65.3048 154.523 63.8338C153.627 62.3628 153.068 60.7158 152.516 59.0848C156.82 60.4408 161.573 60.3248 165.806 58.7588C168.912 57.6108 171.841 55.6878 175.15 55.5668C177.42 55.4838 179.652 56.2798 181.601 57.4458C183.55 58.6118 185.254 60.1378 186.945 61.6538C189.288 63.7548 189.206 65.2688 189.967 68.3228C191.949 76.2688 193.931 84.2158 195.912 92.1618C196.854 95.9398 197.776 100.039 196.252 103.622C194.829 106.968 191.58 109.115 188.463 110.986C186.247 112.317 184.008 113.61 181.748 114.865C180.829 115.375 179.805 115.896 178.775 115.683C177.89 115.5 177.207 114.81 176.627 114.116C174.536 111.614 173.042 108.615 172.305 105.438C172.173 104.868 172.096 104.182 172.519 103.778C172.911 103.403 173.577 103.474 174.018 103.789C174.46 104.103 174.731 104.599 174.987 105.077C175.827 106.646 176.668 108.215 177.508 109.784C177.647 110.044 177.85 110.342 178.145 110.325C178.596 110.298 178.635 109.646 178.52 109.209C177.803 106.48 176.664 103.862 175.155 101.478C176.509 100.481 177.97 99.5368 179.19 98.3958C180.298 97.3588 181.516 96.6698 183.081 96.5478C183.694 96.4998 184.389 96.5788 184.78 97.0528C185.171 97.5278 184.913 98.4568 184.299 98.4368C183.83 98.4218 183.548 97.9218 183.372 97.4858C181.089 91.8158 180.846 85.5628 180.632 79.4548C180.505 83.5928 179.983 87.7178 179.076 91.7578C178.602 93.8698 178 96.0068 176.749 97.7728C175.151 100.028 172.653 101.459 170.161 102.654C167.669 103.848 165.06 104.901 162.931 106.662C160.802 108.424 159.186 111.091 159.507 113.836C159.653 115.079 160.179 116.244 160.736 117.365C160.952 117.799 161.199 118.257 161.63 118.481C162.265 118.81 163.033 118.51 163.672 118.189C166.806 116.617 169.686 114.541 172.169 112.066C172.865 113.925 175.001 115.27 176.793 116.124C178.585 116.978 180.71 117.108 182.593 116.479C181.436 116.882 182.946 126.896 182.956 128.103C183.037 137.998 182.062 147.527 181.257 157.34C179.993 172.746 180.363 188.223 180.736 203.658C180.969 213.327 181.203 222.997 181.436 232.666C181.518 236.05 181.599 239.435 181.681 242.819C181.719 244.401 181.574 246.123 181.857 247.68C182.118 249.121 181.389 252.103 179.394 251.56C174.013 250.095 168.119 250.594 163.061 252.944C162.973 252.985 161.025 245.642 160.917 244.942C160.482 242.133 160.879 239.305 161.047 236.484C161.408 230.402 161.672 224.307 161.52 218.213C161.279 208.561 160 198.969 158.724 189.4C158.031 184.209 157.831 178.966 157.865 173.733C157.882 171.107 157.958 168.482 158.06 165.858C158.128 164.101 157.45 160.801 158.729 159.347C159.561 158.401 159.744 160.109 159.915 160.825C160.267 162.299 160.58 163.784 160.876 165.271C162.06 171.219 162.861 177.24 163.381 183.281C164.427 195.431 164.346 207.646 163.971 219.825C163.934 221.042 163.893 222.259 163.85 223.475C163.436 235.273 165.241 241.352 165.279 253.158C165.283 254.307 165.323 255.569 166.087 256.427C166.673 257.084 167.567 257.361 168.424 257.566C173.37 258.749 178.656 258.469 183.449 256.771C179.678 252.909 173.342 251.847 168.518 254.268C169.273 256.427 172.091 256.849 174.377 256.9C192 257.295 209.63 257.287 227.257 257.279C228.43 257.279 226.416 257.646 227.568 257.426C228.72 257.207 229.811 256.184 229.669 255.02C229.558 254.104 228.738 253.31 228.891 252.4C229.033 251.556 229.924 251.09 230.709 250.751C232.516 249.972 234.323 249.192 236.13 248.413C237.402 247.864 238.703 247.297 239.706 246.342C240.709 245.387 241.37 243.948 241.025 242.606C240.811 241.774 239.851 240.984 239.149 241.479C238.652 241.829 238.663 242.549 238.642 243.157C238.566 245.421 237.268 247.607 235.317 248.757C233.801 249.65 231.725 250.192 231.287 251.896C231.09 252.66 231.306 253.464 231.522 254.223C231.832 255.317 232.203 256.499 233.14 257.142C234.042 257.761 235.227 257.714 236.318 257.642C241.403 257.309 246.488 256.976 251.573 256.643C252.184 256.603 252.833 256.549 253.323 256.183C254.271 255.474 254.147 254.041 253.927 252.878C253.12 248.616 252.312 244.354 251.505 240.092C251.443 239.767 251.366 239.413 251.109 239.204C250.841 238.986 250.462 238.99 250.116 239.006C248.061 239.099 246.006 239.191 243.951 239.284C243.521 239.303 242.962 239.442 242.939 239.872C242.928 240.079 243.061 240.264 243.201 240.416C244.525 241.855 246.954 241.875 248.572 240.777C250.19 239.679 251.059 237.72 251.278 235.776C251.496 233.832 251.146 231.874 250.775 229.954C250.404 228.034 250.01 226.09 250.141 224.138C250.993 211.45 250.114 198.307 252.407 185.799C253.404 180.359 255.128 174.981 255.585 169.465C256.062 163.709 256.124 157.919 255.771 152.155C255.746 151.738 255.692 151.269 255.362 151.012C254.956 150.696 254.321 150.897 254 151.3C253.679 151.702 253.589 152.236 253.51 152.745C251.482 165.779 251.412 178.954 250.023 192.062C249.35 198.418 248.858 204.796 248.714 211.187C248.55 218.463 248.838 225.769 249.013 233.075C249.033 233.921 249.052 234.782 248.828 235.599C248.259 237.673 246.668 237.729 244.84 237.972C242.615 238.267 240.389 238.563 238.164 238.858C237.768 238.91 237.317 238.947 237.018 238.683C236.748 238.444 236.704 238.046 236.678 237.687C235.721 224.438 234.763 211.189 233.806 197.94C232.472 179.477 231.458 162.122 229.296 143.737C244.403 139.795 260.756 138.029 276.162 140.564C277.662 140.811 279.209 141.087 280.688 140.735C282.167 140.383 283.572 139.214 283.672 137.697C283.996 132.771 282.54 127.659 281.713 122.806C280.831 117.628 279.945 112.451 279.059 107.273C277.915 100.492 276.739 93.7158 275.579 86.9378C275.014 83.6358 274.432 80.3338 274.031 77.0068C273.666 73.9798 272.835 70.5878 274.023 67.6628C274.826 71.6328 275.628 75.6028 276.431 79.5728C276.606 80.4388 276.807 81.3548 277.419 81.9918C278.213 82.8168 279.473 82.9488 280.617 82.9468C282.853 82.9428 285.089 82.6168 287.234 81.9838C287.923 81.7808 288.732 81.3818 288.747 80.6628C288.76 80.0868 288.195 79.6318 287.624 79.5558C287.053 79.4798 286.486 79.6828 285.947 79.8828C283.541 80.7738 280.964 81.7998 279.601 83.9728C278.074 86.4088 279.116 88.8568 279.617 91.4008C280.252 94.6238 281.448 97.7858 282.23 100.985C283.54 106.346 284.561 111.778 285.283 117.249C285.603 119.671 285.748 122.092 286.31 124.488C286.657 125.964 286.89 127.461 287.198 128.93C287.542 130.572 287.932 131.818 287.596 133.538C287.278 135.165 286.632 136.707 286.181 138.302C285.393 141.09 285.389 144.289 285.762 147.159C285.792 147.394 285.87 147.678 286.101 147.732C286.363 147.793 286.562 147.506 286.675 147.262C287.459 145.564 288.254 143.783 288.652 141.961C288.876 143.953 289.278 146.093 288.856 148.053C288.462 149.882 287.787 151.707 287.982 153.568C288.177 155.429 289.655 157.35 291.519 157.186C292.528 157.097 293.411 156.41 293.967 155.563C294.523 154.716 294.8 153.719 295.031 152.733C295.047 152.665 295.062 152.597 295.078 152.529C295.856 149.129 296.181 145.617 295.971 142.133C295.764 138.692 294.637 135.472 294.596 132.038C294.488 123.173 294.365 114.308 294.26 105.443C294.21 101.197 294.23 97.0988 293.496 92.9098C292.756 88.6908 291.768 84.5148 290.535 80.4128C288.945 75.1228 288.315 69.2718 286.638 64.0088C285.705 61.0788 284.588 58.1798 282.911 55.6028C281.234 53.0258 278.956 50.7728 276.15 49.5158C272.18 47.7368 267.623 48.0998 263.29 48.4968C260.948 48.7118 258.153 46.7798 257.044 44.7068C252.634 46.8278 246.884 45.6838 243.622 42.0358C245.381 42.9828 247.191 43.8668 249.127 44.3628C251.062 44.8578 253.198 44.8548 254.971 43.9348C256.954 42.9058 258.245 40.8518 258.855 38.7028C259.466 36.5538 259.481 34.2878 259.492 32.0538C260.356 32.4468 261.823 32.1178 262.464 31.4178C263.105 30.7178 263.381 29.7548 263.491 28.8118C263.614 27.7588 263.536 26.6298 262.958 25.7398C262.381 24.8508 261.197 24.2978 260.216 24.7008C260.331 22.7158 260.072 20.3758 259.679 18.4268C259.285 16.4778 258.321 14.5648 256.681 13.4408C254.54 11.9738 251.728 12.0988 249.139 12.2798C247.98 12.3608 246.727 12.4808 245.865 13.2598C245.201 13.8598 244.882 14.7608 244.263 15.4078C243.34 16.3728 241.922 16.6248 240.613 16.8888C239.723 17.0688 238.748 17.3378 238.263 18.1048C237.885 18.7018 237.901 19.4588 237.938 20.1638C238.056 22.4268 238.264 24.6858 238.56 26.9318C238.021 25.6438 237.344 24.6948 237.32 23.2988C237.295 21.9028 237.915 20.4018 239.171 19.7908C240.78 19.0068 242.963 19.8368 244.342 18.6958C245.178 18.0038 245.399 16.8168 246.052 15.9498C247.1 14.5588 249.021 14.2358 250.75 14.0188C252.206 13.8368 253.816 13.6898 255.015 14.5358C256.106 15.3068 256.55 16.6968 256.807 18.0088C257.063 19.3198 257.222 20.7058 257.974 21.8108C258.165 22.0928 258.457 22.3758 258.793 22.3228C259.257 22.2508 259.383 21.6508 259.399 21.1808C259.5 18.3288 259.598 15.4348 258.924 12.6618C258.25 9.88877 256.695 7.20378 254.205 5.80878C251.725 4.41878 248.476 4.53277 246.099 6.09277C245.095 6.75177 244.234 7.64578 243.127 8.10878C242.138 8.52178 241.037 8.55578 239.998 8.81878C237.921 9.34378 236.184 10.7578 234.682 12.2858C233.864 13.1178 233.061 14.0548 232.834 15.1998C232.544 16.6578 233.24 18.1108 233.915 19.4338C234.986 21.5328 236.058 23.6328 237.129 25.7318C237.47 26.3998 237.79 26.7948 238.18 27.4368C237.578 26.4458 235.639 27.1698 235.037 27.7138C233.962 28.6848 234.247 30.4048 234.587 31.6948C234.879 32.8048 235.507 33.8628 236.48 34.4718C237.452 35.0808 238.793 35.1558 239.724 34.4868C239.454 34.6808 241.211 38.7388 241.361 39.2498C242.664 43.6838 240.566 47.0738 237.484 50.0528C239.998 51.9938 242.495 54.1988 245.496 55.2378C248.497 56.2768 251.922 56.4338 254.777 55.0418C257.524 53.7028 259.483 51.0938 262.212 49.7188C261.706 53.0528 259.273 56.0238 256.105 57.1778C253.241 58.2208 250.068 57.8228 247.079 57.2258C244.785 56.7678 242.491 56.1918 240.398 55.1468C238.305 54.1018 236.408 52.5518 235.282 50.5008C229.835 50.8318 224.149 54.1708 221.392 58.8798C218.588 63.6698 218.344 69.4818 218.173 75.0298C218.08 78.0528 217.986 81.0768 217.893 84.0998C217.843 85.7098 217.808 87.3918 218.504 88.8438C219.303 90.5108 220.975 91.6278 222.741 92.1768C223.42 92.3878 227.011 93.4238 227.264 92.4018C227.635 90.9028 223.381 90.1888 222.509 90.1658C220.346 90.1088 218.174 90.9838 216.655 92.5248C216.484 94.6888 216.218 96.7738 216.146 98.9668C216.065 101.436 215.983 103.904 215.902 106.373C215.601 115.5 215.118 124.491 215.525 133.621C215.666 136.788 215.616 139.972 215.183 143.116C214.846 145.555 214.279 147.993 214.451 150.449C214.601 152.599 215.312 154.671 216.161 156.652C216.665 157.828 217.352 159.102 218.578 159.465C219.64 159.78 220.83 159.259 221.517 158.389C222.203 157.52 222.447 156.37 222.434 155.263C222.421 154.156 222.174 153.066 221.975 151.977C221.599 149.918 221.104 146.068 222.98 144.553C223.393 146.414 223.585 148.053 224.719 149.679C224.829 149.837 224.979 150.009 225.171 149.996C225.468 149.976 225.541 149.575 225.528 149.278C225.41 146.492 225.672 143.244 224.969 140.545C224.209 137.622 224.089 135.308 224.544 132.275C226.401 119.887 228.259 107.499 230.117 95.1108C230.516 92.4508 229.948 92.2908 230.4 89.6388C231.108 85.4898 231.815 81.3418 232.523 77.1928C232.133 79.4778 232.498 82.1518 232.461 84.4778C232.421 86.9968 232.362 89.5148 232.281 92.0328C232.12 97.0478 231.873 102.061 231.526 107.067C231.18 112.069 230.733 117.064 230.175 122.047C229.895 124.546 229.587 127.042 229.25 129.534C228.887 132.215 227.272 138.05 231.498 138.513C233.628 138.747 236.067 138.111 238.189 137.896C240.727 137.638 243.267 137.395 245.809 137.179C255.951 136.316 266.157 135.869 276.324 136.563C276.527 136.577 276.731 136.591 276.934 136.606C278.999 136.756 281.364 137.134 282.439 138.903C283.355 140.409 282.868 142.063 282.948 143.699C283.08 146.406 283.89 149.197 284.227 151.93C284.65 155.356 285.03 158.787 285.369 162.222C285.804 166.638 286.17 171.06 286.465 175.487C286.773 180.093 286.669 184.564 287.465 189.121C287.999 192.177 287.01 195.179 287.655 198.24C290.261 210.609 291.3 219.72 291.877 232.347C291.946 233.868 291.99 235.465 291.312 236.828C290.104 239.258 287.118 240.1 284.469 240.69C282.91 241.037 280.97 241.257 280.003 239.985C279.508 239.335 279.435 238.469 279.367 237.655C278.212 223.679 273.575 210.329 269.045 197.158C266.801 190.633 264.558 184.101 262.726 177.445C261.817 174.142 261.01 170.81 260.361 167.445C260.044 165.8 259.762 164.147 259.528 162.488C259.441 161.868 259.312 161.244 259.406 160.617C259.476 160.151 259.811 159.633 260.215 159.42C260.923 160.456 261.324 162.347 261.825 163.587C262.516 165.297 263.18 167.017 263.82 168.747C265.098 172.205 266.275 175.7 267.356 179.225C269.522 186.284 271.307 193.458 272.77 200.694C275.707 215.218 277.353 229.981 278.197 244.767C278.214 245.062 278.23 245.358 278.247 245.653C278.45 249.349 278.356 250.984 278.33 254.686C278.325 255.438 278.354 256.278 278.891 256.804C279.289 257.194 279.872 257.311 280.422 257.404C287.557 258.613 294.884 258.68 302.04 257.601C302.76 257.492 303.641 257.215 303.738 256.494C303.818 255.901 303.292 255.416 302.805 255.067C300.758 253.599 298.479 252.454 296.08 251.687C294.653 251.231 293.174 250.904 291.827 250.248C290.479 249.592 289.24 248.539 288.774 247.115C288.288 245.627 288.713 244.012 289.139 242.505C289.272 242.035 289.466 241.498 289.929 241.344C290.639 241.108 291.209 241.936 291.52 242.616C292.102 243.885 292.231 245.321 292.902 246.603C293.558 247.856 294.425 248.999 295.458 249.965C295.936 250.412 296.463 250.74 296.98 251.119C297.52 251.514 297.957 252.088 298.448 252.55C299.484 253.524 300.616 254.401 301.844 255.122C306.231 257.697 311.319 258.084 316.265 258.399C321.852 258.754 327.439 259.109 333.027 259.464C334.086 259.531 335.157 259.598 336.201 259.412C337.245 259.226 338.277 258.759 338.94 257.931C339.983 256.629 339.903 254.789 339.817 253.123C339.563 248.177 339.716 243.21 340.274 238.289C340.437 236.853 340.58 235.228 339.638 234.133C338.951 239.539 338.503 244.975 338.296 250.421C338.23 252.165 338.166 253.99 337.3 255.505C336.396 257.085 334.685 258.114 332.889 258.413C331.094 258.712 329.231 258.336 327.571 257.59C327.14 257.396 326.692 257.151 326.484 256.726C326.27 256.29 326.362 255.773 326.457 255.297C328.01 247.572 329.585 239.774 332.784 232.572C335.15 232.764 337.933 232.749 340.299 232.941C341.291 233.022 342.349 233.089 343.221 232.609C344.22 232.059 344.729 230.931 345.164 229.877C349.172 220.182 352.654 210.269 355.591 200.197C359.717 186.044 364.483 173.108 368.29 158.865C368.583 157.769 368.864 156.662 368.987 155.532C369.051 154.941 369.354 153.042 368.606 152.775C368.295 152.664 368.098 152.841 367.922 153.056C367.087 154.075 366.542 155.566 366.03 156.768C365.483 158.053 365.017 159.371 364.599 160.704C363.767 163.362 363.133 166.076 362.462 168.777C360.625 176.173 358.362 183.381 355.124 190.289C354.509 191.601 354.415 192.987 353.966 194.365C353.342 196.279 352.723 198.195 352.118 200.116C350.909 203.957 349.744 207.813 348.626 211.681C347.754 214.697 346.909 217.721 346.092 220.753C345.733 222.085 345.371 223.35 344.852 224.61C344.421 225.656 344.337 227.034 343.42 227.812C342.781 228.354 341.887 228.448 341.052 228.518C339.411 228.656 337.771 228.795 336.13 228.933C335.009 229.028 333.638 229.001 333.072 228.028C332.769 227.507 332.807 226.863 332.855 226.262C334.204 209.459 336.661 192.62 342.249 176.716C346.763 163.868 343.275 150.778 342.35 137.192C342.015 132.264 341.575 127.166 343.224 122.51C344.448 119.053 346.741 116.095 348.997 113.203C350.223 111.632 351.449 110.06 352.674 108.489C353.56 107.353 354.91 106.087 355.044 104.598C355.209 102.768 354.498 100.483 354.253 98.6558C353.985 96.6588 353.717 94.6618 353.45 92.6648C360.278 93.7868 367.161 94.8058 374.08 94.6938C380.999 94.5828 388.005 93.2928 394.107 90.0308C394.755 93.7528 393.959 98.0218 393.742 101.811C393.692 102.689 394.011 105.326 393.245 105.898C392.438 106.501 389.445 105.843 388.436 105.797C384.852 105.636 381.267 105.475 377.683 105.314C370.591 104.996 363.498 104.677 356.406 104.359C355.198 104.305 353.928 104.263 352.848 104.808C351.886 105.293 351.202 106.182 350.56 107.047C348.139 110.311 345.834 113.66 343.652 117.088C342.315 107.225 340.714 97.0768 340.984 87.1268C341.254 77.1768 342.902 67.1718 346.831 58.0268C347.533 56.3928 348.328 54.7708 349.416 53.3538C349.936 52.6768 350.515 51.3938 351.492 51.3288C352.512 51.2618 352.608 52.2808 352.699 53.0708C353.026 55.9058 352.904 58.8358 352.431 61.6458C351.845 65.1268 350.675 68.4978 350.238 72.0008C349.579 77.2858 350.662 82.7738 353.279 87.4128C353.717 88.1898 354.049 89.4378 353.211 89.7458C352.336 90.0678 351.801 88.7888 351.753 87.8588C351.431 81.6748 351.369 75.4778 351.565 69.2888C351.673 65.8978 351.917 62.3228 353.798 59.4998C356.841 67.1738 364.872 72.5818 373.127 72.5158C378.483 72.4728 383.535 71.3798 387.969 68.3738C392.402 65.3678 395.615 60.4358 396.037 55.0968C395.94 56.1078 395.375 56.9508 394.477 57.4238C393.359 58.0128 392.04 57.3058 390.852 56.8758C389.21 56.2808 387.376 56.2328 385.705 56.7398C384.379 57.1418 382.982 57.8858 381.692 57.3818C380.864 57.0578 380.293 56.2628 380.025 55.4158C379.756 54.5688 379.748 53.6638 379.748 52.7758C379.75 47.7548 379.975 42.7378 380.2 37.7218C380.346 34.4548 380.497 30.4748 379.101 27.5168C377.883 24.9338 375.609 22.9538 374.454 20.3418C374.033 19.3888 373.725 18.3088 372.897 17.6768C371.692 16.7568 369.823 17.1378 368.66 16.1648C368.21 15.7888 367.927 15.2538 367.555 14.8008C366.635 13.6808 364.968 13.9488 364.4 15.2818C363.719 16.8808 364.04 19.0498 364.277 20.7058C364.547 22.5968 364.944 24.4918 364.823 26.3988C364.694 28.4478 363.658 30.3848 363.426 32.4648C363.21 34.3948 363.002 37.2588 363.986 39.0168C364.833 40.5288 365.659 42.4618 367.374 43.1688C369.435 44.0188 371.526 44.3638 373.628 43.4198C375.368 42.6378 376.774 41.2658 378.007 39.8088C377.767 42.2258 376.396 44.7348 374.258 45.8878C372.12 47.0408 369.552 47.2508 367.171 46.7708C366.598 46.6558 365.926 46.5268 365.493 46.9188C365.108 47.2668 365.106 47.8588 365.121 48.3778C365.217 51.7678 364.767 55.1738 363.792 58.4218C363.19 60.4278 361.028 60.2938 359.013 59.7188C357.3 59.2308 356.033 57.7048 355.423 56.0318C354.813 54.3588 354.764 52.5388 354.784 50.7578C354.85 44.8778 355.594 39.0288 356.338 33.1958C356.947 28.4148 357.556 23.6328 358.166 18.8518C358.419 16.8648 358.712 14.7778 359.921 13.1808C361.13 11.5838 363.583 10.7418 365.187 11.9408C367.434 9.34578 370.958 6.65777 374.372 6.29777C377.786 5.93777 381.324 6.92078 384.062 8.99078C388.246 12.1528 390.269 17.4398 391.17 22.6068C392.07 27.7738 392.056 33.0808 393.188 38.2018C394.104 42.3478 395.754 46.2898 397.394 50.2058C398.008 51.6698 398.682 53.2118 399.979 54.1278C400.933 54.8018 402.113 55.0518 403.25 55.3168C404.388 55.5818 405.564 55.8988 406.444 56.6678C407.324 57.4368 407.805 58.7878 407.235 59.8068C409.219 70.8608 411.142 80.0388 411.084 91.2698C411.025 102.501 408.797 113.961 402.891 123.514C401.111 120.518 399.036 117.519 397.255 114.522C397.022 114.13 396.785 113.727 396.699 113.279C396.548 112.484 396.891 111.689 397.202 110.942C399.53 105.344 400.391 99.1418 399.674 93.1218C399.245 89.5138 398.351 87.6988 398.482 84.0678C398.569 81.6468 398.991 79.2478 399.085 76.8268C399.179 74.4058 398.919 71.8948 397.743 69.7778C397.581 76.3018 396.345 82.7978 394.1 88.9248C392.931 92.1158 391.471 95.3018 391.398 98.6988C391.308 102.885 393.347 106.922 393.115 111.102C394.567 113.87 396.683 116.199 398.569 118.667C400.449 121.128 400.621 124.35 400.9 127.395C401.535 134.319 400.812 141.284 399.92 148.151C398.73 157.309 397.313 166.475 395.429 175.519C395.114 177.03 394.453 178.301 394.024 179.753C393.473 181.618 393.732 183.744 393.641 185.668C393.421 190.328 392.843 194.972 391.911 199.543C390.649 205.739 388.744 211.788 387.41 217.969C386.13 223.903 385.373 229.969 383.504 235.745C379.981 236.177 375.397 237.263 373.165 234.503C371.707 232.701 371.598 230.193 371.554 227.875C371.554 219.072 371.224 210.255 371.059 201.453C370.893 192.601 370.727 183.75 370.561 174.898C370.507 172.021 370.453 169.144 370.399 166.268C370.372 164.807 370.344 163.347 370.317 161.887C370.301 161.032 370.164 160.135 370.32 159.287C370.399 158.859 370.425 158.611 370.89 158.781C371.443 158.983 371.432 159.825 371.555 160.296C372.631 164.435 373.423 168.585 373.929 172.833C374.116 174.399 374.275 175.969 374.42 177.54C376.46 199.609 375.801 221.927 372.462 243.838C371.502 250.141 369.216 253.341 365.355 258.415C364.836 259.097 364.262 259.926 364.534 260.739C364.877 261.763 366.233 261.927 367.313 261.908C371.081 261.841 374.849 261.774 378.618 261.707C379.411 261.693 380.278 261.651 380.87 261.124C381.464 260.595 381.604 259.734 381.701 258.944C382.253 254.434 382.571 249.896 382.654 245.353C382.694 243.158 382.629 240.799 381.336 239.025C380.731 243.587 380.127 248.149 379.522 252.711C379.234 254.881 378.779 257.328 376.938 258.513C375.583 259.384 373.851 259.307 372.242 259.229C370.276 259.133 368.309 259.081 366.341 259.072C365.847 259.07 365.341 259.072 364.877 259.242C364.413 259.412 363.992 259.785 363.906 260.271C363.814 260.787 364.124 261.312 364.554 261.612C364.984 261.912 365.515 262.027 366.034 262.102C368.657 262.481 371.317 261.999 373.945 261.655C380.122 260.845 386.398 260.792 392.587 261.498C412.388 263.756 428.011 261.143 447.94 261.145C448.863 261.145 450.097 260.861 450.109 259.938C450.115 259.504 449.81 259.131 449.489 258.84C447.042 256.614 443.153 256.862 440.433 254.98C439.016 253.999 438.033 252.517 436.764 251.351C433.716 248.549 428.93 247.828 425.192 249.607C423.234 250.539 420.026 253.353 419.736 255.617C419.498 257.481 421.415 257.571 422.645 256.819C424.799 255.503 426.733 253.416 428.67 251.793C430.376 250.364 432.117 248.893 433.225 246.962C434.883 244.073 434.905 240.563 434.883 237.233C434.883 228.196 433.628 218.37 435.08 209.456C436.042 203.554 436.452 197.563 436.335 191.584C436.224 185.913 435.103 180.509 435.265 174.875C435.623 162.442 435.934 150 435.54 137.564C438.776 135.492 442.05 133.657 445.792 132.786C449.683 131.88 453.74 131.661 457.518 130.36C458.843 129.904 460.213 129.308 461.591 129.561C462.963 129.813 464.036 130.853 465.018 131.844C466.049 132.884 467.158 134.132 467.011 135.589C466.679 138.881 465.846 141.984 465.089 145.186C464.775 146.514 464.406 147.829 464.16 149.186C463.901 150.609 463.611 152.078 462.762 153.284C462.316 153.918 461.736 154.449 461.311 155.097C460.865 155.776 460.424 156.814 460.442 157.643C460.462 158.523 460.688 159.291 460.579 160.21C460.317 162.413 459.415 164.479 458.595 166.519C457.768 168.577 457.007 170.662 456.316 172.77C455.764 174.454 455.831 175.856 455.564 177.535C454.876 181.859 453.454 186.143 452.617 190.456C450.933 199.141 449.822 207.938 449.297 216.769C449.129 219.595 449.021 222.425 448.973 225.255C448.888 230.26 447.923 235.166 447.114 240.089C446.72 242.488 446.374 244.899 446.227 247.328C446.152 248.564 446.127 249.804 446.167 251.042C446.193 251.85 445.952 253.981 447.328 253.001C448.077 252.468 448.155 250.842 448.343 250.006C448.632 248.717 448.876 247.419 449.108 246.119C451.482 232.852 452.697 219.378 452.734 205.9C452.752 199.141 455.067 195.857 456.062 189.172C457.342 180.575 457.272 171.831 457.028 163.171C456.923 159.465 459.207 155.072 460.362 151.52C461.757 147.232 463.151 142.943 464.546 138.655C465.092 136.977 465.564 134.918 464.364 133.624C463.425 132.612 461.868 132.552 460.488 132.604C454.075 132.847 447.696 133.99 441.598 135.989C439.928 136.536 437.823 137.047 436.637 135.751C435.981 135.035 435.865 133.991 435.785 133.023C434.87 122.039 434.385 111.02 434.333 99.9978C434.327 98.6598 434.418 98.7948 434.592 97.4678C434.766 96.1408 435.263 94.8158 436.216 93.8768C437.201 92.9068 438.563 92.4408 439.875 92.0038C442.997 90.9648 446.151 89.9188 449.425 89.5978C452.7 89.2768 456.152 89.7378 458.918 91.5208C459.473 91.8788 460.052 92.5838 459.659 93.1148C459.529 93.2898 459.322 93.3868 459.123 93.4768C455.516 95.1038 451.901 96.7338 448.145 97.9788C445.735 98.7768 443.245 99.4188 440.707 99.4808C438.733 99.5288 436.708 99.2138 434.908 98.3778C433.555 97.7498 431.729 96.9018 431.196 95.3968C430.817 94.3238 431.163 93.0768 430.696 92.0388C429.987 90.4648 428.021 89.8068 427.134 88.3628C426.066 86.6248 426.856 84.1248 427.935 82.6058C429.241 80.7668 431.273 79.5358 433.419 78.8418C435.565 78.1478 437.838 77.9478 440.092 77.8398C445.9 77.5618 451.714 77.7078 457.456 78.5978C463.493 79.5328 469.531 80.4688 475.568 81.4038C476.323 81.5208 477.147 81.6258 477.807 81.2418C478.758 80.6888 478.931 79.4128 479 78.3148C479.407 71.8588 479.815 65.3768 479.315 58.9268C478.191 62.6318 477.729 66.5368 477.96 70.4008C478.026 71.5158 478.133 72.7078 477.583 73.6788C477.046 74.6258 476.004 75.1478 475.021 75.6158C470.189 77.9168 465.292 80.2398 460.039 81.2658C457.296 81.8018 454.496 81.9748 451.706 82.1468C450.647 82.2118 449.536 82.2678 448.577 81.8158C446.796 80.9768 446.203 78.7718 445.903 76.8258C445.483 74.1038 445.242 71.3538 445.18 68.5998C445.141 66.8498 445.012 64.7858 443.532 63.8508C443.321 66.5348 443.109 69.2188 442.898 71.9038C442.818 72.9248 442.7 74.0328 441.991 74.7718C441.12 75.6788 439.707 75.6938 438.452 75.7598C435.425 75.9178 432.435 76.7378 429.751 78.1448C429.021 69.6888 429.249 61.1498 430.43 52.7448C430.884 49.5178 434.793 48.4118 437.814 47.1898C440.835 45.9678 444.073 45.3718 447.308 44.9858C448.48 44.8458 449.793 44.6578 450.502 43.7148C451.054 42.9808 451.075 41.9898 451.073 41.0708C451.067 37.8238 451.06 34.5768 451.054 31.3298C451.052 30.2008 450.846 29.0908 451.583 28.2358C452.07 27.6708 452.831 27.4288 453.565 27.2958C454.722 27.0858 455.917 27.0828 457.075 27.2858C458.339 27.5078 459.566 27.9738 460.848 28.0198C463.418 28.1128 465.713 26.5378 467.797 25.0308C468.262 27.6298 468.249 30.3828 467.248 32.8248C466.247 35.2678 464.137 37.3478 461.544 37.8448C458.799 38.3708 455.939 37.0578 454.019 35.0278C452.098 32.9978 450.983 30.3408 450.152 27.6728C448.947 27.4638 447.773 26.8768 447.04 25.8978C446.306 24.9188 446.086 23.5228 446.657 22.4408C447.228 21.3588 448.65 20.7498 449.769 21.2438C449.875 18.2328 450.125 14.6788 450.231 11.6678C449.73 13.9098 449.23 16.1528 448.73 18.3948C448.635 18.8208 448.486 19.3108 448.077 19.4618C447.739 19.5858 447.37 19.4188 447.049 19.2548C446.089 18.7638 445.035 18.1628 444.748 17.1238C444.558 16.4338 444.757 15.7028 444.955 15.0158C445.547 12.9678 446.138 10.9188 446.73 8.87077C447.098 7.59777 447.485 6.28678 448.324 5.26178C449.163 4.23678 450.581 3.56377 451.835 3.99277C452.896 2.39777 455.271 1.82778 457.179 1.65778C459.414 1.45878 461.649 1.26077 463.885 1.06177C464.572 1.00077 465.276 0.940776 465.944 1.11378C467.18 1.43278 468.072 2.47578 468.881 3.46278C470.338 5.24178 471.833 7.09078 472.442 9.30778C472.868 10.8568 472.833 12.4908 472.794 14.0968C472.754 15.7728 472.714 17.4498 472.674 19.1258C471.478 17.7608 470.071 15.8528 469.372 14.1778C468.673 12.5028 467.75 10.7958 466.172 9.89877C464.107 8.72477 461.523 9.24778 459.244 9.91778C456.965 10.5878 454.528 11.3738 452.27 10.6348C454.706 11.4068 457.142 12.1348 459.689 11.9408C461.517 11.8008 463.474 11.4338 465.097 12.2868C466.649 13.1028 467.482 14.8498 467.877 16.5588C468.272 18.2678 468.337 20.0508 468.882 21.7178C469.179 21.2718 470.254 20.8338 470.786 20.7708C471.318 20.7078 471.859 20.8308 472.355 21.0338C472.961 21.2828 473.531 21.6708 473.873 22.2288C474.525 23.2938 474.164 24.7688 473.278 25.6488C472.393 26.5288 471.107 26.8968 469.861 26.9688C469.942 30.2298 469.9 33.8798 469.981 37.1408C470.006 38.1358 470.037 39.1628 470.446 40.0708C471.045 41.4018 472.48 42.3098 473.939 42.2828C473.944 44.1088 472.639 45.9328 471.053 46.8358C469.466 47.7388 467.608 48.0238 465.79 48.1918C463.477 48.4058 461.13 48.4558 458.848 48.0268C456.566 47.5978 454.34 46.6638 452.625 45.0978C452.5 45.7578 452.122 46.6688 452.531 47.2028C452.94 47.7358 453.5 48.1328 454.073 48.4838C456.267 49.8268 458.799 50.6128 461.368 50.7488C461.544 54.5878 461.72 58.4268 461.897 62.2668C462.743 60.5218 463.598 58.7488 463.942 56.8398C464.286 54.9308 464.059 52.8348 462.899 51.2808C464.797 50.9168 466.695 50.5528 468.593 50.1888C470.131 49.8938 471.724 49.5758 472.99 48.6538C474.733 47.3848 475.535 45.2228 476.246 43.1878C478.599 44.2518 481.881 44.9458 484.414 45.4488C486.947 45.9518 489.569 46.8468 491.198 48.8498C492.522 50.4778 493.009 52.6138 493.399 54.6758C494.786 62.0128 495.441 69.4878 495.351 76.9538C492.233 75.5798 488.532 74.0438 485.276 73.0398C483.795 72.5828 481.882 72.2948 480.963 73.5428C485.166 75.3278 489.369 77.1118 493.572 78.8968C494.184 79.1568 494.85 79.4678 495.118 80.0768C495.374 80.6588 495.184 81.3308 494.992 81.9368C494.113 84.7098 493.234 87.4818 492.355 90.2548C491.583 92.6898 490.504 95.4498 488.077 96.2488C486.506 96.7658 486.048 97.3478 484.395 97.2828C482.742 97.2178 481.124 96.8098 479.52 96.4048C473.747 94.9448 467.975 93.4848 462.202 92.0248C467.503 95.9328 474.129 97.4858 480.559 98.9128C481.515 99.1248 482.531 99.3688 483.207 100.078C483.988 100.897 484.117 102.122 484.205 103.251C484.941 112.723 485.678 122.195 486.414 131.666C486.45 132.131 486.387 132.889 486.356 133.355C480.677 132.861 474.997 132.366 469.318 131.872C468.777 131.825 468.025 131.956 468.023 132.499C468.021 132.888 468.444 133.122 468.806 133.265C474.129 135.368 479.804 136.576 485.522 136.824C486.335 136.859 487.207 136.895 487.856 137.385C488.848 138.134 488.897 139.579 488.854 140.82C488.704 145.231 488.554 149.641 488.404 154.052C487.955 167.256 489.228 176.515 490.382 189.676C490.605 192.216 490.928 194.752 490.637 197.271C490.31 200.096 490.321 203.014 490.29 205.855C490.206 213.484 491.323 221.049 490.835 228.648C490.637 231.742 490.382 234.833 490.073 237.918C489.918 239.46 489.769 241.006 489.566 242.542C489.413 243.701 489.546 244.925 489.215 246.04C488.99 246.796 488.703 247.585 488.883 248.353C489.063 249.121 489.96 249.772 490.642 249.376C492.695 250.579 494.497 252.209 495.899 254.133C496.525 254.992 497.081 255.931 497.303 256.971C497.525 258.011 497.373 259.171 496.704 259.997C495.908 260.98 494.569 261.315 493.316 261.485C489.139 262.05 484.903 261.418 480.735 260.788C479.269 260.566 477.545 260.147 477.022 258.759C476.678 257.845 477.002 256.833 477.286 255.899C477.824 254.135 478.482 252.07 478.199 250.209C477.949 248.564 477.734 247.144 477.744 245.448C477.77 240.941 477.467 236.437 477.013 231.955C476.406 225.958 476.289 219.938 476.456 213.915C476.512 211.904 475.881 210.06 475.605 208.053C475.32 205.978 475.205 203.88 475.26 201.787C475.303 200.163 475.425 198.736 475.192 197.139C474.948 195.466 474.703 193.793 474.432 192.123C473.823 188.371 473.397 184.826 472.33 181.189C471.169 177.234 470.143 173.239 469.254 169.214C468.638 166.424 468.349 163.475 467.592 160.728C467.312 159.709 466.709 158.786 466.184 157.853C465.868 157.291 464.747 155.555 464.18 156.886C463.876 157.602 464.697 159.417 464.847 160.169C465.199 161.942 465.084 163.914 465.266 165.721C465.562 168.658 466.412 171.606 466.589 174.518C466.771 177.512 467.42 180.144 468.627 182.904C469.883 185.777 471.403 188.557 472.236 191.579C473.03 194.459 473.177 197.472 473.32 200.457C473.518 204.608 473.717 208.759 473.915 212.909C474.074 216.244 474.915 219.339 474.989 222.647C475.174 230.948 475.36 239.249 475.545 247.55C475.597 249.874 475.649 252.199 475.701 254.523C477.571 253.936 479.09 252.599 480.661 251.427C482.232 250.256 484.047 249.185 486.005 249.28C487.962 249.376 489.929 251.133 489.552 253.056C490.841 252.01 492.82 253.206 493.563 254.69C494.306 256.174 494.458 257.952 495.47 259.267C496.928 261.163 499.617 261.471 502.004 261.625C504.479 261.785 507.001 261.381 509.514 261.484C512.203 261.594 514.88 261.882 517.555 262.164C522.933 262.731 528.401 263.311 533.775 262.392C542.223 260.948 549.486 261.683 558.048 261.316C559.733 261.244 560.46 260.131 560.541 258.522C560.699 255.367 560.856 252.212 561.014 249.056C561.13 246.729 561.235 244.324 560.41 242.145C559.818 240.582 558.768 239.199 558.369 237.576C557.921 235.752 558.343 233.833 558.198 231.96C558.052 230.08 557.34 228.298 556.804 226.489C555.358 221.612 555.039 216.287 554.361 211.249C554.155 209.72 554.029 208.287 554.024 206.759C554.019 205.228 553.432 203.712 553.317 202.174C552.916 196.79 553.039 191.381 553.162 185.984C553.273 181.124 553.391 176.211 554.621 171.508C556.158 165.631 559.397 160.22 560.217 154.201C562.396 162.884 563.252 171.899 562.745 180.837C562.349 187.826 561.126 194.809 561.691 201.786C562.205 208.134 564.191 214.503 563.014 220.763C560.819 232.447 560.132 241.45 558.495 253.225C557.091 254.082 554.698 254.227 553.096 253.858C551.494 253.488 549.968 252.823 548.355 252.504C545.468 251.932 542.365 252.537 539.905 254.152C538.864 254.835 537.943 255.696 537.18 256.679C536.52 257.529 535.558 258.797 535.524 259.92C535.519 260.085 535.591 260.263 535.74 260.334C536.043 260.48 538.824 257.515 539.307 257.134C540.638 256.084 542.113 255.198 543.742 254.699C544.71 254.402 545.805 254.192 546.42 253.388C547.203 252.365 546.833 250.909 546.464 249.674C543.889 241.056 543.092 232.023 542.309 223.062C541.526 214.105 537.845 207.057 536.138 198.229C533.811 186.194 534.93 173.792 536.058 161.586C536.53 156.475 537.069 152.136 537.137 147.004C537.167 144.789 537.121 142.442 538.247 140.534C539.212 138.899 540.927 137.824 542.719 137.196C545.658 136.166 548.954 136.241 551.867 137.324C552.664 137.621 554.362 138.549 554.768 137.247C555.207 135.84 553.277 134.908 552.328 134.366C548.722 132.303 545.375 129.785 542.393 126.892C542.028 116.938 541.838 107.167 543.618 97.3658C544.218 94.0598 545.06 90.7918 545.401 87.4488C546.082 80.7718 544.742 74.0588 543.08 67.5558C544.927 72.4198 544.408 78.5958 543.972 83.7798C543.536 88.9638 542.439 94.0678 541.671 99.2128C540.582 106.499 540.151 113.867 539.926 121.231C539.844 123.92 539.913 126.936 541.821 128.832C539.543 131.557 538.011 134.899 537.433 138.404C535.188 135.479 533.001 131.872 531.968 128.333C531.247 125.863 530.962 123.289 530.726 120.726C529.217 104.362 529.552 87.8278 531.725 71.5388C532.318 67.0968 532.507 64.1468 533.579 59.7958C534.651 55.4448 536.542 51.2048 539.644 47.9708C544.064 43.3618 550.489 41.2298 556.797 40.2398C558.05 42.3478 558.698 44.9108 559.819 47.1318C561.037 49.5458 562.441 51.8668 564.014 54.0668C564.41 54.6208 564.857 55.1968 565.501 55.4178C566.483 55.7548 567.698 54.3848 568.427 53.8418C569.581 52.9808 570.701 52.0738 571.783 51.1248C573.907 49.2608 575.887 47.2318 577.697 45.0618C578.371 44.2538 579.055 43.3268 579.016 42.2758C578.981 41.3468 578.387 40.5458 578.06 39.6758C577.384 37.8748 577.877 35.8688 578.376 34.0108C578.726 34.4168 578.765 35.0218 578.607 35.5338C578.448 36.0458 578.121 36.4858 577.79 36.9088C576.656 38.3598 575.403 39.7538 573.854 40.7498C572.305 41.7468 570.419 42.3188 568.603 42.0108C566.736 41.6938 565.114 40.4778 563.945 38.9888C562.775 37.4998 562.003 35.7428 561.281 33.9928C560.454 36.2048 559.362 37.7728 558.211 39.8358C558.134 35.6408 560.663 31.5848 559.949 27.4508C559.094 27.1818 558.356 25.9568 558.191 25.0758C558.027 24.1948 558.186 23.2888 558.351 22.4078C558.476 21.7428 558.613 21.0568 558.996 20.4988C559.379 19.9408 560.075 19.5398 560.73 19.7098C560.271 18.9018 559.735 17.6628 559.276 16.8548C559.132 16.6018 558.986 16.2928 559.12 16.0348C559.291 15.7048 559.782 15.7248 560.11 15.8988C560.438 16.0728 560.724 16.3528 561.092 16.4088C561.513 16.4728 561.921 16.2198 562.218 15.9138C562.515 15.6078 562.748 15.2398 563.078 14.9688C563.656 14.4948 564.461 14.3848 565.203 14.4778C565.945 14.5708 566.65 14.8438 567.365 15.0608C570.142 15.9038 573.094 15.9138 575.996 15.9158C577.372 15.9168 578.779 15.9128 580.076 15.4538C581.373 14.9938 582.56 13.9818 582.84 12.6348C582.87 12.4888 582.882 12.3158 582.775 12.2128C582.592 12.0368 582.301 12.2308 582.118 12.4078C580.779 13.7038 578.925 14.3608 577.075 14.5768C575.224 14.7928 573.353 14.6048 571.5 14.4168C570.017 14.2658 568.499 14.1058 567.155 13.4608C566.379 13.0888 565.621 12.5468 564.761 12.5818C563.9 12.6168 563.187 13.2188 562.482 13.7138C561.777 14.2078 560.864 14.6278 560.081 14.2688C559.863 10.7288 561.615 7.15877 564.413 4.97977C567.212 2.80077 570.773 1.78178 574.309 1.49778C576.962 1.28378 579.779 1.49978 582.014 2.94578C584.463 4.52978 585.837 7.34977 586.59 10.1678C587.329 12.9328 587.578 15.8778 586.908 18.6608C586.238 21.4438 584.579 24.0508 582.121 25.5158C583.128 22.7408 582.681 19.4998 581.898 16.6538C581.453 19.9238 581.049 23.1998 580.685 26.4798C580.752 26.3998 580.819 26.3198 580.887 26.2408C581.439 25.5858 582.039 25.3188 582.836 25.0038C583.123 24.8908 583.425 24.7958 583.733 24.8058C584.041 24.8158 584.359 24.9448 584.532 25.1998C584.762 25.5388 584.687 25.9908 584.603 26.3918C584.393 27.3908 584.175 28.4138 583.636 29.2808C583.097 30.1478 582.165 30.8438 581.144 30.8108C580.617 30.7938 580.11 30.5888 579.583 30.5808C580.447 33.3318 579.26 36.6018 579.61 39.4638C580.072 43.2338 584.609 43.3718 587.573 44.6698C590.768 46.0688 593.837 47.9238 596.031 50.6898C598.9 54.3058 599.941 58.9898 601.12 63.4538C603.935 74.1118 608.013 84.7088 607.661 95.7268C607.41 103.579 604.888 111.226 601.365 118.248C597.842 125.27 593.328 131.741 588.831 138.183C586.368 135.673 584.116 132.364 583.475 128.906C582.401 123.106 588.166 118.296 590.611 112.927C593.056 107.558 594.854 101.62 593.875 95.8028C593.24 92.0268 591.479 88.5528 590.034 85.0068C587.431 78.6198 585.811 71.8338 585.247 64.9608C587.92 69.4628 587.637 75.0338 588.166 80.2438C588.471 83.2498 589.072 86.2388 589.017 89.2598C588.958 92.4428 588.171 95.5648 587.843 98.7308C587.262 104.347 588.132 110.02 587.819 115.657C587.506 121.294 585.706 127.293 581.138 130.611C578.349 132.637 575.41 131.924 571.971 132.159C567.225 132.483 562.472 132.718 557.716 132.862C557.27 132.876 556.789 132.879 556.422 132.624C556.055 132.369 555.918 131.752 556.279 131.488C556.463 131.353 556.709 131.351 556.936 131.354C563.883 131.453 570.829 131.551 577.776 131.65C577.581 131.647 576.763 132.7 576.576 132.87C576.172 133.238 575.781 133.489 575.325 133.76C574.311 134.361 573.295 134.928 572.24 135.46C571.346 135.911 567.427 137.963 568.466 139.447C569.324 140.672 572.31 139.264 573.33 138.992C574.11 138.784 574.919 138.501 575.709 138.348C576.485 138.197 576.653 138.393 577.123 139.001C578.886 141.285 581.916 142.531 584.724 141.416C585.685 141.034 587.017 140.524 587.549 141.411C587.76 141.763 587.719 142.204 587.672 142.612C586.492 152.722 585.292 162.831 583.953 172.922C583.018 179.971 581.743 186.968 580.629 193.989C580.353 195.727 579.928 197.527 579.83 199.283C579.762 200.508 579.973 201.757 579.956 203C579.905 206.548 580.535 210.058 580.747 213.591C581.117 219.739 580.232 225.879 578.99 231.886C577.733 237.971 576.829 244.142 575.784 250.268C575.579 251.47 575.242 252.852 574.134 253.361C573.266 253.76 572.258 253.454 571.327 253.239C568.899 252.677 566.319 252.785 563.947 253.548C567.61 254.746 570.959 255.396 574.811 255.269C574.858 256.542 574.827 257.819 574.719 259.088C574.664 259.726 574.574 260.402 574.164 260.894C573.599 261.572 572.619 261.69 571.738 261.741C569.399 261.877 567.053 261.891 564.713 261.781C563.456 261.722 562.106 261.592 561.148 260.776C561.496 259.858 562.687 259.662 563.668 259.627C571.37 259.353 579.11 260.152 586.594 261.993C596.628 264.461 606.191 260.723 616.52 260.979C622.405 261.125 628.388 261.547 634.1 260.122C634.732 260.793 635.279 260.392 635.896 259.708C636.513 259.023 636.705 258.067 636.873 257.16C637.528 253.618 638.184 250.077 638.839 246.535C639.049 245.401 639.255 244.209 638.886 243.117C638.365 241.575 636.85 240.631 635.443 239.814C639.99 239.129 644.758 238.463 649.086 240.014C646.8 240.893 644.514 241.772 642.228 242.651C641.657 242.871 641.029 243.143 640.79 243.706C640.482 244.431 640.964 245.219 641.241 245.956C641.991 247.954 641.19 250.214 640.02 251.998C638.85 253.782 637.31 255.327 636.345 257.23C635.925 258.058 635.696 259.23 636.442 259.782C636.986 260.185 637.744 260.012 638.405 259.867C640.865 259.33 643.466 259.454 645.863 260.224C647.034 260.6 648.53 261.045 649.321 260.103C649.728 259.618 649.762 258.931 649.772 258.298C649.859 252.958 649.636 247.612 649.102 242.298C649.043 241.709 648.985 241.088 649.227 240.547C649.406 240.149 649.73 239.838 649.977 239.478C650.744 238.357 650.694 236.889 650.615 235.534C650.323 230.517 650.032 225.5 649.74 220.483C649.455 215.584 649.254 210.679 649.229 205.772C649.216 203.277 649.253 200.784 649.335 198.29C649.399 196.337 649.024 194.558 649.253 192.607C650.429 182.589 651.58 172.56 651.959 162.474C652.235 155.141 652.111 147.783 651.319 140.484C650.197 153.319 649.076 166.155 647.954 178.99C646.509 195.53 645.071 212.293 647.911 228.651C648.17 230.143 648.354 231.954 647.174 232.903C646.605 233.361 646.049 233.369 645.376 233.379C644.465 233.393 643.554 233.539 642.639 233.555C640.769 233.587 638.896 233.418 637.062 233.05C636.641 232.965 636.109 232.912 635.872 233.271C635.713 233.511 635.773 233.829 635.838 234.109C636.111 235.284 636.383 236.459 636.655 237.634C636.746 238.028 636.975 238.523 637.375 238.461C637.672 238.415 637.818 238.078 637.886 237.786C638.156 236.625 638.057 235.414 637.956 234.226C637.81 232.516 637.662 230.806 637.514 229.097C637.391 227.683 637.22 226.346 637.425 224.944C637.64 223.473 637.172 221.797 636.984 220.332C636.763 218.616 636.542 216.9 636.321 215.185C634.77 203.135 634.153 192.469 633.141 180.362C632.673 174.761 632.195 169.1 630.621 163.679C628.799 157.406 626.099 151.011 626.701 144.356C626.977 141.312 627.572 138.252 627.176 135.221C626.877 132.933 626.016 130.717 626.003 128.41C625.995 126.928 626.326 125.371 625.731 124.014C625.046 122.453 623.354 121.637 621.794 120.95C621.19 120.684 620.472 120.421 619.9 120.751C619.347 121.07 619.201 121.788 619.119 122.421C618.239 129.195 618.284 136.088 619.252 142.849C619.4 143.884 619.692 145.081 620.653 145.494C621.67 145.931 622.805 145.208 623.579 144.416C625.082 142.878 626.152 140.922 626.636 138.826C627.057 137.003 627.152 134.881 628.601 133.697C629.332 133.1 630.285 132.866 631.205 132.658C641.382 130.354 651.8 129.116 662.234 128.971C666.382 128.913 668.482 129.411 672.435 130.671C673.422 130.986 674.571 131.315 675.432 130.739C676.28 130.172 676.425 129.007 676.49 127.989C676.581 126.563 676.566 124.889 675.429 124.023C674.585 123.379 673.418 123.434 672.36 123.518C669.038 123.782 665.641 123.431 662.299 123.523C658.6 123.625 654.906 123.904 651.234 124.359C643.89 125.269 636.632 126.881 629.597 129.177C628.747 127.247 627.671 125.168 626.821 123.238C627.561 122.926 628.319 122.603 628.899 122.048C629.652 121.328 630.026 120.284 630.129 119.247C630.232 118.211 630.09 117.167 629.948 116.135C628.958 108.945 630.442 101.811 632.043 94.8258C633.297 89.3548 634.605 83.8468 634.755 78.2098C634.775 77.4738 634.721 76.7308 634.753 75.9968C634.771 75.5928 635.011 74.9978 634.939 74.6148C634.68 73.2248 634.054 75.8378 633.963 76.2668C633.341 79.2168 632.904 82.2648 632.427 85.2398C631.407 91.5948 630.386 97.9498 629.366 104.305C629.111 105.894 628.856 107.483 628.601 109.071C628.382 110.434 627.97 111.889 628.098 113.274C628.343 115.919 627.71 118.441 626.955 120.991C626.869 121.283 626.771 121.587 626.552 121.799C626.233 122.107 625.723 122.14 625.304 121.996C624.661 121.775 624.277 121.301 623.613 121.133C623.036 120.987 622.413 120.97 621.826 120.869C620.793 120.692 619.455 120.472 618.798 119.552C617.753 118.089 618.21 116.067 618.191 114.407C618.162 111.942 618.181 109.477 618.248 107.012C618.381 102.084 618.706 97.1598 619.219 92.2568C619.87 86.0318 620.826 79.8398 622.083 73.7088C622.718 70.6118 623.429 67.5318 624.216 64.4708C624.967 61.5498 625.586 58.3708 626.779 55.5978C627.317 54.3488 627.729 53.0278 628.698 52.0178C628.952 51.7538 629.338 51.4978 629.656 51.6798C629.917 51.8298 629.957 52.1848 629.961 52.4858C629.99 54.7808 629.664 57.0798 628.999 59.2758C628.597 60.6028 628.066 61.9698 628.308 63.3348C628.479 64.2988 629.021 65.1518 629.579 65.9558C631.381 68.5508 633.477 70.9428 635.814 73.0698C636.164 73.3888 636.589 73.7238 637.057 73.6498C637.596 73.5648 637.897 72.9918 638.074 72.4768C638.871 70.1568 638.756 67.6538 639.499 65.3338C640.212 63.1088 641.78 61.3488 642.856 59.3088C644.059 57.0278 644.564 54.4548 645.055 51.9238C645.755 48.3118 646.454 44.7008 647.154 41.0888C647.393 39.8538 647.818 38.8298 648.109 37.6058C648.27 40.5118 650.13 43.2618 652.766 44.4928C655.403 45.7248 658.705 45.3858 661.037 43.6448C663.381 41.8948 664.602 39.0208 665.337 36.1898C666.205 32.8468 666.541 29.3678 666.328 25.9208C665.537 25.7588 664.392 25.0898 663.659 24.7508C662.926 24.4118 662.254 23.8778 661.907 23.1488C661.462 22.2148 661.588 21.0608 661.033 20.1878C660.596 19.4988 659.821 19.1168 659.18 18.6118C658.539 18.1068 657.978 17.2908 658.245 16.5198C658.374 19.0978 656.104 21.5948 653.939 23.0018C652.905 23.6738 651.72 24.0778 650.645 24.6798C649.57 25.2818 648.553 26.1638 648.238 27.3558C647.778 29.0918 648.919 30.9218 648.587 32.6868C648.209 34.6958 646.108 35.9018 645.244 37.7538C644.155 40.0878 645.24 42.8448 644.914 45.3998C644.634 47.5978 643.328 49.5178 642.634 51.6228C642.096 53.2528 641.929 54.9858 641.406 56.6208C640.871 58.2928 639.977 59.8228 639.089 61.3378C638.062 63.0908 637.035 64.8448 636.008 66.5978C635.789 66.9708 635.55 67.3638 635.164 67.5588C634.473 67.9068 633.627 67.4648 633.124 66.8768C631.59 65.0838 632.008 62.4148 632.208 60.0638C632.467 57.0288 632.208 53.9508 631.445 51.0028C630.066 45.6718 635.906 40.7008 638.318 35.7508C640.01 32.2788 641.074 28.5298 641.843 24.7438C642.42 21.9048 642.842 19.0078 643.921 16.3198C645 13.6308 646.845 11.1098 649.491 9.93178C652.137 8.75378 655.642 9.26678 657.35 11.6068C659.029 10.5878 661.721 10.1728 663.673 10.3908C667.073 10.7708 669.921 13.3628 671.448 16.4248C672.975 19.4868 673.382 22.9758 673.582 26.3908C673.782 29.8058 673.803 33.2648 674.641 36.5828C675.124 38.4938 675.875 40.3408 676.162 42.2908C676.526 44.7628 676.13 47.3148 676.633 49.7628C677.132 52.1878 678.474 54.3368 679.575 56.5538C680.676 58.7708 681.566 61.2608 681.067 63.6858C679.118 61.0078 675.087 60.1868 672.258 61.9108C671.37 62.4518 670.451 63.2388 669.434 63.0208C668.159 62.7478 667.759 61.1668 667.527 59.8828C666.663 55.0898 664.662 50.5058 661.735 46.6128C660.548 48.4908 662.642 51.3208 661.263 53.0628C660.546 53.9678 659.203 54.0768 658.07 53.8528C656.937 53.6298 655.841 53.1528 654.686 53.1638C652.25 53.1868 650.175 55.3568 647.744 55.1998C647.473 55.1828 647.174 55.1168 647.02 54.8928C646.767 54.5238 647.128 53.9858 647.567 53.8998C648.007 53.8138 648.445 54.0238 648.84 54.2348C651.411 55.6048 654.135 57.3308 657.002 56.8138C658.465 56.5498 659.823 55.7058 661.31 55.7328C662.831 55.7598 664.227 56.7388 665.045 58.0218C665.863 59.3048 666.17 60.8528 666.241 62.3728C666.31 63.8658 666.172 65.3978 666.613 66.8258C667.054 68.2538 668.303 69.5878 669.795 69.5028C671.272 69.4188 672.303 68.0688 673.212 66.9018C674.685 65.0108 676.376 63.2888 678.242 61.7828C678.718 61.3988 679.299 61.0068 679.892 61.1558C680.561 61.3238 680.872 62.0768 681.079 62.7348C682.824 68.2828 684.164 73.9578 685.085 79.7008C685.805 84.1938 686.115 87.8828 686.493 92.4178C687.482 104.287 688.471 116.155 689.46 128.024C689.751 131.51 691.691 134.636 692.252 138.089C692.622 140.371 692.168 142.704 691.564 144.936C691.03 146.908 690.328 148.929 688.865 150.356C687.402 151.783 684.976 152.412 683.275 151.279C681.868 150.342 681.343 148.532 681.168 146.851C680.652 141.881 682.278 136.741 680.951 131.924C680.806 131.398 680.649 130.767 681.014 130.362C681.264 130.085 681.669 130.029 682.038 129.978C683.688 129.752 685.307 129.306 686.84 128.656C687.301 128.46 687.841 128.078 687.707 127.594C687.551 127.03 686.739 127.097 686.178 127.262C684.061 127.888 681.833 128.137 679.63 127.995C675.156 120.01 674.413 110.356 674.037 101.211C673.662 92.0658 673.887 82.7938 671.69 73.9088C671.266 86.3198 670.846 98.8128 672.667 111.098C673.461 116.452 674.677 121.743 675.28 127.123C676.604 138.941 675.61 150.821 674.394 162.577C673.263 173.511 672.137 184.621 674.113 195.435C675.794 204.632 673.941 210.851 673.232 220.174C672.704 227.12 672.167 234.118 670.296 240.828C668.957 239.204 670.236 236.229 668.574 234.937C668.012 234.5 667.262 234.411 666.552 234.35C663.21 234.06 659.847 234.023 656.5 234.238C655.821 234.282 655.175 234.366 654.803 234.964C654.369 235.662 654.349 236.626 654.687 237.364C654.806 237.623 655.046 237.896 655.322 237.824C655.581 237.756 655.668 237.439 655.71 237.174C657.041 228.705 657.936 220.28 657.816 211.684C657.747 206.765 657.407 201.849 656.795 196.967C654.877 181.681 657.053 166.668 654.115 151.545C654.248 171.816 654.381 192.087 654.514 212.357C654.577 221.98 654.642 231.631 655.879 241.174C659.282 241.132 662.631 241.072 666.034 241.03C666.687 241.022 667.434 241.055 667.848 241.56C668.199 241.988 668.177 242.601 668.136 243.153C667.921 246.092 667.706 249.03 667.49 251.969C664.229 252.613 660.925 254.265 659.043 257.006C658.651 257.578 658.298 258.198 658.181 258.881C658.063 259.564 658.216 260.325 658.714 260.808C659.046 254.989 658.143 249.178 657.243 243.419C657.047 249.12 656.637 254.732 656.787 260.435C656.807 261.191 656.895 262.068 657.531 262.478C657.937 262.74 658.455 262.726 658.938 262.703C663.262 262.501 667.586 262.299 671.909 262.096C672.21 262.082 672.524 262.064 672.786 261.916C673.478 261.525 673.428 260.514 673.191 259.756C672.256 256.755 669.953 254.411 667.727 252.191C669.463 251.992 671.131 253.141 672.06 254.62C672.989 256.099 673.327 257.863 673.636 259.582C673.769 260.32 673.959 261.148 674.602 261.535C675.033 261.795 675.568 261.788 676.072 261.772C677.974 261.715 679.876 261.658 681.778 261.601C690.96 261.325 698.51 263.272 707.67 262.576" stroke-width="0.75" stroke-miterlimit="10" stroke-linecap="round" stroke-linejoin="round"/>
</svg>
