<svg width="12" height="20" viewBox="0 0 12 20" fill="none" xmlns="http://www.w3.org/2000/svg">
<g clip-path="url(#clip0_324_244)">
<path d="M5 15.5C4.80109 15.5 4.61032 15.579 4.46967 15.7197C4.32902 15.8603 4.25 16.0511 4.25 16.25C4.25 16.4489 4.32902 16.6397 4.46967 16.7803C4.61032 16.921 4.80109 17 5 17H7C7.19891 17 7.38968 16.921 7.53033 16.7803C7.67098 16.6397 7.75 16.4489 7.75 16.25C7.75 16.0511 7.67098 15.8603 7.53033 15.7197C7.38968 15.579 7.19891 15.5 7 15.5H5Z" />
<path fill-rule="evenodd" clip-rule="evenodd" d="M2 0C1.40326 0 0.830967 0.237053 0.40901 0.65901C-0.0129469 1.08097 -0.25 1.65326 -0.25 2.25V17.75C-0.25 18.3467 -0.0129469 18.919 0.40901 19.341C0.830967 19.7629 1.40326 20 2 20H10C10.5967 20 11.169 19.7629 11.591 19.341C12.0129 18.919 12.25 18.3467 12.25 17.75V2.25C12.25 1.65326 12.0129 1.08097 11.591 0.65901C11.169 0.237053 10.5967 0 10 0H2ZM1.25 2.25C1.25 2.05109 1.32902 1.86032 1.46967 1.71967C1.61032 1.57902 1.80109 1.5 2 1.5H10C10.1989 1.5 10.3897 1.57902 10.5303 1.71967C10.671 1.86032 10.75 2.05109 10.75 2.25V17.75C10.75 17.9489 10.671 18.1397 10.5303 18.2803C10.3897 18.421 10.1989 18.5 10 18.5H2C1.80109 18.5 1.61032 18.421 1.46967 18.2803C1.32902 18.1397 1.25 17.9489 1.25 17.75V2.25Z" />
</g>
</svg>
