<svg width="25" height="25" viewBox="0 0 25 25" fill="none" xmlns="http://www.w3.org/2000/svg">
<path fill-rule="evenodd" clip-rule="evenodd" d="M12.4998 8.13953C11.2784 8.13953 10.1071 8.59893 9.24339 9.41668C8.37973 10.2344 7.89453 11.3435 7.89453 12.5C7.89453 13.6565 8.37973 14.7656 9.24339 15.5833C10.1071 16.4011 11.2784 16.8605 12.4998 16.8605C13.7212 16.8605 14.8926 16.4011 15.7563 15.5833C16.6199 14.7656 17.1051 13.6565 17.1051 12.5C17.1051 11.3435 16.6199 10.2344 15.7563 9.41668C14.8926 8.59893 13.7212 8.13953 12.4998 8.13953ZM9.73665 12.5C9.73665 11.8061 10.0278 11.1407 10.546 10.65C11.0642 10.1594 11.767 9.88371 12.4998 9.88371C13.2327 9.88371 13.9355 10.1594 14.4537 10.65C14.9719 11.1407 15.263 11.8061 15.263 12.5C15.263 13.1939 14.9719 13.8593 14.4537 14.35C13.9355 14.8406 13.2327 15.1163 12.4998 15.1163C11.767 15.1163 11.0642 14.8406 10.546 14.35C10.0278 13.8593 9.73665 13.1939 9.73665 12.5Z"/>
<path fill-rule="evenodd" clip-rule="evenodd" d="M12.4693 0C11.9228 0 11.4672 -2.16587e-08 11.0938 0.0232558C10.7122 0.0378097 10.3357 0.112476 9.97998 0.244186C9.57011 0.404755 9.19766 0.640201 8.8839 0.937078C8.57014 1.23395 8.32123 1.58644 8.15137 1.97442C7.97329 2.3814 7.9254 2.81163 7.90575 3.27907C7.90356 3.44998 7.85566 3.61758 7.76654 3.76622C7.67742 3.91486 7.54997 4.03969 7.3961 4.12907C7.23746 4.21084 7.05952 4.25319 6.8789 4.25218C6.69828 4.25116 6.52088 4.2068 6.36328 4.12326C5.92608 3.90465 5.50854 3.72907 5.04678 3.67093C4.60706 3.61617 4.16025 3.64394 3.73187 3.75268C3.30349 3.86141 2.90192 4.04897 2.55009 4.30465C2.25215 4.53079 1.99607 4.80233 1.79237 5.10814C1.58359 5.40349 1.35517 5.77674 1.08254 6.22442L1.05183 6.27558C0.777971 6.72326 0.550777 7.09651 0.386214 7.41512C0.214282 7.74767 0.0791937 8.07558 0.0300704 8.43837C-0.0870881 9.27906 0.153222 10.1294 0.698146 10.8023C0.981833 11.1523 1.35149 11.407 1.76903 11.6558C1.92455 11.7431 2.05412 11.8664 2.14562 12.014C2.23712 12.1617 2.28755 12.3289 2.29219 12.5C2.28755 12.6711 2.23712 12.8383 2.14562 12.986C2.05412 13.1336 1.92455 13.2569 1.76903 13.3442C1.35149 13.593 0.983061 13.8477 0.698146 14.1977C0.428112 14.5308 0.23002 14.911 0.11518 15.3166C0.000340715 15.7222 -0.0289968 16.1453 0.0288425 16.5616C0.0791938 16.9244 0.213054 17.2523 0.384986 17.5849C0.550777 17.9035 0.777971 18.2767 1.05183 18.7244L1.08254 18.7756C1.35517 19.2233 1.58359 19.5965 1.79237 19.8919C2.00974 20.1977 2.24307 20.4733 2.55009 20.6942C2.90183 20.9501 3.30335 21.1378 3.73174 21.2468C4.16012 21.3557 4.60698 21.3837 5.04678 21.3291C5.50854 21.2709 5.92608 21.0965 6.36328 20.8767C6.52073 20.7934 6.6979 20.7492 6.87829 20.7481C7.05867 20.7471 7.23638 20.7894 7.39487 20.8709C7.54999 20.9592 7.67856 21.0837 7.76824 21.2326C7.85791 21.3814 7.90569 21.5496 7.90698 21.7209C7.9254 22.1884 7.9733 22.6186 8.1526 23.0256C8.32218 23.4137 8.57085 23.7663 8.88439 24.0634C9.19794 24.3605 9.57022 24.5961 9.97998 24.757C10.3361 24.8965 10.7045 24.9512 11.0938 24.9756C11.4672 25 11.9228 25 12.4693 25H12.5307C13.0772 25 13.5328 25 13.9062 24.9767C14.2967 24.9512 14.6639 24.8965 15.02 24.7558C15.4299 24.5952 15.8023 24.3598 16.1161 24.0629C16.4299 23.766 16.6788 23.4136 16.8486 23.0256C17.0267 22.6186 17.0746 22.1884 17.0942 21.7209C17.0962 21.5498 17.144 21.382 17.2332 21.2331C17.3223 21.0843 17.4499 20.9592 17.6039 20.8698C17.7626 20.7882 17.9406 20.746 18.1213 20.7472C18.3019 20.7485 18.4792 20.793 18.6367 20.8767C19.0739 21.0953 19.4915 21.2709 19.9532 21.3279C20.8411 21.4388 21.7392 21.2113 22.4499 20.6953C22.7569 20.4721 22.9903 20.1977 23.2076 19.8919C23.4164 19.5965 23.6448 19.2233 23.9175 18.7756L23.9482 18.7244C24.222 18.2767 24.4492 17.9035 24.6138 17.5849C24.7857 17.2523 24.9208 16.9233 24.9699 16.5616C25.0871 15.7209 24.8468 14.8706 24.3019 14.1977C24.0182 13.8477 23.6485 13.593 23.231 13.3442C23.0755 13.2569 22.9459 13.1336 22.8544 12.986C22.7629 12.8383 22.7124 12.6711 22.7078 12.5C22.7078 12.1767 22.8945 11.8558 23.231 11.6558C23.6485 11.407 24.0169 11.1523 24.3019 10.8023C24.5719 10.4692 24.77 10.089 24.8848 9.68338C24.9997 9.27777 25.029 8.85472 24.9712 8.43837C24.9133 8.08093 24.7929 7.73511 24.615 7.41512C24.4053 7.02881 24.1829 6.64878 23.9482 6.27558L23.9175 6.22442C23.6931 5.84544 23.4564 5.47317 23.2076 5.10814C23.0038 4.80275 22.7477 4.5316 22.4499 4.30581C22.0982 4.04993 21.6966 3.86216 21.2683 3.75323C20.8399 3.64429 20.393 3.61633 19.9532 3.67093C19.4915 3.72907 19.0739 3.90349 18.6367 4.12326C18.4793 4.2066 18.3021 4.25084 18.1217 4.25186C17.9413 4.25287 17.7636 4.21063 17.6051 4.12907C17.4508 4.03997 17.3229 3.91526 17.2333 3.7666C17.1437 3.61794 17.0955 3.4502 17.093 3.27907C17.0746 2.81163 17.0267 2.3814 16.8474 1.97442C16.6778 1.58634 16.4292 1.23369 16.1156 0.936612C15.8021 0.639536 15.4298 0.403853 15.02 0.243023C14.6639 0.103488 14.2955 0.0488372 13.9062 0.0244186C13.5328 3.2488e-08 13.0772 0 12.5307 0H12.4693ZM10.6849 1.85465C10.7795 1.81744 10.9231 1.78372 11.2191 1.76395C11.5224 1.74419 11.9154 1.74419 12.5 1.74419C13.0846 1.74419 13.4776 1.74419 13.7809 1.76395C14.0769 1.78372 14.2205 1.81744 14.3151 1.85465C14.6921 2.00233 14.9905 2.28488 15.1465 2.64186C15.1956 2.75349 15.2362 2.92907 15.2521 3.34419C15.289 4.26512 15.7913 5.15233 16.6828 5.63953C17.5744 6.12674 18.6367 6.09535 19.4976 5.66512C19.8857 5.47093 20.0662 5.41628 20.1939 5.40116C20.5974 5.35068 21.0056 5.45399 21.3287 5.68837C21.4097 5.74767 21.5129 5.84884 21.6787 6.0814C21.8494 6.32093 22.0459 6.64302 22.3382 7.12209C22.6304 7.60116 22.8257 7.92442 22.9596 8.18256C23.091 8.43488 23.1315 8.56977 23.1438 8.66628C23.1971 9.04833 23.088 9.43479 22.8404 9.7407C22.7618 9.83721 22.6218 9.95814 22.251 10.1791C21.4257 10.6698 20.8657 11.5256 20.8657 12.5C20.8657 13.4744 21.4257 14.3302 22.251 14.8209C22.6218 15.0419 22.7618 15.1628 22.8404 15.2593C23.0885 15.5651 23.1966 15.9512 23.1438 16.3337C23.1315 16.4302 23.0897 16.5663 22.9596 16.8174C22.8257 17.0767 22.6304 17.3988 22.3382 17.8779C22.0459 18.357 21.8482 18.6791 21.6787 18.9186C21.5129 19.1512 21.4097 19.2523 21.3287 19.3116C21.0056 19.546 20.5974 19.6493 20.1939 19.5988C20.0662 19.5837 19.8869 19.5291 19.4976 19.3349C18.6379 18.9047 17.5744 18.8721 16.6828 19.3593C15.7913 19.8465 15.289 20.7349 15.2521 21.6558C15.2362 22.0709 15.1956 22.2465 15.1465 22.3581C15.0694 22.5346 14.9562 22.695 14.8136 22.8301C14.6709 22.9652 14.5015 23.0723 14.3151 23.1453C14.2205 23.1826 14.0769 23.2163 13.7809 23.236C13.4776 23.2558 13.0846 23.2558 12.5 23.2558C11.9154 23.2558 11.5224 23.2558 11.2191 23.236C10.9231 23.2163 10.7795 23.1826 10.6849 23.1453C10.4985 23.0723 10.3291 22.9652 10.1864 22.8301C10.0438 22.695 9.93064 22.5346 9.85349 22.3581C9.80436 22.2465 9.76384 22.0709 9.74787 21.6558C9.71103 20.7349 9.20874 19.8477 8.31716 19.3605C7.42557 18.8733 6.36328 18.9047 5.5024 19.3349C5.11432 19.5291 4.9338 19.5837 4.80608 19.5988C4.40257 19.6493 3.99441 19.546 3.67133 19.3116C3.59028 19.2523 3.48712 19.1512 3.32133 18.9186C3.0903 18.5782 2.87037 18.2311 2.66185 17.8779C2.36956 17.3988 2.1743 17.0756 2.04044 16.8174C1.90903 16.5651 1.86851 16.4302 1.85623 16.3337C1.80291 15.9517 1.91202 15.5652 2.15956 15.2593C2.23816 15.1628 2.37816 15.0419 2.74904 14.8209C3.57431 14.3302 4.13432 13.4744 4.13432 12.5C4.13432 11.5256 3.57431 10.6698 2.74904 10.1791C2.37816 9.95814 2.23816 9.83721 2.15956 9.7407C1.91202 9.43479 1.80291 9.04833 1.85623 8.66628C1.86851 8.56977 1.91026 8.43372 2.04044 8.18256C2.1743 7.92325 2.36956 7.60116 2.66185 7.12209C2.95413 6.64302 3.15185 6.32093 3.32133 6.0814C3.48712 5.84884 3.59028 5.74767 3.67133 5.68837C3.99441 5.45399 4.40257 5.35068 4.80608 5.40116C4.9338 5.41628 5.1131 5.47093 5.5024 5.66512C6.36205 6.09535 7.42557 6.12791 8.31716 5.63953C9.20874 5.15233 9.71103 4.26512 9.74787 3.34419C9.76384 2.92907 9.80436 2.75349 9.85349 2.64186C10.0095 2.28488 10.3079 2.00233 10.6849 1.85465Z"/>
</svg>
