<svg width="20" height="20" viewBox="0 0 20 20" fill="none" xmlns="http://www.w3.org/2000/svg">
<path fill-rule="evenodd" clip-rule="evenodd" d="M1.66667 10C1.66667 7.78986 2.54464 5.67025 4.10744 4.10744C5.67025 2.54464 7.78986 1.66667 10 1.66667C12.2101 1.66667 14.3298 2.54464 15.8926 4.10744C17.4554 5.67025 18.3333 7.78986 18.3333 10C18.3333 12.2101 17.4554 14.3298 15.8926 15.8926C14.3298 17.4554 12.2101 18.3333 10 18.3333C7.78986 18.3333 5.67025 17.4554 4.10744 15.8926C2.54464 14.3298 1.66667 12.2101 1.66667 10ZM10 0C8.68678 -1.95685e-08 7.38642 0.258658 6.17317 0.761205C4.95991 1.26375 3.85752 2.00035 2.92893 2.92893C2.00035 3.85752 1.26375 4.95991 0.761205 6.17317C0.258658 7.38642 0 8.68678 0 10C0 11.3132 0.258658 12.6136 0.761205 13.8268C1.26375 15.0401 2.00035 16.1425 2.92893 17.0711C3.85752 17.9997 4.95991 18.7362 6.17317 19.2388C7.38642 19.7413 8.68678 20 10 20C12.6522 20 15.1957 18.9464 17.0711 17.0711C18.9464 15.1957 20 12.6522 20 10C20 7.34784 18.9464 4.8043 17.0711 2.92893C15.1957 1.05357 12.6522 3.95203e-08 10 0ZM6.94444 8.33333C7.3128 8.33333 7.66607 8.18701 7.92654 7.92654C8.18701 7.66607 8.33333 7.3128 8.33333 6.94444C8.33333 6.57609 8.18701 6.22282 7.92654 5.96235C7.66607 5.70188 7.3128 5.55556 6.94444 5.55556C6.57609 5.55556 6.22282 5.70188 5.96235 5.96235C5.70188 6.22282 5.55556 6.57609 5.55556 6.94444C5.55556 7.3128 5.70188 7.66607 5.96235 7.92654C6.22282 8.18701 6.57609 8.33333 6.94444 8.33333ZM14.4444 6.94444C14.4444 7.3128 14.2981 7.66607 14.0376 7.92654C13.7772 8.18701 13.4239 8.33333 13.0556 8.33333C12.6872 8.33333 12.3339 8.18701 12.0735 7.92654C11.813 7.66607 11.6667 7.3128 11.6667 6.94444C11.6667 6.57609 11.813 6.22282 12.0735 5.96235C12.3339 5.70188 12.6872 5.55556 13.0556 5.55556C13.4239 5.55556 13.7772 5.70188 14.0376 5.96235C14.2981 6.22282 14.4444 6.57609 14.4444 6.94444ZM6.33333 11.9178L6.32889 11.9089C6.24254 11.7095 6.08174 11.5518 5.88077 11.4692C5.67979 11.3867 5.45453 11.3859 5.25298 11.467C5.05144 11.5482 4.88955 11.7048 4.80182 11.9036C4.71409 12.1024 4.70746 12.3275 4.78333 12.5311L5.55556 12.2222C4.78222 12.5311 4.78222 12.5322 4.78222 12.5333L4.78333 12.5356L4.78556 12.54L4.79 12.5522C4.81139 12.6042 4.83474 12.6553 4.86 12.7056C5.13862 13.2572 5.50233 13.7615 5.93778 14.2C6.76 15.0211 8.07333 15.8333 10 15.8333C11.9267 15.8333 13.2411 15.0211 14.0611 14.2C14.3964 13.8657 14.6894 13.4914 14.9333 13.0856C15.0351 12.9129 15.1275 12.7349 15.21 12.5522L15.2144 12.54L15.2167 12.5356V12.5333C15.2167 12.5322 15.2178 12.5311 14.4444 12.2222L15.2178 12.5311C15.2892 12.3286 15.2798 12.1064 15.1914 11.9107C15.103 11.7151 14.9425 11.5611 14.7434 11.4808C14.5442 11.4006 14.3218 11.4003 14.1224 11.4801C13.9231 11.5598 13.7622 11.7134 13.6733 11.9089L13.6689 11.9178L13.6411 11.9778C13.4435 12.3627 13.1879 12.715 12.8833 13.0222C12.3144 13.59 11.4056 14.1667 10 14.1667C8.59445 14.1667 7.68556 13.59 7.11667 13.0222C6.81245 12.7149 6.55725 12.3626 6.36 11.9778L6.33333 11.9178Z" />
</svg>
