<svg width="30" height="30" viewBox="0 0 30 30" fill="none" xmlns="http://www.w3.org/2000/svg">
<path fill-rule="evenodd" clip-rule="evenodd" d="M14.0625 4.6875V1.875C14.0625 1.35723 14.4822 0.9375 15 0.9375C15.5178 0.9375 15.9375 1.35723 15.9375 1.875V4.6875C15.9375 5.20527 15.5178 5.625 15 5.625C14.4822 5.625 14.0625 5.20527 14.0625 4.6875ZM22.5 15C22.5 19.1421 19.1421 22.5 15 22.5C10.8579 22.5 7.5 19.1421 7.5 15C7.5 10.8579 10.8579 7.5 15 7.5C19.1403 7.50452 22.4955 10.8597 22.5 15ZM20.625 15C20.625 11.8934 18.1066 9.375 15 9.375C11.8934 9.375 9.375 11.8934 9.375 15C9.375 18.1066 11.8934 20.625 15 20.625C18.1053 20.6218 20.6218 18.1053 20.625 15ZM6.83672 8.16328C7.20304 8.5296 7.79696 8.5296 8.16328 8.16328C8.5296 7.79696 8.5296 7.20304 8.16328 6.83672L6.28828 4.96172C5.92196 4.5954 5.32804 4.5954 4.96172 4.96172C4.5954 5.32804 4.5954 5.92196 4.96172 6.28828L6.83672 8.16328ZM6.83672 21.8367L4.96172 23.7117C4.72475 23.9487 4.6322 24.2941 4.71894 24.6178C4.80568 24.9415 5.05852 25.1943 5.38222 25.2811C5.70593 25.3678 6.05131 25.2752 6.28828 25.0383L8.16328 23.1633C8.40025 22.9263 8.49279 22.5809 8.40606 22.2572C8.31932 21.9335 8.06648 21.6807 7.74278 21.5939C7.41907 21.5072 7.07369 21.5998 6.83672 21.8367ZM22.5 8.4375C22.7487 8.4377 22.9873 8.33905 23.1633 8.16328L25.0383 6.28828C25.2752 6.05131 25.3678 5.70593 25.2811 5.38222C25.1943 5.05852 24.9415 4.80568 24.6178 4.71894C24.2941 4.6322 23.9487 4.72475 23.7117 4.96172L21.8367 6.83672C21.5683 7.10486 21.4879 7.50835 21.6332 7.85887C21.7784 8.20938 22.1206 8.4378 22.5 8.4375ZM23.1633 21.8367C22.797 21.4704 22.203 21.4704 21.8367 21.8367C21.4704 22.203 21.4704 22.797 21.8367 23.1633L23.7117 25.0383C24.078 25.4046 24.672 25.4046 25.0383 25.0383C25.4046 24.672 25.4046 24.078 25.0383 23.7117L23.1633 21.8367ZM5.625 15C5.625 14.4822 5.20527 14.0625 4.6875 14.0625H1.875C1.35723 14.0625 0.9375 14.4822 0.9375 15C0.9375 15.5178 1.35723 15.9375 1.875 15.9375H4.6875C5.20527 15.9375 5.625 15.5178 5.625 15ZM15 24.375C14.4822 24.375 14.0625 24.7947 14.0625 25.3125V28.125C14.0625 28.6428 14.4822 29.0625 15 29.0625C15.5178 29.0625 15.9375 28.6428 15.9375 28.125V25.3125C15.9375 24.7947 15.5178 24.375 15 24.375ZM28.125 14.0625H25.3125C24.7947 14.0625 24.375 14.4822 24.375 15C24.375 15.5178 24.7947 15.9375 25.3125 15.9375H28.125C28.6428 15.9375 29.0625 15.5178 29.0625 15C29.0625 14.4822 28.6428 14.0625 28.125 14.0625Z" fill="white"/>
</svg>
