<svg width="18" height="18" viewBox="0 0 18 18" fill="none" xmlns="http://www.w3.org/2000/svg">
<path d="M9.003 18C7.759 18 6.589 17.764 5.493 17.292C4.39767 16.8193 3.44467 16.178 2.634 15.368C1.82333 14.558 1.18167 13.606 0.709 12.512C0.236333 11.418 0 10.2483 0 9.003C0 7.75767 0.236333 6.58767 0.709 5.493C1.18167 4.39767 1.823 3.44467 2.633 2.634C3.443 1.82333 4.39533 1.18167 5.49 0.709C6.58467 0.236333 7.75467 0 9 0C9.864 0 10.6977 0.120667 11.501 0.362C12.3043 0.603333 13.0687 0.95 13.794 1.402C13.9287 1.484 14.0177 1.594 14.061 1.732C14.1037 1.87133 14.0803 1.99967 13.991 2.117C13.901 2.235 13.7827 2.305 13.636 2.327C13.4893 2.349 13.353 2.319 13.227 2.237C12.591 1.833 11.915 1.526 11.199 1.316C10.483 1.106 9.75 1.00067 9 1C6.78333 1 4.89567 1.77933 3.337 3.338C1.77833 4.89667 0.999333 6.784 1 9C1.00067 11.216 1.78 13.1037 3.338 14.663C4.896 16.2223 6.78333 17.0013 9 17C11.2167 16.9987 13.1043 16.2197 14.663 14.663C16.2217 13.1063 17.0007 11.2187 17 9C17 8.74667 16.9893 8.501 16.968 8.263C16.9473 8.025 16.9093 7.78167 16.854 7.533C16.8207 7.39033 16.8397 7.25367 16.911 7.123C16.9823 6.99233 17.09 6.91167 17.234 6.881C17.3707 6.849 17.4947 6.874 17.606 6.956C17.7173 7.038 17.7897 7.148 17.823 7.286C17.8823 7.558 17.9267 7.83567 17.956 8.119C17.9853 8.40233 18 8.696 18 9C18 10.2453 17.764 11.4153 17.292 12.51C16.82 13.6047 16.1787 14.5573 15.368 15.368C14.5573 16.1787 13.6053 16.8197 12.512 17.291C11.4187 17.7623 10.249 17.9987 9.003 18ZM7.562 11.492L16.939 2.109C17.0323 2.01567 17.1457 1.965 17.279 1.957C17.4123 1.949 17.536 2.00133 17.65 2.114C17.754 2.21733 17.806 2.334 17.806 2.464C17.806 2.594 17.7527 2.71167 17.646 2.817L8.127 12.342C7.965 12.5033 7.77633 12.584 7.561 12.584C7.34567 12.584 7.15733 12.5033 6.996 12.342L4.358 9.704C4.26467 9.61067 4.21467 9.49567 4.208 9.359C4.20133 9.22367 4.25133 9.10267 4.358 8.996C4.46467 8.88933 4.58267 8.836 4.712 8.836C4.84133 8.836 4.95933 8.88933 5.066 8.996L7.562 11.492Z" />
</svg>
