<svg width="25" height="22" viewBox="0 0 25 22" fill="none" xmlns="http://www.w3.org/2000/svg">
<path d="M6.02286 2.12778C6.0955 2.05473 6.15312 1.968 6.19243 1.87256C6.23174 1.77711 6.25197 1.67481 6.25197 1.5715C6.25197 1.46819 6.23174 1.36588 6.19243 1.27044C6.15312 1.17499 6.0955 1.08826 6.02286 1.01521C5.95022 0.942158 5.86399 0.88421 5.76909 0.844675C5.67418 0.805139 5.57246 0.78479 5.46974 0.78479C5.36701 0.78479 5.26529 0.805139 5.17039 0.844675C5.07548 0.88421 4.98925 0.942158 4.91661 1.01521L2.34474 3.60335L1.33536 2.58664C1.18866 2.4391 0.989699 2.35622 0.782237 2.35622C0.574775 2.35622 0.37581 2.4391 0.229112 2.58664C0.0824138 2.73418 0 2.93428 0 3.14293C0 3.24624 0.0202332 3.34854 0.0595443 3.44399C0.0988554 3.53943 0.156474 3.62616 0.229112 3.69921L1.79161 5.27064C1.86418 5.34381 1.95039 5.40186 2.04531 5.44147C2.14022 5.48108 2.24198 5.50147 2.34474 5.50147C2.4475 5.50147 2.54925 5.48108 2.64416 5.44147C2.73908 5.40186 2.82529 5.34381 2.89786 5.27064L6.02286 2.12778ZM10.1572 3.14293C9.95004 3.14293 9.75132 3.22571 9.60481 3.37306C9.4583 3.52041 9.37599 3.72026 9.37599 3.92864C9.37599 4.13702 9.4583 4.33687 9.60481 4.48422C9.75132 4.63157 9.95004 4.71435 10.1572 4.71435H24.2197C24.4269 4.71435 24.6257 4.63157 24.7722 4.48422C24.9187 4.33687 25.001 4.13702 25.001 3.92864C25.001 3.72026 24.9187 3.52041 24.7722 3.37306C24.6257 3.22571 24.4269 3.14293 24.2197 3.14293H10.1572ZM10.1572 11.0001C9.95004 11.0001 9.75132 11.0828 9.60481 11.2302C9.4583 11.3775 9.37599 11.5774 9.37599 11.7858C9.37599 11.9942 9.4583 12.194 9.60481 12.3414C9.75132 12.4887 9.95004 12.5715 10.1572 12.5715H24.2197C24.4269 12.5715 24.6257 12.4887 24.7722 12.3414C24.9187 12.194 25.001 11.9942 25.001 11.7858C25.001 11.5774 24.9187 11.3775 24.7722 11.2302C24.6257 11.0828 24.4269 11.0001 24.2197 11.0001H10.1572ZM9.37599 19.6429C9.37599 19.4345 9.4583 19.2347 9.60481 19.0873C9.75132 18.94 9.95004 18.8572 10.1572 18.8572H24.2197C24.4269 18.8572 24.6257 18.94 24.7722 19.0873C24.9187 19.2347 25.001 19.4345 25.001 19.6429C25.001 19.8513 24.9187 20.0512 24.7722 20.1985C24.6257 20.3459 24.4269 20.4286 24.2197 20.4286H10.1572C9.95004 20.4286 9.75132 20.3459 9.60481 20.1985C9.4583 20.0512 9.37599 19.8513 9.37599 19.6429ZM6.02286 10.7706C6.16956 10.6231 6.25197 10.423 6.25197 10.2144C6.25197 10.0057 6.16956 9.8056 6.02286 9.65807C5.87616 9.51053 5.6772 9.42765 5.46974 9.42765C5.26227 9.42765 5.06331 9.51053 4.91661 9.65807L2.34474 12.2462L1.33536 11.2295C1.18866 11.082 0.989699 10.9991 0.782237 10.9991C0.574775 10.9991 0.37581 11.082 0.229112 11.2295C0.0824138 11.377 4.88797e-09 11.5771 0 11.7858C-4.88797e-09 11.9944 0.0824138 12.1945 0.229112 12.3421L1.79161 13.9135C1.86418 13.9867 1.95039 14.0447 2.04531 14.0843C2.14022 14.1239 2.24198 14.1443 2.34474 14.1443C2.4475 14.1443 2.54925 14.1239 2.64416 14.0843C2.73908 14.0447 2.82529 13.9867 2.89786 13.9135L6.02286 10.7706ZM6.02286 17.5152C6.09562 17.5882 6.15334 17.6749 6.19273 17.7704C6.23211 17.8658 6.25238 17.9681 6.25238 18.0715C6.25238 18.1748 6.23211 18.2772 6.19273 18.3726C6.15334 18.4681 6.09562 18.5548 6.02286 18.6278L2.89786 21.7706C2.82529 21.8438 2.73908 21.9019 2.64416 21.9415C2.54925 21.9811 2.4475 22.0015 2.34474 22.0015C2.24198 22.0015 2.14022 21.9811 2.04531 21.9415C1.95039 21.9019 1.86418 21.8438 1.79161 21.7706L0.229112 20.1992C0.0824138 20.0517 -4.88797e-09 19.8516 0 19.6429C4.88797e-09 19.4343 0.0824138 19.2342 0.229112 19.0866C0.37581 18.9391 0.574775 18.8562 0.782237 18.8562C0.989699 18.8562 1.18866 18.9391 1.33536 19.0866L2.34474 20.1034L4.91661 17.5152C4.98918 17.442 5.0754 17.384 5.17031 17.3444C5.26522 17.3048 5.36698 17.2844 5.46974 17.2844C5.5725 17.2844 5.67425 17.3048 5.76916 17.3444C5.86408 17.384 5.95029 17.442 6.02286 17.5152Z" />
</svg>
