<svg width="25" height="25" viewBox="0 0 25 25" xmlns="http://www.w3.org/2000/svg">
<g clip-path="url(#clip0_487_1403)">
<path d="M7.81128 10.2083C7.81128 11.9835 8.30625 13.7811 9.16924 15.1405C10.0768 16.5699 11.2615 17.3572 12.5051 17.3572C13.7485 17.3572 14.9318 16.5703 15.837 15.1417C16.6971 13.784 17.1904 11.987 17.1904 10.2114V8.64746C17.5383 6.6905 17.6112 4.99693 17.6107 3.91674C17.61 2.52207 17.4938 1.55849 17.3854 1.1218C17.3279 0.889799 17.1552 0.748891 16.9767 0.771472C16.9472 0.768028 16.9169 0.76841 16.8863 0.774087C16.1598 0.909701 15.2686 0.675853 14.3249 0.428292C12.796 0.0272554 11.0687 -0.425258 9.74756 0.77128C9.73579 0.769877 9.72393 0.768921 9.71186 0.768921C8.97041 0.768921 8.31211 1.15599 7.8582 1.8588C7.43892 2.50804 7.20801 3.40127 7.20801 4.37397C7.20801 5.96708 7.72676 8.91122 7.81123 9.38013L7.81128 10.2083ZM15.2351 14.491C14.4811 15.6811 13.5115 16.3366 12.5051 16.3366C11.4981 16.3366 10.527 15.6804 9.77056 14.489C9.02188 13.3097 8.59253 11.7495 8.59253 10.2084V9.59631C8.59253 8.33413 9.24131 6.61829 9.48755 6.01263C13.0005 5.48822 15.3519 6.7555 15.8857 7.08184L16.4092 8.69326V10.2115C16.4092 11.7534 15.9812 13.3132 15.2351 14.491ZM9.71191 1.78953C9.74023 1.78953 9.76782 1.78538 9.79443 1.77786C9.90176 1.80771 10.018 1.77907 10.1123 1.68556C11.1655 0.640451 12.6935 1.04123 14.1712 1.42894C14.962 1.63638 15.7184 1.83476 16.4215 1.83476C16.5189 1.83476 16.6152 1.83093 16.7105 1.82276C16.8283 2.6869 16.9233 4.54722 16.6586 6.84825L16.5483 6.50877C16.5139 6.40301 16.4533 6.31556 16.3762 6.26038C16.264 6.1802 13.5843 4.3098 9.22324 5.02499C9.09536 5.03348 8.97319 5.12342 8.90435 5.27906C8.87935 5.33558 8.53945 6.11099 8.24522 7.10264C8.11167 6.15755 7.98926 5.09471 7.98926 4.37384C7.98931 2.58867 8.85444 1.78953 9.71191 1.78953Z" />
<path d="M19.2325 18.4869C19.2241 18.4838 19.2156 18.4811 19.2071 18.4788L16.883 17.8437L16.2686 16.6266C16.2643 16.6179 16.2597 16.6095 16.255 16.6013C16.1433 16.4067 15.9732 16.2783 15.7884 16.249C15.6036 16.2197 15.4149 16.2912 15.2708 16.4452C15.2682 16.4479 15.2657 16.4507 15.2632 16.4534L12.4999 19.561L9.73652 16.4535C9.73403 16.4508 9.73154 16.448 9.72905 16.4453C9.58491 16.2912 9.39619 16.2197 9.21143 16.249C9.02661 16.2783 8.85649 16.4067 8.74482 16.6013C8.74009 16.6095 8.73555 16.6179 8.73125 16.6266L8.11685 17.8437L5.79272 18.4788C5.78418 18.4811 5.77568 18.4838 5.76729 18.4869C5.0915 18.7342 4.5166 19.2815 4.10469 20.0698C3.72891 20.7888 3.52197 21.6568 3.52197 22.5139V23.4734C3.52197 24.3151 4.0957 24.9999 4.80093 24.9999H11.6105C11.611 24.9999 11.6115 25 11.612 25C11.6125 25 11.613 24.9999 11.6136 24.9999H13.3862C13.3867 24.9999 13.3873 25 13.3878 25C13.3883 25 13.3888 24.9999 13.3893 24.9999H20.1988C20.9041 24.9999 21.4778 24.3151 21.4778 23.4734V22.5139C21.4778 21.6568 21.2709 20.7888 20.8951 20.0698C20.4833 19.2816 19.9083 18.7342 19.2325 18.4869ZM15.6855 17.3254L16.1705 18.286L14.2296 21.7723L13.0738 20.2624L15.6855 17.3254ZM12.2437 22.9629H12.7562L12.9118 23.9794H12.088L12.2437 22.9629ZM12.8905 21.6627C12.8905 21.8307 12.8122 21.9422 12.7603 21.9422H12.2395C12.1876 21.9422 12.1092 21.8307 12.1092 21.6627V21.4663L12.4999 20.956L12.8905 21.4663V21.6627H12.8905ZM9.31431 17.3254L11.926 20.2624L10.7702 21.7722L8.82935 18.2859L9.31431 17.3254ZM4.30317 23.4734V22.5139C4.30317 21.3101 4.87427 19.8826 5.96597 19.4741L8.18696 18.8672L10.4073 22.8555C10.4745 22.9762 10.5787 23.0524 10.6926 23.0641C10.7028 23.0652 10.713 23.0656 10.7232 23.0656C10.8264 23.0656 10.9258 23.0123 10.9994 22.9162L11.4549 22.3211C11.4755 22.371 11.4982 22.4188 11.5232 22.4641L11.2913 23.9792H4.80093C4.5311 23.9793 4.30317 23.7476 4.30317 23.4734ZM20.6966 23.4734C20.6966 23.7476 20.4687 23.9793 20.1989 23.9793H13.7085L13.4766 22.4642C13.5016 22.4189 13.5243 22.3711 13.5449 22.3212L14.0004 22.9163C14.074 23.0123 14.1734 23.0657 14.2766 23.0657C14.2868 23.0657 14.297 23.0652 14.3072 23.0642C14.4211 23.0525 14.5253 22.9763 14.5925 22.8555L16.8128 18.8672L19.0338 19.4741C20.1255 19.8826 20.6966 21.3102 20.6966 22.514V23.4734Z" />
<path d="M3.13306 11.1655C3.13306 12.4053 3.45601 13.5688 4.04238 14.4417C4.63755 15.3277 5.43237 15.8156 6.28037 15.8156C6.91616 15.8156 7.52827 15.5383 8.05059 15.0139C8.22163 14.8422 8.25371 14.5218 8.12222 14.2984C7.99072 14.0749 7.74561 14.0329 7.57446 14.2047C7.18994 14.5908 6.74243 14.795 6.28037 14.795C4.97568 14.795 3.91426 13.1668 3.91426 11.1655V10.8655C3.91426 10.059 4.16958 8.99132 4.30337 8.48701C5.14644 8.38942 5.89927 8.53383 6.51411 8.65248L6.58379 8.66587C6.60313 8.66957 6.62227 8.67136 6.64121 8.67136C6.83174 8.67136 6.99858 8.48899 7.02715 8.2353C7.05859 7.95649 6.91104 7.69719 6.69761 7.65611L6.62822 7.64278C5.91035 7.50423 5.01714 7.332 3.97378 7.50652C3.97256 7.50671 3.97129 7.50684 3.97007 7.5071C3.96992 7.5071 3.96978 7.5071 3.96963 7.50716C3.96826 7.50735 3.96694 7.50786 3.96558 7.50812C3.95439 7.51016 3.94326 7.51265 3.93228 7.51596C3.92607 7.51781 3.92012 7.5203 3.91406 7.52253C3.90806 7.52477 3.90205 7.52668 3.89614 7.52923C3.88848 7.53255 3.8811 7.5365 3.87368 7.54039C3.86953 7.54263 3.86528 7.54454 3.86113 7.54697C3.85356 7.55137 3.84624 7.55628 3.83897 7.56132C3.83506 7.564 3.8311 7.56642 3.82725 7.56929C3.82056 7.5742 3.81421 7.57962 3.80776 7.58505C3.80342 7.58875 3.79902 7.59219 3.79478 7.59608C3.7894 7.60106 3.78428 7.60642 3.77915 7.61165C3.77417 7.61675 3.76914 7.62166 3.76436 7.62708C3.76025 7.63168 3.75645 7.63659 3.75254 7.64143C3.74712 7.64807 3.7417 7.65464 3.73657 7.66166C3.7334 7.66606 3.73047 7.67071 3.72739 7.67518C3.72207 7.68309 3.7167 7.69087 3.71172 7.69923C3.70879 7.70408 3.7062 7.70924 3.70342 7.71422C3.69888 7.72245 3.69424 7.73061 3.69004 7.73929C3.68657 7.74637 3.6835 7.75389 3.68032 7.76123C3.67734 7.76812 3.67417 7.77475 3.67139 7.7819C3.66611 7.79548 3.66133 7.80945 3.65698 7.82361C3.65659 7.82483 3.65615 7.82597 3.65576 7.82719C3.65576 7.82725 3.65566 7.82757 3.65562 7.82763C3.65527 7.82884 3.65493 7.82999 3.65459 7.83114C3.6478 7.85391 3.61963 7.94928 3.57944 8.09822C3.54824 7.77373 3.52778 7.46812 3.52778 7.2233C3.52778 6.12034 3.93521 5.62662 4.33901 5.62662C4.35811 5.62662 4.37671 5.62426 4.39507 5.62082C4.41357 5.62433 4.43223 5.62669 4.45103 5.62669C4.5334 5.62669 4.61641 5.59281 4.68701 5.52271C5.05161 5.16091 5.52197 5.03933 6.21191 5.12831C6.42642 5.15625 6.61782 4.95111 6.63906 4.67063C6.66025 4.39022 6.50342 4.14036 6.28872 4.11268C5.75933 4.04436 4.99307 4.02624 4.32627 4.60652C3.39556 4.61635 2.74658 5.68945 2.74658 7.22337C2.74658 8.29807 3.0709 10.2567 3.13306 10.6222V11.1655Z" />
<path d="M2.73438 20.4083H0.995459C0.872852 20.4083 0.78125 20.3125 0.78125 20.2268V19.5735C0.78125 18.8167 1.13755 17.9202 1.81875 17.6621L3.24121 17.2734L3.97583 18.6579C4.05171 18.8008 4.17339 18.8775 4.29722 18.8775C4.37397 18.8775 4.45156 18.848 4.51938 18.7865C4.69668 18.626 4.74077 18.3081 4.61787 18.0764L3.88623 16.6975L4.10229 16.2695L5.62568 17.7554C5.79858 17.9241 6.04331 17.8776 6.17236 17.6518C6.30147 17.426 6.26597 17.1062 6.09307 16.9376L4.42104 15.3068C4.29795 15.1802 4.13906 15.1219 3.98325 15.1465C3.82388 15.1718 3.6772 15.2825 3.58086 15.4503C3.57612 15.4586 3.57163 15.467 3.56729 15.4756L3.17725 16.2483L1.64521 16.6669C1.63667 16.6693 1.62817 16.672 1.61978 16.675C0.556396 17.0641 0 18.4277 0 19.5735V20.2268C0 20.8897 0.446582 21.429 0.995459 21.429H2.73438C2.9501 21.429 3.125 21.2005 3.125 20.9187C3.125 20.6368 2.9501 20.4083 2.73438 20.4083Z" />
<path d="M18.3516 4.58887C18.926 4.60386 19.5609 4.73813 20.175 4.86794C20.639 4.96598 21.0834 5.05905 21.4694 5.09145C21.4557 6.29986 21.3951 7.38655 21.3262 8.26153C21.3255 8.26077 21.3246 8.26013 21.3239 8.25936C21.3177 8.2535 21.3114 8.24801 21.305 8.24265C21.302 8.24016 21.2993 8.23736 21.2963 8.235C21.2929 8.23232 21.2894 8.22983 21.286 8.22715C21.2856 8.22683 21.2851 8.22645 21.2846 8.22613C20.503 7.61108 19.5556 7.25623 18.3886 7.14192C18.1733 7.12062 17.9861 7.33163 17.9699 7.61262C17.9537 7.89367 18.1151 8.13861 18.3302 8.15966C19.3256 8.25719 20.1315 8.54271 20.7896 9.0305C20.8821 9.31557 21.0858 10.0371 21.0858 10.8656V11.1656C21.0858 13.1669 20.0243 14.795 18.7197 14.795C18.2576 14.795 17.8101 14.5909 17.4256 14.2048C17.2545 14.0331 17.0093 14.075 16.8778 14.2984C16.7464 14.5219 16.7784 14.8422 16.9494 15.014C17.4718 15.5385 18.0839 15.8156 18.7197 15.8156C19.5677 15.8156 20.3625 15.3277 20.9576 14.4418C21.544 13.5688 21.867 12.4053 21.867 11.1656V10.614C21.9219 10.2326 22.2444 7.85699 22.253 4.71721C22.263 4.66688 22.2674 4.61374 22.265 4.55901C22.2527 4.2867 22.0789 4.07735 21.8726 4.07933C21.8694 4.0792 21.8661 4.07869 21.8628 4.07869C21.8552 4.07869 21.8479 4.07964 21.8404 4.08016C21.4624 4.1058 20.8976 3.98677 20.2997 3.8604C19.6888 3.7313 18.9965 3.5849 18.3672 3.56851C18.1501 3.56169 17.9732 3.78673 17.9688 4.06848C17.9646 4.35023 18.136 4.58325 18.3516 4.58887Z" />
<path d="M23.3803 16.675C23.3719 16.672 23.3634 16.6693 23.3548 16.6669L21.8228 16.2483L21.4327 15.4756C21.4284 15.4671 21.4239 15.4586 21.4192 15.4503C21.3228 15.2825 21.1762 15.1718 21.0168 15.1465C20.8609 15.1219 20.7021 15.1801 20.579 15.3068L18.907 16.9376C18.7341 17.1062 18.6986 17.426 18.8277 17.6518C18.9568 17.8777 19.2015 17.9241 19.3743 17.7554L20.8977 16.2695L21.1138 16.6975L20.3821 18.0764C20.2592 18.308 20.3033 18.6259 20.4806 18.7865C20.5485 18.8479 20.626 18.8774 20.7028 18.8774C20.8265 18.8774 20.9483 18.8008 21.0242 18.6578L21.7588 17.2734L23.1812 17.6621C23.8624 17.9201 24.2187 18.8167 24.2187 19.5735V20.2267C24.2187 20.3124 24.1271 20.4083 24.0045 20.4083H22.2656C22.0499 20.4083 21.875 20.6368 21.875 20.9186C21.875 21.2004 22.0499 21.4289 22.2656 21.4289H24.0045C24.5534 21.4289 25 20.8896 25 20.2267V19.5735C25 18.4278 24.4436 17.0642 23.3803 16.675Z" />
</g>
</svg>
