<svg width="35" height="30" viewBox="0 0 35 30" fill="none" xmlns="http://www.w3.org/2000/svg">
<path d="M9.37383 12.25C9.37383 14.3801 9.96779 16.5374 11.0034 18.1685C12.0924 19.8839 13.5141 20.8286 15.0064 20.8286C16.4985 20.8286 17.9184 19.8844 19.0046 18.17C20.0368 16.5408 20.6288 14.3844 20.6288 12.2537V10.377C21.0462 8.0286 21.1338 5.99631 21.1331 4.70009C21.1322 3.02649 20.9929 1.87019 20.8628 1.34616C20.7938 1.06776 20.5865 0.898669 20.3723 0.925767C20.3369 0.921633 20.3006 0.922092 20.2639 0.928905C19.3921 1.09164 18.3226 0.811024 17.1902 0.51395C15.3555 0.0327065 13.2827 -0.510309 11.6974 0.925537C11.6832 0.923852 11.669 0.922705 11.6545 0.922705C10.7648 0.922705 9.97482 1.38718 9.43014 2.23057C8.92699 3.00965 8.6499 4.08152 8.6499 5.24877C8.6499 7.1605 9.2724 10.6935 9.37377 11.2562L9.37383 12.25ZM18.2824 17.3892C17.3776 18.8174 16.2141 19.6039 15.0064 19.6039C13.798 19.6039 12.6326 18.8165 11.725 17.3868C10.8265 15.9717 10.3113 14.0994 10.3113 12.25V11.5156C10.3113 10.001 11.0899 7.94195 11.3854 7.21515C15.6009 6.58587 18.4226 8.1066 19.0631 8.49821L19.6913 10.4319V12.2538C19.6913 14.1041 19.1778 15.9759 18.2824 17.3892ZM11.6546 2.14744C11.6886 2.14744 11.7217 2.14246 11.7536 2.13343C11.8824 2.16925 12.0219 2.13488 12.135 2.02267C13.3989 0.768541 15.2325 1.24948 17.0057 1.71472C17.9546 1.96365 18.8624 2.20171 19.7061 2.20171C19.823 2.20171 19.9386 2.19712 20.0529 2.18732C20.1942 3.22428 20.3083 5.45666 19.9906 8.2179L19.8582 7.81052C19.817 7.68361 19.7443 7.57867 19.6517 7.51246C19.5171 7.41624 16.3015 5.17176 11.0682 6.02999C10.9147 6.04017 10.7681 6.1481 10.6855 6.33487C10.6555 6.40269 10.2476 7.33318 9.89455 8.52317C9.7343 7.38906 9.5874 6.11366 9.5874 5.24861C9.58746 3.1064 10.6256 2.14744 11.6546 2.14744Z" />
<path d="M23.0792 22.1844C23.0691 22.1807 23.0589 22.1775 23.0487 22.1747L20.2597 21.4126L19.5225 19.952C19.5173 19.9417 19.5118 19.9316 19.5062 19.9217C19.3721 19.6882 19.168 19.5342 18.9462 19.4989C18.7245 19.4638 18.4981 19.5495 18.3251 19.7344C18.3221 19.7376 18.319 19.741 18.3161 19.7443L15.0001 23.4733L11.684 19.7443C11.681 19.7411 11.678 19.7378 11.6751 19.7345C11.5021 19.5496 11.2756 19.4638 11.0539 19.4989C10.8321 19.5342 10.628 19.6882 10.494 19.9217C10.4883 19.9316 10.4829 19.9417 10.4777 19.952L9.74041 21.4126L6.95146 22.1747C6.94121 22.1775 6.93102 22.1807 6.92094 22.1844C6.11 22.4812 5.42012 23.138 4.92582 24.0839C4.47488 24.9467 4.22656 25.9883 4.22656 27.0169V28.1682C4.22656 29.1782 4.91504 30 5.76131 30H13.9328C13.9334 30 13.934 30.0001 13.9346 30.0001C13.9352 30.0001 13.9358 30 13.9365 30H16.0636C16.0643 30 16.0649 30.0001 16.0655 30.0001C16.0661 30.0001 16.0667 30 16.0673 30H24.2388C25.0851 30 25.7735 29.1783 25.7735 28.1682V27.0169C25.7735 25.9883 25.5252 24.9467 25.0743 24.0839C24.5801 23.1381 23.8902 22.4812 23.0792 22.1844ZM18.8228 20.7906L19.4047 21.9434L17.0757 26.1269L15.6887 24.315L18.8228 20.7906ZM14.6926 27.5556H15.3076L15.4943 28.7754H14.5058L14.6926 27.5556ZM15.4688 25.9954C15.4688 26.197 15.3748 26.3308 15.3126 26.3308H14.6875C14.6253 26.3308 14.5313 26.197 14.5313 25.9954V25.7597L15 25.1473L15.4688 25.7597V25.9954H15.4688ZM11.1774 20.7906L14.3114 24.315L12.9245 26.1268L10.5954 21.9433L11.1774 20.7906ZM5.164 28.1682V27.0169C5.164 25.5723 5.84932 23.8592 7.15936 23.369L9.82455 22.6408L12.4889 27.4267C12.5696 27.5716 12.6946 27.663 12.8313 27.6771C12.8436 27.6784 12.8558 27.6789 12.868 27.6789C12.9918 27.6789 13.1112 27.6149 13.1994 27.4996L13.7461 26.7855C13.7708 26.8453 13.7981 26.9028 13.8281 26.9571L13.5498 28.7752H5.76131C5.43752 28.7753 5.164 28.4973 5.164 28.1682ZM24.8362 28.1682C24.8362 28.4973 24.5626 28.7753 24.2389 28.7753H16.4504L16.1721 26.9572C16.2021 26.9028 16.2293 26.8454 16.2541 26.7856L16.8007 27.4997C16.889 27.6149 17.0083 27.679 17.1321 27.679C17.1443 27.679 17.1566 27.6784 17.1688 27.6772C17.3055 27.6632 17.4306 27.5717 17.5112 27.4268L20.1756 22.6408L22.8408 23.3691C24.1508 23.8593 24.8362 25.5724 24.8362 27.017V28.1682Z" />
<path d="M3.75967 13.3982C3.75967 14.886 4.14721 16.2822 4.85086 17.3296C5.56506 18.3928 6.51885 18.9783 7.53645 18.9783C8.29939 18.9783 9.03393 18.6456 9.6607 18.0163C9.86596 17.8103 9.90445 17.4258 9.74666 17.1576C9.58887 16.8895 9.29473 16.8391 9.08936 17.0453C8.62793 17.5086 8.09092 17.7536 7.53645 17.7536C5.97082 17.7536 4.69711 15.7997 4.69711 13.3982V13.0383C4.69711 12.0704 5.0035 10.7892 5.16404 10.184C6.17572 10.0669 7.07912 10.2402 7.81693 10.3826L7.90055 10.3987C7.92375 10.4031 7.94672 10.4052 7.96945 10.4052C8.19809 10.4052 8.3983 10.1864 8.43258 9.88197C8.47031 9.54739 8.29324 9.23623 8.03713 9.18694L7.95387 9.17094C7.09242 9.00468 6.02057 8.79801 4.76854 9.00744C4.76707 9.00767 4.76555 9.00782 4.76408 9.00813C4.76391 9.00813 4.76373 9.00813 4.76355 9.0082C4.76191 9.00843 4.76033 9.00904 4.75869 9.00935C4.74527 9.0118 4.73191 9.01479 4.71873 9.01877C4.71129 9.02099 4.70414 9.02397 4.69688 9.02665C4.68967 9.02933 4.68246 9.03163 4.67537 9.03469C4.66617 9.03867 4.65732 9.04341 4.64842 9.04808C4.64344 9.05076 4.63834 9.05306 4.63336 9.05597C4.62428 9.06125 4.61549 9.06714 4.60676 9.07319C4.60207 9.0764 4.59732 9.07931 4.5927 9.08276C4.58467 9.08865 4.57705 9.09516 4.56932 9.10167C4.5641 9.10611 4.55883 9.11024 4.55373 9.11491C4.54729 9.12088 4.54113 9.12731 4.53498 9.13358C4.529 9.13971 4.52297 9.1456 4.51723 9.15211C4.5123 9.15762 4.50773 9.16351 4.50305 9.16933C4.49654 9.17729 4.49004 9.18518 4.48389 9.1936C4.48008 9.19888 4.47656 9.20447 4.47287 9.20982C4.46648 9.21932 4.46004 9.22865 4.45406 9.23868C4.45055 9.2445 4.44744 9.2507 4.4441 9.25667C4.43865 9.26654 4.43309 9.27634 4.42805 9.28675C4.42389 9.29525 4.4202 9.30428 4.41639 9.31308C4.41281 9.32135 4.409 9.32931 4.40566 9.33789C4.39934 9.35419 4.39359 9.37095 4.38838 9.38795C4.38791 9.3894 4.38738 9.39078 4.38691 9.39223C4.38691 9.39231 4.3868 9.39269 4.38674 9.39277C4.38633 9.39422 4.38592 9.3956 4.38551 9.39698C4.37736 9.42431 4.34355 9.53874 4.29533 9.71748C4.25789 9.32809 4.23334 8.96136 4.23334 8.66757C4.23334 7.34402 4.72225 6.75156 5.20682 6.75156C5.22973 6.75156 5.25205 6.74873 5.27408 6.74459C5.29629 6.7488 5.31867 6.75163 5.34123 6.75163C5.44008 6.75163 5.53969 6.71099 5.62441 6.62686C6.06193 6.1927 6.62637 6.0468 7.4543 6.15358C7.7117 6.18711 7.94139 5.94094 7.96688 5.60436C7.99231 5.26787 7.8041 4.96804 7.54647 4.93482C6.91119 4.85284 5.99168 4.8311 5.19152 5.52744C4.07467 5.53923 3.2959 6.82695 3.2959 8.66765C3.2959 9.95729 3.68508 12.3076 3.75967 12.7462V13.3982Z" />
<path d="M3.28125 24.4898H1.19455C1.04742 24.4898 0.9375 24.3748 0.9375 24.2719V23.488C0.9375 22.5798 1.36506 21.5039 2.1825 21.1943L3.88945 20.7279L4.771 22.3892C4.86205 22.5607 5.00807 22.6527 5.15666 22.6527C5.24877 22.6527 5.34187 22.6173 5.42326 22.5436C5.63602 22.3509 5.68893 21.9694 5.54145 21.6915L4.66348 20.0368L4.92275 19.5232L6.75082 21.3062C6.9583 21.5086 7.25197 21.4529 7.40684 21.1819C7.56176 20.9109 7.51916 20.5272 7.31168 20.3249L5.30525 18.3679C5.15754 18.216 4.96688 18.146 4.7799 18.1756C4.58865 18.2059 4.41264 18.3388 4.29703 18.5402C4.29135 18.55 4.28596 18.5601 4.28074 18.5705L3.8127 19.4977L1.97426 20.0001C1.964 20.0029 1.95381 20.0061 1.94373 20.0098C0.667676 20.4767 0 22.113 0 23.488V24.2719C0 25.0674 0.535898 25.7145 1.19455 25.7145H3.28125C3.54012 25.7145 3.75 25.4403 3.75 25.1021C3.75 24.764 3.54012 24.4898 3.28125 24.4898Z" />
<path d="M22.022 5.50683C22.7111 5.52482 23.4731 5.68595 24.21 5.84172C24.7668 5.95937 25.3001 6.07105 25.7632 6.10994C25.7469 7.56002 25.6741 8.86406 25.5915 9.91403C25.5906 9.91312 25.5896 9.91235 25.5886 9.91143C25.5812 9.90439 25.5736 9.89781 25.5659 9.89138C25.5624 9.88839 25.5592 9.88502 25.5556 9.88219C25.5515 9.87898 25.5473 9.87599 25.5432 9.87278C25.5427 9.87239 25.5422 9.87193 25.5416 9.87155C24.6035 9.1335 23.4667 8.70767 22.0664 8.5705C21.808 8.54494 21.5833 8.79815 21.5639 9.13533C21.5445 9.4726 21.7381 9.76653 21.9962 9.79179C23.1907 9.90883 24.1578 10.2514 24.9475 10.8368C25.0585 11.1789 25.3029 12.0447 25.3029 13.0389V13.3989C25.3029 15.8005 24.0292 17.7542 22.4636 17.7542C21.9091 17.7542 21.3722 17.5093 20.9107 17.046C20.7054 16.8399 20.4111 16.8902 20.2534 17.1583C20.0956 17.4265 20.1341 17.8109 20.3393 18.017C20.9661 18.6464 21.7006 18.979 22.4636 18.979C23.4812 18.979 24.435 18.3935 25.1492 17.3303C25.8528 16.2828 26.2404 14.8866 26.2404 13.3989V12.737C26.3062 12.2793 26.6932 9.42858 26.7036 5.66084C26.7156 5.60045 26.7209 5.53669 26.718 5.47101C26.7033 5.14424 26.4947 4.89301 26.2472 4.89539C26.2432 4.89523 26.2394 4.89462 26.2354 4.89462C26.2263 4.89462 26.2175 4.89577 26.2085 4.89638C25.7549 4.92715 25.0772 4.78432 24.3597 4.63268C23.6266 4.47775 22.7958 4.30208 22.0407 4.28241C21.7801 4.27422 21.5678 4.54427 21.5626 4.88237C21.5575 5.22048 21.7632 5.5001 22.022 5.50683Z" />
<path d="M28.0563 20.0098C28.0462 20.0061 28.036 20.0029 28.0258 20.0001L26.1873 19.4977L25.7193 18.5705C25.7141 18.5602 25.7086 18.5501 25.703 18.5402C25.5874 18.3388 25.4114 18.2059 25.2201 18.1756C25.033 18.146 24.8425 18.2159 24.6948 18.3679L22.6884 20.3249C22.4809 20.5272 22.4383 20.911 22.5932 21.1819C22.7481 21.453 23.0419 21.5086 23.2492 21.3062L25.0773 19.5232L25.3366 20.0368L24.4585 21.6914C24.3111 21.9694 24.364 22.3509 24.5767 22.5435C24.6582 22.6172 24.7512 22.6527 24.8433 22.6527C24.9919 22.6527 25.1379 22.5607 25.229 22.3891L26.1105 20.7278L27.8175 21.1942C28.6349 21.5039 29.0625 22.5798 29.0625 23.4879V24.2718C29.0625 24.3746 28.9526 24.4897 28.8054 24.4897H26.7187C26.4599 24.4897 26.25 24.7639 26.25 25.1021C26.25 25.4402 26.4599 25.7144 26.7187 25.7144H28.8054C29.4641 25.7144 30 25.0673 30 24.2718V23.4879C30 22.1131 29.3323 20.4768 28.0563 20.0098Z" />
<path d="M35 16.5714H31.5714V20H30.4286V16.5714H27V15.4286H30.4286V12H31.5714V15.4286H35V16.5714Z"/>
</svg>
