<svg width="17" height="20" viewBox="0 0 17 20" fill="none" xmlns="http://www.w3.org/2000/svg">
<path d="M9.5 13H5C3.93913 13 2.92172 13.4214 2.17157 14.1716C1.42143 14.9217 1 15.9391 1 17V19" stroke-width="2" stroke-linecap="round" stroke-linejoin="round"/>
<path d="M8 9C10.2091 9 12 7.20914 12 5C12 2.79086 10.2091 1 8 1C5.79086 1 4 2.79086 4 5C4 7.20914 5.79086 9 8 9Z" stroke-width="2" stroke-linecap="round" stroke-linejoin="round"/>
<path d="M9.2061 17.4023C9.1041 17.2624 9.0531 17.1923 9.01785 17.0573C8.99405 16.937 8.99405 16.8133 9.01785 16.6931C9.0531 16.5578 9.1041 16.4876 9.2061 16.3481C9.76447 15.5813 10.9885 14.25 12.7498 14.25C14.5112 14.25 15.7352 15.5812 16.2936 16.3477C16.3956 16.4876 16.4466 16.5577 16.4818 16.6927C16.5056 16.813 16.5056 16.9367 16.4818 17.0569C16.4466 17.1922 16.3956 17.2624 16.2936 17.4019C15.7352 18.1687 14.5112 19.5 12.7498 19.5C10.9885 19.5 9.76447 18.1688 9.2061 17.4023Z" stroke-width="0.5625" stroke-linecap="round" stroke-linejoin="round"/>
<path d="M12.75 17.625C12.9489 17.625 13.1397 17.546 13.2803 17.4053C13.421 17.2647 13.5 17.0739 13.5 16.875C13.5 16.6761 13.421 16.4853 13.2803 16.3447C13.1397 16.204 12.9489 16.125 12.75 16.125C12.5511 16.125 12.3603 16.204 12.2197 16.3447C12.079 16.4853 12 16.6761 12 16.875C12 17.0739 12.079 17.2647 12.2197 17.4053C12.3603 17.546 12.5511 17.625 12.75 17.625Z" stroke-width="0.5625" stroke-linecap="round" stroke-linejoin="round"/>
</svg>
