<svg width="17" height="18" viewBox="0 0 17 18" fill="none" xmlns="http://www.w3.org/2000/svg">
<path d="M9.5 11H5C3.93913 11 2.92172 11.4214 2.17157 12.1716C1.42143 12.9217 1 13.9391 1 15V17"  stroke-linecap="round" stroke-linejoin="round"/>
<path d="M8 9C10.2091 9 12 7.20914 12 5C12 2.79086 10.2091 1 8 1C5.79086 1 4 2.79086 4 5C4 7.20914 5.79086 9 8 9Z"  stroke-linecap="round" stroke-linejoin="round"/>
<path d="M7.26106 15.1026C7.13186 14.9427 7.06726 14.8626 7.02261 14.7083C6.99246 14.5709 6.99246 14.4295 7.02261 14.2921C7.06726 14.1374 7.13186 14.0573 7.26106 13.8979C7.96834 13.0214 9.51875 11.5 11.7498 11.5C13.9809 11.5 15.5314 13.0214 16.2386 13.8974C16.3678 14.0573 16.4324 14.1374 16.4771 14.2917C16.5072 14.4291 16.5072 14.5705 16.4771 14.7079C16.4324 14.8626 16.3678 14.9427 16.2386 15.1021C15.5314 15.9786 13.9809 17.5 11.7498 17.5C9.51875 17.5 7.96834 15.9786 7.26106 15.1026Z"  stroke-width="0.5625" stroke-linecap="round" stroke-linejoin="round"/>
<path d="M11.7508 15.3574C12.0027 15.3574 12.2444 15.267 12.4225 15.1063C12.6007 14.9456 12.7008 14.7275 12.7008 14.5002C12.7008 14.2729 12.6007 14.0549 12.4225 13.8941C12.2444 13.7334 12.0027 13.6431 11.7508 13.6431C11.4988 13.6431 11.2572 13.7334 11.079 13.8941C10.9009 14.0549 10.8008 14.2729 10.8008 14.5002C10.8008 14.7275 10.9009 14.9456 11.079 15.1063C11.2572 15.267 11.4988 15.3574 11.7508 15.3574Z"  stroke-width="0.5625" stroke-linecap="round" stroke-linejoin="round"/>
</svg>
